<mxfile host="app.diagrams.net" agent="Mozilla/5.0 (Windows NT 10.0; Win64; x64) AppleWebKit/537.36 (KHTML, like Gecko) Chrome/136.0.0.0 Safari/537.36" version="27.0.5">
  <diagram name="第 1 页" id="9C2_u48pzZWU0m_lAsfK">
    <mxGraphModel dx="1318" dy="1717" grid="0" gridSize="10" guides="1" tooltips="1" connect="1" arrows="1" fold="1" page="0" pageScale="1" pageWidth="1169" pageHeight="827" math="0" shadow="0">
      <root>
        <mxCell id="0" />
        <mxCell id="1" parent="0" />
        <mxCell id="2Py7GzrV8E7ZPu55W8Wi-1" value="" style="shape=image;imageAspect=0;aspect=fixed;verticalLabelPosition=bottom;verticalAlign=top;image=data:image/png,iVBORw0KGgoAAAANSUhEUgAAAhgAAAJuCAMAAAGyJrtoAAAAAXNSR0IArs4c6QAAAARnQU1BAACxjwv8YQUAAAL9UExURf////7+/vX19YyMjCUlJZubm93d3djY2NnZ2dfX19ra2tbW1tzc3NDQ0Nvb283NzW5ubqmpqfr6+v39/fT09IeHhyoqKp2dnd/f38zMzG1tbaioqPv7+/z8/PLy8oqKiisrK5mZmd7e3uLi4tHR0XBwcJ+fn/f395OTkyAgIGdnZ5CQkJKSkpGRkZSUlJaWlo+Pj5iYmIiIiFNTU6Wlpfn5+fPz84uLizc3N3R0dHh4eHZ2dnNzc3V1dWJiYjY2Nq6uroWFhU1NTbe3t8LCwr+/v729vb6+vry8vMHBwcDAwElJSbu7u6CgoEZGRrq6ukNDQ7m5ufb29omJiba2tri4uKOjo0JCQrKysn5+fmZmZrW1tYGBgWpqasPDw6GhoZ6enqSkpHx8fLGxsbCwsIODg46OjpqamrOzs6+vr7S0tEhISBcXF62trU5OThoaGqampnl5eXJycnd3d4KCgmVlZaurqyIiIlxcXCcnJ39/f2NjY4CAgE9PTzg4OBgYGFZWVlhYWKKioqenp19fX3FxcTMzM1FRUXt7e1BQUFRUVFlZWWBgYF1dXUtLSxkZGT8/P1VVVR8fHzQ0NCYmJhwcHDw8PKysrDIyMh0dHYSEhGRkZDAwMBQUFD4+PikpKSEhISQkJDU1NRsbG0BAQBYWFl5eXjs7Ozk5OTo6OoaGhh4eHigoKBUVFURERFtbW2FhYVJSUpeXl0FBQSMjI3p6ejExMS0tLREREVdXVw0NDS4uLmtra0dHRxMTEz09PSwsLEpKSkxMTC8vL319fRAQEGxsbFpaWmhoaKqqqpWVlW9vbwwMDEVFRY2NjcbGxpycnA8PD2lpacfHxxISEg4ODsTExMXFxejo6O/v7+fn5+zs7Onp6fj4+O3t7erq6u7u7vDw8PHx8evr68/Pz8jIyOXl5dPT08nJyeDg4OTk5OPj4+Hh4ebm5tLS0s7OztTU1NXV1crKysvLywsLCwcHBwUFBQkJCQYGBgMDAwQEBAgICAICAgoKCgAAAOnGtLEAAAD/dFJOU///////////////////////////////////////////////////////////////////////////////////////////////////////////////////////////////////////////////////////////////////////////////////////////////////////////////////////////////////////////////////////////////////////////////////////////////////////////////////////////////////////////////////AGb8ilkAAAAJcEhZcwAADsMAAA7DAcdvqGQAAO9NSURBVHhe7L3Loau60jXqFjnQJAXiIALSoOEM3CcR2k6BLAjkNO4Yo0ovEBjPNdfe59z/G9gglUpSqVR68Xw8ns2f4vFYhipaPxroKykJ62ka8/oeuufw6oZhGd/P93OBq4rzNNbn9B7m4b0838NrQBrzsnrQDudpJJyVISCl8dgBUQ+Rew8LMGqXp9E/tu3xaLtpQ9JGLdE9um5rtm3r1qFtOufJ5dh6Bj8e62ND0kZ1uESQQ6K0zWPqH0NNDgOTAYwaYImAW6HhL6LL0WYln/x4hbKW83oZhUX7WZSYdHT02pdppLIgDe3NG4lZfMLoyAFU49/XrdJkKWNZS6DiHjC0yGNMpU7NAsjVbzsBhBBapuE6jaR+a8i1tUjjCNYnQ2UZj63loc3L0naI1z8m5TTW00CF4oAScT+MPJRlYbI99kxjrabRuT4UeevcUHOd0u6C1oIdl+hhYThAVu4bFI3I0uhIoiVKjmoaXYjN/TZLH7V6GZWGZ7FDh/paW8jLkm6NEqzbB9MI7alECDXN2qEiB1ouuKzcB3RWL66VkEaS4wpHa4s0HCDHzF6jYdfS8B/cJIoAb0PxqhAb06BDCbTttvXrtrTLOs/tuL5t/GiaCQzzsm0jeq9lHrvxOc5LO4/zjIA2pkF00/v1XLZXP03d6/l8vp2+MY11eI7Dsq3L+Oz71/uFym1W0BumIS4KYmmpKLanCKJNTrN/2DtMjshrKDwC5SgQOHi8nQYqkqKxQuH3gx2VhmTOk9mlQZ2iHZH6QOl52KeBv9x2UM9viBTKsSrlkMaEJlykMQwNRqW26VvwdlOLTDd2Rm03NEiobZiGycahh4c1pAGK0mjbR9euLZpjBzteKQcaH7qkRz82wwRupGFmButWGrB6eRkrK0sUnZOSEtSHpzEyDfSXTBleSsI0XKPNKC5CXqo2KBdpuE5HjKSMi0LyiPa2S8MdEWQTkIZ0SdUqDeqBVY3ORGkEe0hyRIRkqFMUvH2jk3y07cyk2raZWVBPQ9zNcXLX+jHThynz0c0oDo4TisY08Fd6khBA5iIYiQe2W1QAI09WLyvVAj56LQ3YwdY/mo4aIS9jo1fe2qHpyOJlkQCc6HAcY1KQCWpiGqqptoPWMJ5TT6hbpLFhTG5eU4sQpkFxKIAq5NGtFBfSeVn2ph1tPYJpoB9nZFYm5OhcDtYP01AgSjHhaD+rD7q9YpBG62lQDpbLxBo9DVO9dXiMBYg/AwbaTg4KyzQwAzA/jlkayOwAC1AarC/mnrV9Kh/kXA7UCqPFAgAWoLKAGQSPbAf35mkYGJPBDnNP6PLZ6fsBFiufeUManuMe5ANMVXTYDgd3EUpDrhI7WlSV0VPi3Jkc8lq3oSKy1rFPCVkaDDAdCCG40Afo29Bjuj5sMANWhHOlNNaebY/ztTINHmMabBj2V6aOmAYCGJ2S7tJQCk2zEpgL6IA/SM5m41wKGcDGOYRQlIW6cmeEsZkc9OCfHQSk8eq7rg/o6MZOR3P0pOjHXTjoKHTTxRxmwipuwjxgnboZ/cD0fttKYI80lzpi7l5r/3q+ug7JjUjt9fSQHGmebDOjfM6EQUsH/1/g3nzsGikNVrpqjKDHnQPNAUtASiPLcDKdNiG/TMPKwK7LA2iCxzTK+WmRRvDAEdwcLy/lwKAFVs87TwPx3A0hkhw0MrkyOZo1RgNnn9KAL6aBxmJOuNG4cSzWQINWLoZHH9LgoJylYfqgsOpZRQ1pkDWqjgwWT8yY4rBe6CToQMjjgUYkZ1aWlB08GNeDBwuaXP5dWZB2VpZFKzlDoVP9zJl0yiHiWC9ZNGUS0wCiM5MDzkMaczQDixc86CmCG51FSqMZj2kU+sD8051c8VTkgE53ckAztDGRiExmGU5wYroZ3Rw45TrVR6ZTIHOm9IIct9pLYZt5et/KIXNzN710Mo3C1oF6GmXewc2hcFPKV/3pXUCO34APRgfECe4nIA2X6BThpJUfjjhNY+qG92t6vt4Ymd7Ds5uf89lZr9M0Xs/1PazP8f0c8HsNz9f0dRpfIKUhG0wwE9zBwyIi1ZXFWWyPXm/bFvY0lTTQXyK4GbYRB0yF8jSCa3o0WCe0D+zO5Ng6LCUmnffkJNWpWRoFYhp5lZbFLdM4rfpbYBrBhnTC0mGkhHouRo0CpdOQCijPbga03pbtoFkRuFMacMHJvQ1tTja4GIkHSyzuRZdXsBDsoM1Hj8W+0w3wWY5lGkJ0hPCBZx55ZsDJBbBsJA9WM0gjnHIMaTAPrFzp5xm6R1s/T2dp2+DfoP9yqssBHWDJCn+v/cn5wsfA03s8eY40mjCEZmXBchL7jhI+Rp1VzGDa4TKOcZgDF2Ii7tKANJgowD237G6TWt1lpzu5MKUcPF8sakpDTjYD7KF1JxeAxhk6oURoMnbqky0xMLMpyM96gYE4uUAIJWe1blU+hnN/lgbpzI36CDwpjU9IygGirnhAGlyJoIfnXmsSW5rYSgZH/xeQX0wE0nBWpoLlUrN24zjPzXN7TSQayMoTkPPavJ9YSTzmsYVWB52UjGnQs/Zwv17TNj5f6BLR6+Vo2um1DtP67KdX83rOSOz9ZFymEXhSYjpyJ1JC8kQXHCbHjreIlyGP6Hv+YxqiOgqPAXxUPmaUkhs+m+CRakFFMscUEGTcnF5X06DBFTic6yP3aOcZ0OqUGcy+TAO+Zpi2Ce0NtkcqCD28PHXSrzxpbESksUIOpII2SYlTGmOzgRH9QQsqGid40Pg1vcFuoAR23tR2jIseAlTk5GlwlwHZuCtAkVwOpoJoA+VARAnI4jPjpFNAFB3lBcSNIlBMHOG3NFRyT4NQ1AIWn3ismJ1TDqXAaHa+jMqUpBlviRiC0qEYmFWh58ZhhQ9zLJ3FMDmYoGe8QySjIKwdyAFWHB+YX9Dl+mAeEUzT7YNBPNJJtZMbaXTIk/2lygJhsjSatZ3bDqthnYCDH5OQuWnZZ7HILIvJoTR45o9yPFDHSgP/CQRWHmdBMAWYSzuKgsXjMINFREQ2GwM4EQIVHSNlPNg6lOCuAHK3rg/2/PDSQnBQIHZUGeSyjKzqbC+Nysc0mBJM3E/FenuhkpljUj6RXAV40h4HrjjkxVjFI0vrcgiilUh08IGbJ4otjX3bdzAsJIQjnSnAuCUH/ThU0zAgxE5kGYJ4OkEJrw5oNzDZSEU6FlMJGNKYoOiAOaI3OaV8CVOg4UCSojtKf+FjvTg/z6wjQZWP9S+zKoBghppDbmOA0+XmvAajOkiYh+j0eJaGXIyH1ovhcG0nuF1vYLWjpwGknBSSQTSkJiFTuGzMk2g4dbXTkgaSjc0QQ3yS62QT2aE45hTkdkYrjft4SKkzDTtHGc5D8qjTlQK9ooQgHXIfgDQoVg3z9OyW1/BapukJLNkJx2I+czUPGufnsmBl+Oze4zTO43N6290OnkRMyNKg6R5R0nJfGXIhx22ENOxktZwA3cGTBWDgZPcnZOTcUU8Dle/n0pAGFovmvErDSuoec/MKpTnXxxrXE1/KgT7TnFwvXKcRzktBFIbHNDjCmZMnNlMaaDh0ZPN1ZhfC4eHPAGuWHEhaMxJz1uRAl/aM0ZhgyETjiQeENIiYRiGHy0Zw3Z4xpzQwfJmTZUlRoyM7T8dowcPzBO5G3eZpBHIuR54G6bGes7JEWWNZQhqqiiR+kSBsLLgxdQnrUaTR2zoqpAFk6ZLKX3BbvQClTmM2gUg7iuGkZsyYcZoT+sjsI9p95M2jFZ7MXerjKEcqi5QTPHCzwzQn5DjXqTlitMKTMaO91Mi5Q05VaPAQRRp5WSI58f4cSu4X8Jq+wOjHXwVnoN+dx8VwjFXtc+zm9fmc+tezfw7vgfffgIpxbJ7er2X58tSw7P87MdbhOTzf4/LuMQp2L3jWcRiW59S9Xv36npZpGcHyFb4X4yOsy/kOaLt7MXyeI7AK4qTIj84WcstyLUd9Tkmu4GxC0gZnu0pGPOoH0d/yYL7g9p7oE1qJoRUF55iYaGG2iB6uxaBgyxpnFCqVQsrWYX3eY5qKRQ+2beT5Mk5+b4shRXMSCVHWEct9dG8dDsMMUVSeXI97MRBEClKIu9IdxcgqwFz7eZi0wY1KVUyq1zzcOZtQ0YYqh+sT3VRxPDpbBAkHYgU+l6yiYqJ71C9Q3MkYK+JlmWfbYW8e/izHlMaNBpuXoruXf0Cbxw0z61yfwXlDjDz0cM6/glzOPO6M3NxpLvmMu95SZEZ0h7avGJqclqZ1BYvrl37l9rhqrsFjqIsh0I2klLUntfZpuvAR1lJ0Qy/jYtLhcXmSgPnKY0gmGnUJbk6k1K4pBqfGISkO6mK6AfQ8vBsxFGHEnNTcmJDOIyhZE69rQ8tjuiGGulJLCp2ZLnHcg+KiAkIRmJIC0K2q95DHUIhhwpECRteG+lMkBQ/oTEFMN8C46HiDJgdMh4M2EFKqtdJvgElZ0u31GxWLGf6lNqKWAbtlMNNGcFOMqA2LkbQRUyCFsejmuMATH56UaekmELehgcjDpy1CETC2hVu0AeX7uaUQpliMTT12dN6Bx41FIBRAFUWPIRMjqEMsAN2nSZ0hq5VKXLOrQoxdpXj8LBli5/1rcBPlhaR04a0YReGOoe7mL/6NIjdmJRlsqAbZjnKRy305TBt2FyB32NvpKx46rfmaqV2abZ6b5tUubd8sCB3Hbdxe6QSXgzeqCu+xW16vBZPndetfr7kDZXu+XsN/lvfrtb22rXs+t3fzDhE0o7KbAOXXOUthbZt3O2K+/3y/l9f0bLfnNHXd+/kemuerYSrOGRHOry49XO9u69/vV8PR/j2/uu0J4d/zOLaY0PPG/ea9PT2Ci0GXRMnQUzGYOQ4j9bKiw+mbHh0SOvem5e94Vygyz2kcRNBD0MUdnSylPMYX90mMCkye6DbHBfKzzTeQJZhVSg4PzVAl7pDEcF5dywDKqPHkajpIjEW5GCzoiIugCIjB5ADnZersMswXAoMY7mWoV4oGPSHGcYqzUQobFoxiZHbuOuAPDhPDw1hMpA6LglRWBjh0ns31AD4BThcDB529ACA96ei1sYEfBJ6v4YjgEdkLQjsYbTgvQXYKQSQ0WBx5Vo25ABRDuZsXMmlsNJ/k0D8Tg4bf9ljONI8Jvo79zPjom2Gb2snF6MZu4rVL1C7a0IptQo+N9sPL+UhM2mDCWaUMK3bePBSIcikMoASlGIpsSQTkHolRhBoyEvRjYnR8PgBJ488JJDeX6rGNPc8Lmo+8FjOIgd6BfSx37Jax/lSXGzvfAVKgHyKNVO7IJa946IsmyvSt+Eh9bKAwugHPN2lDF1EybQQwOwJd1jmc9wiJQcvJKkUI2sBoC18mhkIhshgxTOzS3z9eUs3bYyVQDEvbGDgH7DvkrNgavqgQEwM0U1rQxsaHW0pUu/cS64ok3C2YNnTalSkza7mQQzTRHpFyExXgkjb8WY4LfAoHIIiZKFN0fmqD/Yb5GEg5kxgYvb1/oDQQgwfxq26xdofFW2x1INZgySMdil1uXlJmAIO8+2rQAyUxBHrxfzymjqe0GSQvjgh1RnQZPCCVRzetA5TaI3fe8dK328ob75iOsoZS2VUMdp9uP8y8+wtCMszF4DgStQEr62UbqhY44IzaQBx2qpkYKmoCZXSYvEEbJRRkHHDouRiu8sAaxACd8eiF8fDMEyJkYvDWiiBGHGFb5MaeAOVivgYR3cFfJKnToFOBmIB4L8r8ojagX9DkZR1KJUmMx8oVJZyFGAZyIEEhb6h0Zl4GBnYHxdi6FWsQUdUd8JJPFIOPXVGMEAkDB5jhoBgw0T0qj6XdAEwKOXHn+SD11ntRUrDe0SkBD6UGCJN3rw0W0HpR4z6FeAj3W6UITkJ7G/joorN4YGqwBrhMG57cHsqIu816d/NDeLmjGJYmUIhBsgppXvrdlxqsITCezUUzBGM5IBfEnv+7gxBDgMcrxQnnkBjK0iHqDmTKAtwZKSkoj0233faQacMzaXwQj0jjuqEQKQiVqczZzhDbrB0kRtSGp8lUvVY3LFd4WHmaB4Jzbmi9Vg1x1RbrfVwHmHu7teiKJ7vbTAiMpRi7sgGcFwDbhFUTWj5vWOI5843tXgE1ZNpwLkyJNvQjKARGBd5ZF8SwxxUFiJRpw/N3uDZOYSnscBAj5HpAUpsQtFGAYrhYSbqdmM5UIhPjO0RtMN34Uxb8cSdTtl1ARje3//rEpnD67O/0SA0gQX+K4Wd7OLU9YE/M/HlQNW7CZTACK+e+ALWpc/TP9zK9lm4c+9fcwfMcuq4blnEeuuE5TP04DUs/X1252KEuxgdMz1f3eiKjZZn79dnxlTTde3wv73l5969xHtvh9XQxsvJUiyain3T6t5Fpw2UlQdAZvBxOx9hUlsupuxiYkXq7dYJDNO7y081HbcSmzkRvZOd0RMvTVQFJQ5ATPLWYfs5+tA2xEGVmSMLpMSTICErP/vEgxqPXyVEnOL4Uw84M5/CAfbpGR8s/iqGTDEcxJEm49UioioHuH5y5GCo44ysFkRJA40P6lUrplL4TkAiTAXcz8LnpazGYkZ6urmgDYxxvUHR/ACgyxoo2GAb2UH2ATmFsL+xz9qOJwo8+CfuaGKgqhLg/AGQOn3sxkJONqE5wUACuFT5oA1zbzH0SwwuDBNaeyw7zxjJS5J4Xf9xvQMoY45m8ExwUjMumD2Iws46qr2ijavqit0yoiEHCpOSd4KAYXNh9rhSb3dQqhZZ4EAOkpmUduN9AbeglFRUxYDOfK+UxzYeyEaRpYuD+AIo2jns6xei5VqqIwSllEENVW9XGzKqrioH55DEEKaK2QXe/geoxtToBUIMFveWrRyhGMK+qNmaui6ti9Lt0Bek3Fc9BMawDcoKDjJoZ5+xJG5nd29tAamIgchbiUUBpdP7AvA5VChtmRQzrPJxAVLVhvZH7ExgiuD8AFGWX6JSPKaN178WgBMZ9KoZKR4LgT6cnOL0qxnjIj5XS8UGJHTslEOqVEiAWwv0JTq+YqMP9BhVQcIJDYiRtWFErlWJzZr89IIfTi6GRqTi1oCtlKJ/5OcEBkirlMMJuS7fy/nLs1s7u7RLk9YDsQDDMA0uQZH9PxFBjTYyd7gP4b4EtkP5NyDb8bsl/DWNtCLwDWmZ1RaUAc36Fr8V4vp98zPndvZ/P8Tm+XsOINvWcn3xw4dlPC1ZsvGb8Hb4W4/1+P3kL2Qh53svYz8917IbXPDy75+u1Yi05QKQv7xf9mTZQ/BV5LeMbEtCFlesKIV7wjyMI86HT+YBvxWjH5+v9HMZxeLZ6C+p77deuR2VAAc/n3L1eUw8WZ7+Lr7Xxd/DfK4Z3wA7exRtJ8gR8aJhM+QLO5ThQNOZewNnOkGRz/jM4l+NASWJoeBSSKzF/7KTAqwdRW+wxbjfN1tl5Lj5Z/UGM1sXgJTasxDYuWDAxxbpn1KWsffQcO8HA203NY2rarl07XgBtmSLkYqKXYiAlE6MdMJ9qN753UDc1r+3sIc75GeDluxc7vk2D5eITUBALg8D8KtNBroeUeX8aXzzQDlAlHwHlkqfvuAzXNMbZrmBqQTIb74Lj6hZaaKFNvuQPukBiyjRTX10MTY/0s50cBmf7DHHbRMvjh72OzuU4UDIT9b0dA5ztM2J8R27n8DmXgyR3GrDEKVB6G1ckDnJlei3cFRyGGTvtYjiIsUc18cscTwIhRjFFKdg+ivFH0C3mvL8cmx3omufDK+SqYuj9LTV8O37nYFzXQHu4hb4iRnv+Du0/FSPAMsiqZSeG1V6+fhozmfo8AJwysiyxPfh2pBDc5RXx8mNERRuYvthBuXghLLV7FwWiYMU7dfK4n8UI/YZiuVsc7A2jm7sPIC8j0M2TRMEdEi1kJMGdhiCGuNwdk2IXS/cdWMwUN7i1JgEKOyPBnYYzMfgAfad7SErkiimU5FEPYoSAqhipPsUTxeDYFpPaeOMD3YmdjiL3CKSRKhHurFLoLM8YBMYIF2MLYmiaQXeL0QUjbclNuBR7YcBpRUCAtIHaIB0HXoX9XCk6D+9i9Cvv6qE7lei4bNwR5AVn1AbLEx7+hBjovm6IMXe80YkeKGPifVx0g7bynD7dnlMt9wjmHFJXESiYBbSP8DxCQE0MPv+VTNQ0IDE6lo/uS7g0zDnEpYdp0QltaDoJMZLcIVAk/lkjA5+mIJFJ8SQm3SjRmD+J/Amo3I6GRjeKwPvBMKWTGDPPNn82UZ41dDGaeP6Xig0i5UhFKgF23lATxNCLwT1gwozdMgioibHyhoVQKbrNjW6I0fYHbeyFSH6mzOdc6UbchfNxunmb7qU2lATF4PWAUClkSGIcu69TIFq0DWnS3agUkG+0FL0V28UYdFGRbiQ1rCdi7HQiL4rDd6uHuOsEu6cbAW2Dchanf6tiEC4Glq3wwIk1A+BKvoYlT63q3jtSYGS8OZBuVMpKc/2sDSJog4KHpLh+ce68/DtdOHgJgLfkmAcKcE1Cgn6FoSiDAOYoR0jLxQiVYqCbElx15gVAU8SsCITC3G1iMLIzB6+w04aBbiRFizuKcQJFBJh2JobuUiKiNpg1Ce40XInh7sR8Ci8gEbOhm3C3v9fYQEKRsK7qwcBdDC7aopmB7NZOfJAGCSsy3exF+QsBxLWJ/hk+iHYKSLFbTv4BkhC19VkkcRW6E9i0IRp2drQ0uHMSCYyozXPwhIJHBIUS9NqRu0Qn3J2TdGODRlGeD7KDufUnSUeSCfGISgpd5oyhB1goHeYPiF45XAyyc8+DJcgHADaWapv5SFfbbc2KXrHZum3mWfKmCTfBHtGM4/Z6Lc26DOtzeT23eR2HJ5/keo0L5jLr9myeE+LzwlQSI2RNYhSjXVoWuJnmrmtfW//mmfCmnV9du2xPhPN98QUsgW2bsGi2xNfXOL6ePQrw3N7d+lzhRZH6tn0+3m0zL+HWQNNGlood4Hg3DT/3MrbDc+qew3Nbp+nZDO/3C+V6DzyjVQMSmPv+3QwoLDjX5rXwHUzzNo9YhkKMbXhhdd93T+SEJFjUihjaE1h+dmvXvNqhn7pXOz379zQ2/XNqXhQREjljDkXni5yg9DffIDDMvBmkm6Z+fT635/v5hIr6dhneXYOSKRIQbcNESeD5zE73k0MiDFF065bNZlDtIlzRDkBMSxBw65d4+klMInPSk8TI4ILIaV77cxMsyCGP4Y5byFKXpyqGo8ilyO4URSENTtChEmikzDYcIh9xT4w8I4+BfUW4HUViuAAJHpjjnhjBXpT3HoUxJdFauEyMTB0edsBNMZicUhTc57UeAs2HzM3LFue24TJc5PUDMZiPRFEQ2pmFRTHcm4vBfDIYY4B5r+WwSAcxVvTZIeMohqfnPj6g4WJgdmI7i5J2TkAmEFrRALkUqCj6mbqQE8lZpVAY80iMEBM4aKP2JE4BieHuMyhp5MRvSIWc4NMgbj6eEjCfKcsjJm1Qbwg1l0WCPkmjdYPk2sAMkOHqg7WqxMa4XEMoaeSkO8CSNlL5eU2n5apRPorB52dy2wAFI3mHTLuWD0c1XG7phr7FzsyIk9+04r6ZebnnMaKn59ewsLGjdzEgU+eP51CMoedHlcxLVfFuOXmkDb5xNjdRZdRxRccPs63NhOW3HkhjLEpNbeiVArxsNm0DJiNzu4LGQQaK8aemUGCpQB61lJVZ0MuWgoNlRyD5aeO6B+6gDT4DpXfhdlAEq2N8YFYAK+ZrMxCFYvAcAxJcMeRjyvDgZ8MajMEtpISAUYym0EbH52nNi0Cm7GLAIKF9aKjQhoNFd0hD7jyYqAK4C38oDOzIie8Ot5y839CeXmSp8y7ywe8RM20kOeqotJQQw4+xwfJWuaSNvsFq1TyUkW9Eci+1IVk4mXQxfJ6N1hXm1ID76YIYvK5kdEMfZtyMSRamTRNVitQFxYDpyERdRhWXjO7VMh1uicFMDBRShwoUQpiXr1c1VwbqnScQ3AuZuHcvAwfeGGfxoIh5XUrbcFg++VBXgbFWnwJBTpgzZpXC0rvdIHAbedurgiSGQjMxPIMAcX3AmRjoV6yFAkwa7Z5OUNpH0/Ekh4KQPiSgqWQmKlhwDbWw7D3oDhAhhiXoikeWfA5dfrYUBRpWiMdeqqgUS+UbmBjuCUBOE/trs2Ldxs0TgPK9Sef9pnpys/0Ps9Y9t4hXrxR0jwfaHnzgyZ1CEEPjpDxSBtN3LyqFL54OgeQjYoNlEpaMJ6kG+gHvg5yIDzGUsRKTDOyu3UcZMy/EYEcMMa5n5iWooCsEMQQrFMRoOnTt5pGMkkyWQ62tOqWHIBMj6Acx3FWCBTfOkiFqHVDOzIknK+gGQG4xwtKLYASuvC5kYexF0fUVtiHBNWBTVkIJBvkoBgiwMG4KBRuyQBA2HBCd8cA0s4TkAUgnJAVigks+glkxeq4NJoYOaQQrH9keWjYEtDVyk9k5J+pkhQVjcoJZD9bGWG9j8sGwoI1OudGjsun5Qnjxg+w2bQJIgW3wAl4Ug9XEGHwV/oZ0eAvJuPJGlhCGSOTEqA4V9A3mSHwpes9XM6yQi40y2UYhBmcI5kVchCMZCiGTfvQzT9kiTGIowspZD+/tHmcMVrwBZsOAta6c7DCWOB8LBknUHfQEMi9CDZgIWSmYFcRY0SMlMZA2ZnH0atqjh5QtjNqYZl7cgNu0oQhC5oATdCNEMQyRKwCMQYyeHZayYaqS0DNG4MD+SlJJDCEX45BwDkSRbgvsY7gY20BrgCckitwYAlBVU5p+UAzOglKlcArIO1XsyEOCel53RQdcEznJbLAFKsSAOxth1UK9/BADRhF8crEwmW0wIYWBhS7b88idRxPdgPAwtLnfgJz83SyiIG3e8eXlh4xIhIECGyxIuTYyGIv26UjQnfldDPc5WCmcbzoZaesbu+ZDYK/HEgwQSF9O2mkjQ8rOCQK9RiVO5hsQA9XgvEjbM/DARiZqoG2IA+6M60ucTXtWTuxcYPS7etRFYRKDr1wwn8Qgohhe2gCyiPES2bTHKQB7UKXofkz7kLlJFaY934gRHOdIYjiBKHLSMNCxV5R3Hxi8dRMlxGa/mAmp0QNnpg3AqSFp+bEzn4L2YiCOec+0AUTBxK7s3U0fXUpIUKqOIicg99YqhQwXYiRYFETyY4mMQdD6CQhex87HOPjDybfH0WeV8nMUohay5u4MICvEgsN7PkwbQcEIraNK9yQce3+Qg4maC9jz8Al+0txERfsEz11w0j1Y+dwTQUKhDSOdAoGjLnx8zL8INQ/2F3F2YgSopIQt1ndIpP0lHY9OyO1spxATduG1Csk2nOCikAyg54GQ7gHYL5LK4d3Z9zAxEn+BXU+yM1FLUvkLMfbcNrr/g6f3Jn7dhF0zEFrkGUwMsCIpTEX0pXGSNYdnCMBMw5s/3EQPEDOya9at5dICC6thghicxIgOWApVuDYwhR8efIcb+iqkqXM9gr1Cy7WBhIKJ7iFmZj88hh5SSyKeKrV0TrQRJQuVwi/761VjnVTO81HE1ixis8pJYhhcBMKlZoKi0ymCyDcrRXw6VYmMKYdTVVcFohiWe0SKUcVdMYiYVJZmIUahDc/fMeTPgPgTIfZsiIClGqGINShOiOIRSQsJxpieSlEpDgtyBh7o8iNAp+jGvUOdegUmZGIo+QJ7MXaIdEvpADLod+bMAULQBhIMv1RcwqPlcZ3JPfJFf+BL4b7XUYfEkiAx+HEhgl8Qsr0DbidnHyIS0QMsYvgAkbMGyCsS2exIpxHoN8ApMdxw9tD53yrO6Fe4jnMuxnm8pZ/5Efi+ey3Pue2e7+49TT0vzY9rNwyv9/uFZYIzO4rU7Ax3jr0YMdgdNiKam6Dz/Xy+hn7u+tf8eo798hreXdc+5/m5sKH3r+fy7F+X96TvpLiqlBO0wzLNb4jxGmZog18hRkcyDM9perc9P5XxfD/n/runLyti5IWv4j32Yzfw88f90q8DdDB00/B6vZZxmqAavrtnmj88fYlMsnxcjELxBL0X4oSgQ7SLOFc4aCNm4Mf7uIqhsIukD2JcokjgKtsdPrLuxQgzjaNwaaSEJ0s3zKh2McSODvLROMEgboRtJTep7hSiGMwMSO1V09AsJOBEDKfVxLB0Lu8JvKkNICjkShtERRuCEwx7wn0xCCpK5TukQ3a7MuBiBKnJKLjfsCd8JwbBCWrXURgnGMA+aMgqtVGKEU0sEAJ+IAYz5HUCixFSBpUfgf1ppcTcnEAo6RiwK54qRXN5JxjIzssNPxfDLgE5ISKKcagUTJGVEDxRy2S3dcZBDMzSnTuBjO4UIMbIx0d3bIDE4O6ojW1YeRHBCQZy691Qxh7ko9CDVl1OMJDbnQLEwLwZ0U+0gX0egtSZML9zv0uYjHpTzVEb6DGcOyqPSbtToAD87Xo5AGTeYllog8kwYSxcKmKg4wM1sitPCt3oNJhoAfDvxbD1VVUbdrLVCQ5p45CO2LXSO2qDXXzGTfH20ZUP2coPowOk8e6WXbomBp80O5ZPLxuqiKE3XznBQG53Cg24rNU6IYJikLumjWmi+FldG7ve9HQQ46F3vFfEyGLzsiQoezYA6XI9UtPGNuTasNQoBq8XOHvIQmKkh01EAyRGBsppxXZCBFPEMJFrQ6lQDDv1KloAk1BCO6mNDLr7DSTmypS6GLtmohg8ECGkq0j6zEbT6QkFUQPgN+GOlTLolTBOMJDRnYJMlP9qS5GJ5yEQhUk2egOX0wzgXHmqrSKGVZYTDKAmAsZtWSdHpECNigLt0FIYqISP/SKTkCmKPaZCbr4CKqWvIFLldU7TBrOUN8WXGHxx/766rHwpHYcoBMRIiZxx7wkQA4uQY2auDV1/doKDCb94YfMoBuukUikmohMMewLEaCbej1OyAYrLHQXcla/Vy9edYKBKVeyd1KQcpwXw78WABIdEARZMp0UrlWJjuhMMkprUoxgYgBAqX1hekdlcVkJGVClqlWKnV2O6lgZpyrNIhwkbFew73ZmanAAgmIzuE0wM/p0QQaLEqGhjO+oP7I0eRjvaxqQ7FJ1gYLruFGAVvF3hRAz+a2I0ugbuBCs8WGExKNVODNAX3v31SQzkw14uZBYVKhGIihiVs0Zgt9eLVrTBV1jfEIP/qjaEihgGJxic/dCLis6dEwwkmsuKLdsQ5M2MK4pRpisxxuPsVexsWUdtGJxg2BNKMTIprrShO/+OCa86aX0thrfYRDAEMdR95VJcasMGGycYyM6u9VKM0G180IZDzBfaIBF/JxhIUJQLMVIxnRChERbIO3PjjmIg3VxNZfkinFYTw1JygmFPiNr4pZZyXSkRe0K6UuKEiHiOO1cFEJ+DYowUhv7atp0YGu6okOuHlP8dUAy+PpFvUuQvgR6emOf7FS1IPgP9+hXISJ6I48hKeLI4JEv6P0Q8dWnm/21ovGXj2V37+EXsGvd/MWIz+XvKWN/IhRdW9ALPoR+H9TkMPd8e1M89aV3HyyDvFSz8qi8AFj21PgyvdeK3j4d5nGfF/4u6/QeUMeuR4hffczm819fa9+/32E2vrkPpup5a6XooBspYn/O8PtcJvP9R34fIy7xM03tYXq/3tHz7UffvwFMEf1kZsIz3+kQB5+fMR7dXGAEMYnz2/L2657JCAcPynoZ1eb6W5zpCP7ow++7m91MvLOsREem8/tctY3qifM8WBUfFrt0bLeE5LDN0NLylDDQM6mB4zbAJXtO1b34AMJb3CtN4PbsXrGt6QmF/Ef+AZRAcx6H4oeeFWn4rfO0nUCbe0yGGlodO7yfr2TwAtCcayACD6XpQ+PE2Mfw1HC2D52J/Z/ubQOo//p3iH2gmjispPqKM7KbzU1QiW/p3molNRX6Mw/LijyGBsK7wxQhReA4wbv0ATyVBqsDujmXslGEp+jHmgINtcgbQFZTx2TQ+cxj0Ah0h5g1dYK/8jQanS+N7keTZ5ZN8XyoDi1GuR5u2XfncNAKRFL16Rqt7dKDraaYkwt+yDJ4x4RNCfHZ542dDWr3ZhA+Pb8y/WzfIwddA8dHw9oFBmS8cw89TyeD6+K6ZbN00rfzUZo+ZPHJth3ngQ1x8Th2r7m6bKMeoG8w9iilDuZUVAu+OcBt6ih3CrJOe5B63puGtn23b9K0+CjdOPOPEYL2wBKHtypvYXRln+d60DGZOdA0GvonXZpuGJwv4phSeouCd9JCu3SaoZlk7PXjicMu4VfJ76rHa4UO9eosA30Ngz/42VBO/kMfqadulgUk0eiSta6ZWD5UB3yljNzYGZWjXoCvfeB2wAQF1oUu8qBz60IJWvlORTSncJQy6J/MZByFPpKYyQocQRIs9hFHgxT+n0Gt+T+WIu32GJWdHSzIcIvZkOKzL8mQ+4Z5VEKkD/RGUUy23qz4j8Me8WbadGDWpqAB3MsLvd6Dssf4AVUWQdscyPuLOguFn3eVP4qD2fjgnu1DGffE/K+NuShnfzSiSMu1E4UrGEwip8FgQasibyRXfJS6UcZVmFJC4ZqyHnt0RXKUziQ+1dt1MShlGPx4wnZTk0lxTHLhOEviAU2Wc5fuVMijTqVzteBbkeRyCv227ZQKFD55j7l9ZBuOfVieA4LplHPMFep6WIfahC89eljCW9+Et6b+KSr7CWsuXZZ1CCQD4D6XcDa2HcCKcUNHCGbuo+B66jIAz+hBD53Ic9TMyRV7RU5VghzOL2JtizJenlBgUgusCIbhQRhWa/WYTipiUrREccDIvFAb9HecX2gTj/jPkSuJdDTmcDCYnOJwKpGvIQqGzlPJeGbWK2U/4usCUT02JmIeEWh89XxMGl1N/DUUlAGW+CU5FKa+UkXA1Aw0IaxND9pZvmQwIYQ2gPKgpUwYWdbr35b4yalVRQhx7y0hlM3+Q1olBGVybWNCJMi6aSZTMygx4JqUysCpsh0lhRQ21E9909o1leIaZRnLlZG4pA0UL36Qp8gUJ+SrAqa6MAfNwPjuLoFvKyDNPiMpQFnvLQA+BtavCoBWCfQYRK0LUCjy7eq4lCh4qA8tmKEN3ohTK4LkerNlXukRSgCmj4+fXGeGkA70zAzVljPxsq3IrldF1zTbxdVm7Gnqs68TlPlxO/TUo35VVUFUGT2cYixGDZbRNP5LhVBnVZrLTiitjm1aetiiaidU8DnI4GQnAu7XtgjGtoFewy+usQgpYM2GedoqirIQgVJYvlUFqCEnKKGb6t4fWuW31Cic4S8uwlxkpm0KopptQexLZqTtQikySW2owLutAMauAUdJVKmMbG95qWOQLPp0r1S2PKcIuz5ujCcAeACnhX1rG2m12VxAaqtNPa+guPihGymhm9NujckK+HkOZQiATIMpjo8n0aBeV4atmEmFZmDK6obPXlBWWobz5ci1ip4xm7ZX1mTKORf6ghAB1oPzYyGwKL/Ld2JGYpTrVlTGMjd5JikpNEfxouN1MMG1gmjQ3KCNqCZnKIlXqUhnoyDrOM/Jb9jJcquJaK9ZMmKsdLV/EsUoIAXkzkT/ixDI+NBMJJWXwNat+djm3DD5n0Uy8bBCFApIyJLdTc1yqIkeNLMvAgIGpMF07y0DJe92Zmuir+pYJ9QirgTMGlLhtGXo0jqfEgzIgpZSBpT20IcsQnZAyxFvSf4qdRiRQz9e275oDCsPXyW4dR9eMrmbC7rZreDPkHysjQ9ZMkDAv35i+ixpid8vLF1GookC1+j7ijMvMrdGbj+nM80XARkVRHqcCZOO1Hb4wGDhRxvdrk30zUe1UhlZ0U5ioK6ZT/wClWqzPoFQ2Zpb5ej0wNEI6oyy68qgSVDR9ahkZb8UyDPvlbCEUuuxuzZ/NPLWGFCDXKZ8BwUEZKh7gIQiT11EqI5f0+LF2ww+bieFaGeo1yHBx4SQr+LUOitCkDAA5OHmnjNwizTIEShRLUOKeMpBA+KExpjNdHjdgZ64C8/5Q159wiO4XnpU+sa8E+xXKYKuxjTixjKs+IwjB+63Tbde8xdohCu+8ttCUBX1G4jEEeHrXqrmjOL8J3BIHnBzyNZDByQiIEEcKKLK7Yxn//0RF60kZVFgEnPa7QC00RAphwX8egqoylw6B+u+gD7cOYMjmm442vuuIf4EU+xndDoS/3MicQuJzt8JiuJPgoFtQjnJYuPl8X30R6F+GJrSmDAcliZBsJh5gFLlED15TjPbiNpd8DDWH+cLeoxAkJDjxqIzjJ4KMO8ZgtuLh7EpoQRrAxjC948946cefszb5I75WhmjjG2gmvpTp/R4GHJbX89U3w7tZMEtultd7fi7vsX291vU5dm3zHNf3+Oq39o358H/w9yTP4Mpglvjz0L7Hce43e9FVt/FudPzezTC+0Lz6ZXuO43Ppeec5b7if+ubdPVdu2zDPy/P1wjR9bp/tPDbbgskxApS0FwvHpIxDoQkRS8G34f1Cyd9dy89Gz/M4tuOyjuP07rr3tC3P57DxbU0Tb5V/Y1h+9luzPBu+17qDdlqqEIJ8QFKGMM8r7znf5ueb23ucniPmmc9XO86vdZm7ZeQt1cv4Gpv3BHXNr8fwniDha9yWqW353qr5vY78UnbzQk2O75n3XOXIlRHhYYApo0BDQwD4GbT3wM91obZf/YKyr7AG0Ee9umpCjTXzvC0LX0P5HCboY2xaPuTzhoV+Qmgm4mw23nk/TjMyg26XF2hty/vtsXh9vQZY5dI817GfXvwu2XuZYZpbO7/n+Q1z7GfUCD/LucA+e0r+7lZahsPzCMrYUjMBOYfTEprX1M39a31uLzaW53OGGC+IgcRfE6puebf2pEC/Dv9p37TlCTYM8aApfmWMysjg6e7gyvDQ7gXLHtcJpVqmHhbnNfKEA5a/9e9xe8Ig31g/d6iooX+/0TaxGHhiIfls0KSWZdl6vuALJtzw23CwYEs9SlBahkiS8ALGgCTIb0ejyBMonpSYRDY+D1foJabIdIM5g3HHOFnk5HTpilCi2kxugbG9hHma0Y+d3EeI7xPSaFLlN2LICH/nSszRFZk+4p4ynPkOvuU/Q9FnVMpyZl6JWobvuYPfjtjjl5RxVo9fFu37GHVIGSajOdyV4yKfG8yJEFyZMnKoSAan3MVP4tQgZeyW5KX8vkSN8BDDfjHvZAdX9FlUm6uVlnFuG18U7zvuc7gy8tKWr7+N5fV1ORWUGD4oo0g2BrsyOLSqFCpLBuP6Aj+MdoBGE6t8Sm7lLdJVeZu17fQ+6aAq7vOYFj0qw5kYNcNRGYCV5MdQin+cimqk2kxCBgYF6jS4PpL38Pyxxy/GlBZR2iLuZ2Xw+yHy/BRYDAmh5f0QUmZSBorR6g6gjcXNyhTKG863HZSBpVi7LnovA0qba6M8JRqDozIW+C158CVWqFx+IxrdQ3kgzb1wlcpIzOSSR8yZz3f+C1SJnSyDb5yxRza8uISXV/B4HoiDB25jP/Jd7Ahn1afIURlhX1qGRhOzjEmn/TvMmHk1kc+uMNl2oHjd0I09Fntr04xgxo/v92M8ZvXIlMF73fk0CKbkqFcYMn2PdtXnnaepxVrDqKiBTRfezNqpfEndU3oVCRm4kKk4dEkZW8dHX1T7oCXLUUwE8eYBOF0ZIZRFIsNIigcDuTJoi+06LDwFDGW0LTqxFaXC7H4eet71whbKdyL2LSj6dOXMIk7DClXxgpvAu4vQq/EVi9jzg/7QIr/xv63drA/O9Xz7PiP3/I5U1z54SY6nNiH+zjIoK8FjZhmAlNEMlJSFQLQYLDVSrR4xlDbA+gyIzfuvwIBgxi6VwZibLm2jMCvqq+1YxXzwqwEJArPn1lNZtFueV4DQ/BZhUypjW3nBu3uMqOEWWuwHXtlDgvODD45Nut2DoTSJBktpEB8979dEgZhG1kz0aSQmX+tAeXHGvrOVh7pNQbUt66BUBnMgvyyRNlVrJiz0DpTAj+w2uPGnf4IHFMpQgMEDI+Czn9M9NMZhJeXK6Ie+7aisimWQiPQZyEImKObYjvzYKVwaTRKDlMHJhsvmg82+mXyCc6QC5lE8t5BkDrLhH3+BJkQHgJSp0EwZ06PrJl0VrDQTfp3B7wLxUGstDGxgjuywAKv6GF2XUaR+FrnagZInCGYuegoXYYdICDsvBYAMjCdxKTzChBctBpiDBJM5KgNUyGjKIC1CjbobdRMf+QzOg5joAGkVYvPShgTUgcrL86UxuFAGzTNAxdLR/ET8SpL7Aff7wWE++o1URGA5Q7BYbS/uiEwZUA5VUShDDpWyn/l4KwNTAGExMTO1JuGlDeE+HZ9Ap1p4/ZpBSRkuRgHGC4Cbff4deIwMHmDIlXEKKMO6QYzczdRwCK91C2wm/FwowEBn8A4UvSf6cYZRGWw/IZw0vivY3j56tAwIZzKeIv+a2JewzByq9E9IzYQP79pt12UyUoHuPfA+Q1TnQSBGuRUDSlRGBjYTRHJ9HpVhX4e5RqjSCzjnJW4kk3WgELqbppGTRks+5KGStCumOKpdpzqCpvR5vVjaEF8jBR/dtpt2LbiYZ7gYBMMquFWln5EpwykVZMrAiG3jHEoeLz/+54mpB8K6rbPbhHlvDNF16/IfvcEWPSij01VcOv0PTxQzxD4aBedRGfBWQLaAnzeTDN9ZBkTdJn4xCyJ6zRIQ3BW0DpjTqhBJVIwQCpybYdJUnd9KzYM1tGLGy8+SMOq+mfDkDkFBTvDiaf4/xja9l2ttKLPMMvp+6xcN+wVMGbHLKHsU2QQmvXw7KoK9tAEaTehQxKMyJKAebQ8792XAHD3AgvONRIcncQYszi7CUeNmPpSOknGA1ErMihvL7JaBJgAXdRJCOGgoJtYBHboGuLwdBPhwO2IRWbcMFoJK/DlCbiHJE3zKw5LhrbyqX5HsqGJGuKawDDK1ZEEeCJrnZqWNHFLGNkx8JoQMrqu8mWRrE2UNZSefwarAAvK/OeLaJAMCxBCBbAPVA0J48ErmZBlId9B5BEbNtKFALKPHdeXauZysI5B3zmMh6VYgBA6mxhtYseRESEUZtIwgzih98VtwMNGBd/pCkoWnOPji5xZTYGTTrHbfWB9KnylDCbFyscrHWqlDvs3Q8o5UvuSD1b5iEt22jwGJ2u28MxqP4pnIwTIYAoeCGIC/F0mBLjERSgp4M+kwstr9X66MAFdtjH6uDKQA+aAOTUoxVLcTFMBzGvaKEvTVmIr2KAu/LsLWzPOQjChxkjI4+PCltCuWncwJ/RlE473VaMz8Gj+0jeW5XmrO8d7vKrRkoIxQJKi7tcEwaQIH09TEhbry8xBBRg5C/DyX0x1SRjMNXW95HpSRmgmUppUPOsweXVeHskgMTF0xv0Ej5V3YXBGyRnkTiOwIoPKoALo5ReInmhsa6zrM29rzAxcwKYT36J06Pdm2IW3qk1Vv/SCKDGSjCVMz5A1BmkJYzzv8xaPAwKGiKDWF7ZUhYvcYS8PZdaCEGHWgyxIjTFTbOYGekB88fi0mJGnsDCUT/RG5rwyBRwWKzYSvzelkGEXdeyDqohvsBIqFOo80heqyCZlKG2OzG0YoXCNPsXkwUFpGKBYRnDhmVELenNVRdKDHaDtY6IEHQjKNrAPtMaKz70IYysMiWbFC1QVJvLAxEMpA3dv9/PVLBbGKKsoQj5HpEDmH4p6ByfpSL/TDAFIq4gQvi+AZlSykSW4ow/sMnn7mGbqaZbD7npoWhXGD8r0F6vSYpPHSBlif0bQdO20Fa9DOmwmY9GeZrFhOkwM/TcfpYHrcUpjRHIHoP3r9qH9cwvvBolp024sJsPIKVFkoqcE1tfGFqXIq1FlEkYuOijKA6TWt9taog2WYEDUYJ8CxNifkYUBGL487lGsTJ+6RlMGHqXgWORQ3wBYuqNxhVglCptojJnYjYhyX8KgF0hCO9qfyf6GMAD4WuIelskMgnwSrnJ+Q5hktv215dg7UKl5qOQRuc9/P9qbzpAxxWX+gyDKdgzLIcwWEV5RxAqV9lt5XyqA9dgM7DTgLSBmPfsVMxms6g5SBGcpkbFZaUwT/pGU4KsNFrUPM+jzxn+NsCe/BhtBMsFcxKWOl8jcs++yCmvpv0rVjTP0MXloGkeuzMi61IebyfIZIP0GwDE+niqzPSCjzVOCGVatNnI6WkcFLa4rCwcmG+kWkK5D5UKVKIscNDbGZePQMHphQU4bXrMOUYS2fJSoS+aCMaDICz/0Qdy1DOfFRjWvMfryEvvzsqRokSokzy0i8WaDKZiEefqIMR7WZ7NYmP4LSCc7QAohI3MHpJ3CmbKHmZQXKxHbldapDgan+S2X4yk6Q49eUkWPXq9yEBNxDo4mQMcBV585Ahj3TWSQOoRnyZvILoDLc+XNIQehYgtePOUD7cT4prs7YmFsjUWEZIpf4smxsJizLKYztBpIyqvBAH02POA0wWKCUIZg/KeM7WQ9Q9OU5QoprOP8n5L2PhE0R90lEPx37wBOIzZtDjHLoM5x+BoQ7W/pZLJFfChHh+AtMdxCVYfGUgjt/jn0C+77hus9wyQLieZvUTQv07kh1+NmfOyiVQV3gEAaQMLkwVLIGyal5YFRnOKZCi3LWZ3jxc5Bs0sQMMF5ryG7swBCGQedxX+DHyvDDbjTFCIk8MN1iZpab9hTGROAu4WBb6DOM5MlfWsZBKeWVFX5ugZeseFaTV7tRAEx9wMKSOGfih+tbZUTh3VEqgyf8Vqzg1pXvadDNijadQucrhj2oDKYUk/UONPS2uw70EwppkErfTpiwNG1DXT66qWmxUOA1LJ1FsMvjGb5URhQ6YKcMaKHjCelp4AsImk03TiNr3naBna6mZNja19se5ovwdB2FZXiJLxC4DaiUjZYBIacGZrK9Ol4S15n97jEsI28tzBEvQB4M9oDq0LprJsi96/hp3XGEEP02rx3f5tHpHHG3TIO+lJ5QyzSn5ZbhpAgXO0epDGhfyld7xd+PRou7DJkycnh+BXaVZtgpI2SAEB13ILEIUEa73M6UcQPhCgmR5+MaMBQCFKAyPONPuKeM78C8r/KvdqBW8BqYljnEp71DRAWbM8A8FkfBGYyjiqoyTkHj+IgKUylBpgwX8BKM4k4virvvIfEr7hVMGZ/5/hjZxN2VoQur8Lqop2AUd94o0J9AysiygPNPMzTp7R9/ThKiZSy6U4Tvsxx804/vmaAj+EmKhxjgpMJV/sI/Jhx+djjGG+v3s9hNMdoqKAOcN+w+4596mQiK+9+P/DUzqA+nXuGnxeLbYLI3wtibXjq9j7gf1r7lm3zC23zgDW9Sb/VWc3MTZSp3hb6Ho2XE1On444xSAss4La/ncxqWfpmXZzd072lcXuOzW95zP3dzN6zPZZ6XeRpf/KjeApGmXk+8D8PIT/J1c4sgfl4uvFg8Jv+toNWi/XPv3HmpnMu0sHTYr/NznF+vZR6gjPc8z8925SsxXu91oFL4nb1+oQ6mqX+9hnl8jt30Xtb+tZTv3//jGgsom4njOnWEZgy3JVnmEcqAib9XzNP5ycl3v7ygjaF/Ts8XtDC9qaf+Oazj6zW/nphdg5evAxnG17iOT74A/jW92vZZfw37bVlO8I9ZxopWgLIvXT+ixbymdpjXCa3h9eoGKKNvUVYUZ34+RzQKNIMV/7nnyz/QPnp0HCO/yNkvUAfYLVHHnyoh4M+VYV1L2QaPlAr+sAi/pYEApJcrIyX/xxn9tqR3UM1zR7yW6+oNbkLL99YAfM2LYYofxjhNOvDaSQMdzsVACB8bUBbiB8bx0BBCArWE/IXndaD1eX8bul0eY4ws6mUzEd/hpNHm78yrCyDqcd16/ZUof+lzBHyg1jM4MAPlR993EHcR5du3PiZBjmfQztJKOEgb4pyW7wAPyRDi8pbRHaCMk5SBijAessfHZgJlHFL7rIxDlOYyjpcPeyyX5KwoI8BvwSWC40oZGXvAmTIqlrEbBirnVn9iGR5Sh1vGumEm4YrxEKEsqDM069qEV5VeK8N4MtxTRi3Fz8qIA2mM/gfK4ENnhIdUEMxoHXT6me69MnLPXctAnPrQGgHS7sYO5u6BhkqsijI+NBNwbI+Gj+APetD7Kg9Txoa1XINkxfxLlnHaZ8TG8jsdKMQ1ZEK7PQEqEiJllSh6FVbVPOsauY/KSN4fN5MaqAzk2wwt6kKsu5GhFEO+Y/5uGRlvHs2bCR8csse1D5aRcYdm0nVb+CrsHcvokLz0iMJ4UAZFv1KGpW+WsQ0PPeemtFiweuZOdXH1M0TLqCIqg98NsjignpTPS9f0PRI1WzJl1PmNfXt0DTpcS/zrZhIhZWxD18y6VIbU9mkdhTBxu2558Ilk+kKfcSKw+KEIPtZukT1EKCN5jzhssAy3o71lFB5vezM6paB0D8nBKPeaCeBJAtlLz88g3u0xNROvM9L3wTIsceztB3jIDhLZmc3khavUg2U4q5wetMeJMrJG6qPJssEy6DhPK8GiDBvMQhddk2XU4TXWTM0YzlBbQFHFDlcG2kmcoV0oow3KGB/+2BE8HrbHzWbCC6iLf9+mnGeY2vDP5XY+4ihupYBUBhhXvv3D8/OQiBTLlTGsPRaEVlWfLUMPYT3s+yyn7fxOM4Et8F0UY1dTRhWe/8rH1ILbg6pwy8BxCnd6eEgFXjo+JmaPE9xSxoPKaMyU7jeTYhgDfAgJO+495BzG2XQtn0mX50rcqIzUL8U8kizR5fMM7CL7Z2XEpBXXg/a410z4EGjLs/dizSddFLFUHmE5NyvfG2RTgTszUF7T6qdgJacIlsFvMTnzhTLQZ5g29JVy0999yyDy4rnZzuiB/GaLs7QSQj3E+gji5glnbpSJnGPfxQv9HlJB6ASWbfWHKzz1mGBw6Bgsg0d/CO9YAItxUEYmosGVMT3YoE21N/sMlM5uoQFkGSntXS6q4K1p2nXu7UHFK2UoHBO0ttXLE4DLRmjp6WX34fkDDykAke50oARMOJTw7tpka1fkMFsGl+KmPgMRvXweUoHbPXpDHYjrZuJMEMidFWWodso+Y995EmGe8Rjtyy2mjJJvH0t8kLmPS419n1Hm5MqIowPgIUXa5gylC0kDVWV4xKgMfygJ+K7PyOHKmDa+1Y+uOzNQY8Q+SHLLMuxNgeYk+aAHIZSO0zl3VlKPEcBOLr6yCfNGsZsysiQdV8qw2jNlbCNfaugGWijjmGbsM6ZH287ezDykDusztpUfkvCyeoihyMOrpEEXE+6fu9VMet6dJBeFKZJ0z+0ZKI5bcFMZex1Qc5HmeS6PPmRwZ2gl0Ombw0OIXVZeOg7Fvgq8tLuoO6iALno8aI+KZezy9prFkjXcEXuzA+UnTQesRIUszl6NQLAGvobKI3hIBZky7KTCHWXQMFgGOZMySllOhtaMyfJrXpi1eJdVU0aZamhOsCbvtOoKDLGsz0Bvr9c+yuMhFQRlYErCrzLRV1VGSNzZ5w2TGJto3LGMskABLtzMVF2xNy0jx1n+BuszUHXp3koPqcDtHtWsd1XQZ8qoy+8pDhMW3b6EzoQpWveNPsMSw4TLXswBmX9PGS6HjybIKkbd5wHOgpkdRrxH96qZhBS5TApt1kNyMPGymUQdZTBlcBeLeFTGLmLkjKh2oDEWyqcoDSbMYr+2DBMmy+ROn2GRzOlBCSbJ1dBq8BEkxw8s47LugsBrM4zB7SEVgAEsG1/NEns0C6kiKCMC0T1oj9tDa46fKKMaJ5iGW37DZx7clM/5rXRgHPk+JeG6mRykOVPGDcs4ppUJGi29QEUZHlKH9xl6gs4je0gFrozHOq7++ot/UBnOEHFzOl6KcD7pojqljBhBDgusIUzLBHP+hWZSr+WfNpNShmr+MUO3jBwhj51Q8Hrp8vSjMmpFEKNJ5HFMmMhLhzx7y8hSc+dRGamZZNwZ1i8s0xBGkyzaucK/ulmlPVpGIUxRgs/NBDgRrK4KQu/ddLfhvGwEQhVhlasSfQcxGIsOR2aTTXtxRmaB7gyhIKGZbFfK+H8FrgxeChBaHMufT1jtZ5DDduSXwwj+z2LEX2IKeyK5DmAQY6QssJl8aaujoO+ZLJr28ec4tqj/A89L/z8Pn7X8nzIIO2+2PfhtQ78h9b8cdu/sr/+4e0kZsAzvQv6fxuId6L+oDPTrqT8PyCnJfT5+/Ar0DYC/q4xlWtd5xoxnhCXCu64TfM8OlGXll2inYYbnBeLApyg6PnY1+rwHx3mZ56kbZ9nyX620f0AZ8zTxGaS+e82v1/Sch2VcJn7bdHi91tfr/XoN09uU0YM6vp/vvl34jeD3e52f63ualrF7j+8ZrNTYX7OOvM/4O5l0z9fCovfD0rFyuwHl5Ed/+/U1rf3wxFyZj1mxnMv0pNmA97Vo7sxvr0oZ63t590/o0VP9G2j3lsFW+XsbscIg+EhW3z+X16vv3/1rHF+o9+fU8bO6L1jOG83n/UKjmPkQH5sQn8p7Phc+k0RWKKN7Tq/pnT+4+Ov4B0YTayZL1z/nBUbSD938wki+zLAZlJumjwpf+eVsKAmctAy+6a1fXt0LkfggY/denv38BM/fgSruLyuDeUAZC3oL5IVesO9GdAyv8TU/X70pA00ExYUepqFF1U9UBj+p/YRJQVXr0j/7nt9mntY3u4y/h79vGSsrd8SMZn2u4zigRxymuXsPr3HoX8O7e8Hyl/f87NkGoKMZXWi/6h2AC5rJsr7X93Pp32g4I5vS30PRZ/ydDrRnP8GSYMiYMFTAENBH9mwv6EX0yez11aPDHNCIMLBMTzQIxOvQV0wdmg36l+XVjyuVRAP7e/i7lhHUaydUulZTCM4k0D0gx3XiaRb8GdwGLrDpmTO0jRbjDHgRDQQ+E1s5jfOL+Ac60P82nDeAvznp+mmz+2m8+6jlANr/lGX8bS3lyvgbeSHNr5INU7UL8LMY7F5+DE/niDvNhPEtmT0YFn8F3K+DJ3NRzFv6Skx/eKpSnXgNt5qJ8/wQngjh5dGBu1tKOKKxS8+evnCtH+Pmj1d0/lQZ8WLUD+CJ3MdBRZHgjp/LIpwq47hQOyC+o4igHEHDUUGlcAzOgzyZH6FuOvEiH/JRbiE7d7mPCIL6NT4x3LKMes5URpY6UXqPvpLiyexwktlFQArx9NvHg5caG75/EbQVXpR50E2Rj43f1wHj8GgbPquXVelv9RnIsENh2wYSNQ9+JoC3DbfAtG2DXnb4QK8ZbsUVPBGhUlKSzhVQhVtGv0kvW89n2x49v57cbRt+fERpaJqxGR5N10zN67GtDTtzq6bbzaSCoFPaPvLnhdy20Y3QPfU/KoMendra9bwNftXnrUUVQiq3cItNaW988yWfB9q6jh/u6GEI/H486gMV03TTNvNWQxjItvDVoU24WbFURp7hQRlHaTID26YV64lta1vkjPzboRtHtkt+Vf5BFcAy+THZpnYXeI7Phc5mHHtmLxRXNqiDput459/GD1DhOD/WCbbSNu0ytA+YB7A+pr7Rx7UZ77eaSc95A9oFio2k+0e7Pka0kmZBM20mNBvUy4qWEx9nAzyR2/isp9BMGiz12GegWXaPaUJNoPFOD90dOg/b0KOZgBsVt6F8EI1CsR2f4ItmQiD/Du1iYCMdoYxe7yXlgyXIZeDz6fzU2Kg3FSsC4MkQV/PLzzqIsELxPnN0FXwaVh/zhT7Yj0oZ6M+ghAlaWPls2gPdGL1mGrctoyqS8yCZji+G5Qf+J74nmN21LlDyW/LqOflNloF3Vo/pHhdPpAbmFv5fwCq4YW+BJtL4rbSoeH5bkN8F0hej2q1ZtoFdG7VAwX1YLC0j5X04IVyF8zAp3vmvLpQJ61kgdksibV3Lj+qrJ8dY5nEyZXxZ5HN42sH6cDSHQEn8rz2PfnDUmolkuzHPKJURsimhHPV3V8bjifwissRT1kLM+bg3UMBcGZldHJpJXR9kqKkgoh4mKoyzglO9nwYIHpqs7gTXsu77jNiT3Rpar9L+BFPGdRm/RaEMChf+QimtbLUk/enQmqXG1M2rPXdlXvIHHsATOcNBTx8Vh5GhAOffGXbeI24qoy4Hpw8Ju5e0woPJXQn4jaT96bBe5HbM2igfVVPBD2/WuzeafADfXvpfhZ/euXhsJt9XxfiT2ju1ix8lFmB94a8o44dy/KFl3M/1yCnKbmfKCLzheIqM4atmcpLw98rYTcs/ClxHz/fJzvPCd+yaS755fkavBVn4Mi8npQz53xpNPuBX75n4QjGn+Z41E6xT9iiy+0IZ62zvtTxg8eMBP2u7V6u5AjeUUaZUUUaBW83EkuRVzypOs1hqt679EpDwmTLa00r4DWUY1jOeC2VkuF3hCbUIoAVyUEaWsjmulVFL1XDSTKoRTpVR4yZt8YDz7M8QY1xF/TXLCJnct4x1XurtZNIteBWMr5T59/qoIk+mP8t35guqK0AJrov5RQf64k2aFXRvr4l9Qxh539rfQ8yX8Ly1G9+H0lgg3+9eoJT3mzt30ouUdzixGLvFlfiQsCPjOomwI5/me3Z7T/fhvp87ltHxsrc5eYgihEvK4ZAC/ODH4CdYHvxPSnsTWb74l/lSVBJ5yTvk0xZaW1MJdrjqQKPE5RI9FWR3ksWpyM7X7yGek+/io6ZKeR4xwu4hyPRc3i7gJIPvzoEanAicKiNI66fHnFxHXTJRz7RSPHess0fGGfN10FIMTnCkzq3M4VYH6jyGjQlYcteW0W2bvwXGyQmIrF8pC3AgGHbkXZmderSMc2WUkB+775WRkgrvKQmyRZmDMprJXnrgZGEnSObdhVQQOEKGfnQqr9k4LIDNxKOY3wLs4cRabjeaSX4RiUjJuBq0x86pVkPbMLbrbJc3nfxr+Ng8HU4uTIYscRzeaeRPLCMTqiyz5d3zgiMCqufHkchOkoTTgICPZXYGJyNB8wecZZAr48ATVOc8jsRmyuhDO4kJSCi++WS2F1M52XEmyn2wA8UvvHikzBcIlSQiA00gXt5yy6jjpJnk7NJrdrY7hTHTrV04rDPAqfJtD778mZdC84BvcCYxYLp4hI9cOhX5Bu3YIcuXvrlr+A1RuPL2kWdzr5lERRBpWS5lbPwcncQgSWGhhjp7S09FGWDLpbjGgVM102Mz24wMype38fir7pyMcPpG9HGdXo96lvWpMvIIZIAASIZ5pBCIsm3tzAZBFqe6ZRgKob7AmbyCEp2lDDqd6pbRtGgM9lp7J7tA48pKY8BZ4rdHEzY3e8tVqYzHMEOI0gCCZYBaCuWoCuPEQ1iFWYny9aRuGQYNrZtZht045AEA5ZiHbjs2kxy3R5MGtWBqSQlRlK2fH92k5utUKgNZtuvQr3uhUtxCnLpsp1CisAzesMPqCLBmMmzDRsvIRzFFaHv/6kXILmbrjp0y6lIhfBu6iffpAImHyhge7dz3eo+8U1FDatS848neEuYBV6hnfAIpg5+PtJmOU4NFUg827QPJ0pV3avnJX1r3WWaXzcQiwR7YYUCvvF2O9/aJDMhIJZngVBcKy9sey8Ui4DuEfA6yq3kmOBX5kop/CHQyQJ9qSLjVTOosntTK2+noSlymDH7DINUQQ61emn71Dyso4C7OJM0gMXhLHbKFWzRGM8sA1cutAEFk8oN+bhl3h9aB7xA25v3Quj76YiQzoba24z2IpH+njBtQvki9sS7AqaGZDGurO4n2AVsX5od7Zbj/sISvKM26TegAnTETSywSiusxu6nKqUGobWwxttPl5F8D823QOa9mq071ZtI2GDV2nQml2NifN6geWUalnKVlVBkIJOw/5eZUbybQ9mRveo8JBHO1gwt1mvppABEDcy4mvK1j244arZxq+WJshalm7RZgdUIJHW/MBPlmMznhQjjS4jDGtBITldGie+7QGuF0KkcT5WlUwAOIauEqYPApiyxym1G2Mnl50TzRdZcWKS3BhtWfxz7jkP5xNDmIYc0EC5DOvleUAmUZ7WPd7H3eTo2WMdpcrFDGD1HKbTpeuj6OoAbvKRrN9lB1TgaoAkzHJxc5Ty94sL/XgSKtbuN3LMi660BbDBl2q7hTXRnNOrddr8yd/GswZYya98Dt1FAJwzjpttQ06bLqpGnwky95dZa4qwzeh+s3hKekVFJlKziVowkoDewo1FWJvSzwn4lXInBZjjFjp8oyQFEbLfM1LaEjsShno/e9tQlSQN/d2uR6N+ny+18R5NRkGc26P9NVClEVqS5nQbZ8maclH8K8zFFNpFmYB/iZ5JMs7nWgTIKfpjKrTEwSik9y2MeGYnxTBizDn2ow6gnOJLuAEsUKgLex58mbHfJt55oDZPmSDiE7u43zzDLqzWTHS522W+enNGMgl0lY/2DIslPDTqYyENDwme1yoVYmm/l2+e28B2iYGsZm2s32WQnb0KAsGt9210063p+hFeVZ+hfNJERR94O1CQVg2XbNZORi0MQjGKi8ZavSRVZDB3wqdxWsdoxuGNIhmvpJT4aZdf3G+0ThykcTiIKAFbMxBJxleqMDdWUwWyEmRXuAKE1oP052y1AMi+LkAve1cORUvn2Lxc/eIgGwt967ORmgr2/QSDSB/66ZRFikoAZDYRmYwWDMsFYcswiWMfkb450M1IWo4YqTidJSx04vyXcq8mXAgOnwyz7F5GQTiCc/mkVT07O0T5pJye48jhRGZfD5lnF/+o1s/EChdayZMgpYQkVWZ3VmCGG0Bxo9FtLHfGEufBdJESDbHmFKHRp0bhllbjeG1oMyYgpMmN8a2hrNxpyqkzvA2oVvZXnAr4GJohNgP6DkTSCtljmXQLB98k1EwuqEIbf7jDOeK8sAVF7CqcqbD/VNg3/Tx8kRSuE0N+Ey1PKNcGooc4KTi4ArZdybdBU4V0YwPyqDkkwY4xSQcK2CI6r8MUcAbqci3zwAcPJBSz/sQA3O44jNxC88RzgZwS5UEM4Dfoy96GwIGZx6KPOFMqr4yf0ZKakLc5W4dtIvCziR4pR+glMDOA1wgvCT034xRq2ZWOCZMnZjcRYgeMoHkTLCIazA133GrgROLIEsbzYTFM5+QBIUQtk0k1shlBFCJCd/i1NtMW2l7PkGuinD8uTPyQctOTXBE7jdTCx97HTnjsHO9sW/U5G3RjdyK1o2LT4UcO+vA1w5o/L1LPB36l4ZIV/ERABJ+gOVTEWqW0bJrdepCfZiNSdjqFhTEKAARZXP2bEn6WtUJA5QsoDnngnkuXqAU1UCkkTmzsl73Gomfx2h4BcK+Cm+SPKbm2L/Kj7l/Y/IFizjZ6b8t8BZEYp/qoEQEBnoKLlP40YcIremDCyI0f4JNCnuzOmOiGOQOeIvPwaX9uaR34i5J1AIuM2bE/8ppGYiRWHHCabc5jHIT58ozmThTk/x08F2BpIEuo2eZsWWlDntx1cdGj/o4ZdQeEqEIB0Tn3LTFkCX/PpxF5SBBaY/K7xhz0vJ8sYfdtrjQMgJ5M7A524LiuEkGYOHBbcddDQ39lj+e0b/KBYOwEBPKSRMEl9S+S/SFUsO9wYGKdB8zkGQ6pz8k8V2ohlIiQQL3TJlJFfmzok1MDxmGbIASpfk9SMQh1ZJQihyANz8GYwil9Hd627uPGmS5DW3+ZzVg0k1kB7htGAZxi7wOqaDJKSQCAJ5xdxaFH6AL7idOcuM78Vxp2WB3Y+U0by4CxO8pn217bq0fLHI1PJVRM00t+2ytg3mos3wAqHvtmkcx2YbB4Ty5JsSO0feTMz5eiGFZn29ltfrNTSYSb3Rybb9c9WbqNvt3W7Lax639T9gANu26G27r7F7NVv7HyTRPbcRrEirh4eFKBE7UBfiozJIaN/P93Nq9Jr093Obn+/X8/VGlsvUPlGO7vmkyEvXv7tuwh+U5rnM762Zl60ZoR4v4SmCMtKBBR2btu+7ru/blVm+nu95m7sXBoJ3277m/t2PyEivrp+G/jUhxjy2ZHm9F1TBa1im4d1sKxQhZcTk5UjKCAGx0ERFGby4+sSfTqPN4zRwa9Y39DQ8xwGCUhlQW7ss73lGTa/voXnPMCNYx9PiXgHKyCSiEp/Qpm41EKEd19djHnu+VndZnq9nO47PdXq+YaMLh8nn0FB74/xu+I4uaguSD89mgxW1sN3lOY5KysC8UjP5rAyBibFOnkjPsHZTxzbwbF7I8f2cm+01onbm5/ZcUAtvFO05D2Pb9l3/7Be+VP2ZZ1LD3jLefLQIScsY9Wr/J5rg/O7bZ7dM8/Qa3hPEmiBX9+IHEJ7Dtuip5GezovT8D1DDCwL33RMCz89pVPKpeFkzcUpFGQU2NBD0Dk90AvMbRjGusEI22ueAepmevD7woqWOKPGkV8+/u2nuoUIUZoHW2Uw+QcpIIrVvFZBVubyaDkFs/PyowYa50gIBhuf05POS6KhgQrCI9oEDHGgV3bS8oYW1QX1BE/xc9a7PsJyyZhLh8hA1Zai/eqKHgB0i8Y1NEnmyt3gv7zfvIoIfWkIX8W6H99pBd3P7XNG6wDugmdxThv1MJOsHkBkiI0mQBhw4ILyn5TVCGev4HPoZyp5YcNQLlP5kI202tJQnL5mgO4G60FLQvLaO3XimbyBrJhEuD1GTeh6mdmrQAOYXSgnBoIxpercvSImyNz2M8DWjlUw9OpFX3zxXsI0rDASG/XqiA/WULhCaiaNbxn6c+2Wb3tDy640Z4zpwNBna97qM6/BskWk79TPMo4ENLu02vd5oOO/XMjyHNz8FAfuiFOhRx/dybRkJCnA4KQNaH3psfnzC228zd+jAX1ANNNGil4e2ICfGvAGGyvevP5t+mWFM7xeMnDXmiQue7A6YIhgkDfJbkSkMrUcL7PvlhVYHvPVpA1Tx892sI8dSxFtQ5G55zjQi1A8sFwI+XzN6cFgrtIIWzrdDmhR5aWvzjGtg7oDeeRvQOYu927CugY7QWhv0F223oiiw4xZJ6nU8mGXAwnqYdMunLuDV3P8ahWUgenD4YAKYg7eaWSD20ZGBvozu3kAVjZCj6DMkBqlXMAYxciev7egzsjwKM5L95Q+sHyDLEK+QXHWU4cH3KVZA4MvnGZdwfsFKJqr2gMg6iBb/ojO3xFokRTi5wK7PEJRORHKbqxIhAmFnwTm91oHeA0XGjslJfEMZVIX4PiH2GYAnlA77lI85HSlAoUxzah+ptQ70Djw64RTDkfIz1CzjA2oxVP5CCUTpTb5bluEC3sG3/GfILYM4FCjHleynoRVyZhlOOcLlu4WvI5zAJ10lSEjEGkfCZVARmDx3LMPlu4WvI5ygsIxMtgsxU9gVk4dWeYuh9Rou5jXuc15DfcbeWgeKHmmck2coeQ8xC+xOC4XTPCcdqAUKTrmJH0SpwqV36RwsfhANy2GnOhDJgwC7YyiAN555RN97gCPEzJpJllYOE+4ufhClCjcCl84BDYlqiFdWDTvxneoIpuBM4V4JB8RWQD7pEl8dLuJnfMd9Dh9aXTqHzCWKKWWAw5kC3Y9GDLBHxyL2luHkcm3ixAwif4EfRarAy+3SOUgMMmJRZMQW6xMec+HhVliEt7qAvWWAxP+nDtRlu42fxToiWIYVyotWFkn3GXRcy+s2ulCAcFQM7bH7rAyisAwrhYdUwNBTpNA/UoZndd5MWFoFyjLGdtjsntwQ08NLNabhQ92BPYYZEaKejCZ/gj+2C8plQ2soksCbOHOoz+Ddbo0eJbYShXIxHv72u2EZildYhvTnBNMtCRklOILLGejFPuTIZDygQKDFmPrLGX7cadSHMngQZ3ofBigJsgyegLdn4aIarGgMVBrgudtMMstAGu75IYIt7rL6FhKNlgGRWJKWb2FQmmWR7AE1nt3xkhO2J0Camn5dFZyaiVgOyrBoRQea9d7JFXCklNDMRgj9u+MsYsmVoKYiy5AyWj7e1aqVHy2DF3EGe8QnqgEO/EBpRz5jKAF2lnFjaIXCJCATOsDpRQkCTaRMGfSSElnNIT/+9ovYeaMyCARtvPd2sgdaRJOWgP0M1KgBjLkMq3/4PirDuEzCmCtIipt3oMazquEqMZmX+fGHPAOC4VJvbGzUsd0aWTSTEG5Kx153C+tHrpbfE+Ld7p6RkrEHZpCMlMF4ZqlbiyFDISBmBbY+g3T9Y4g5QOn6du16ieHJBZhlwKFjjFpYhp5l6rUA0oUiPi7Jt0FsDdKFQF239csMZhBouKOpCl5pICiDkg/ojtdHu859j/DusfKpsQbSbR0Mv+mXCQoBD5PBNIEFY77sK6kLX6hJ2O3BpybpzIvka5O2WTGaMDArKneM0Dc8K022aBkGVwb6E9V/iFp0oGwmGKb4bZIJKoB3bMee3x3ihaBmm0eUjIPOyMebEFvPOGxrh8zQNlWlZmAaUXC059URqdO7NCAdfF03tegHtgbKVLcAfUKErkciKLcSicrgYdr4/JUVKZVZfQZUztoHUoDAwBGDLj95ktToTKYM1AbZGNXoRTOBZay8uROaHlFnSGdqx47XBaYJ3RQ/PaX6n3hz4MovzPCBLKh/HajEYBlUBl/pP+vuU35pZW14CWsbZj6az0f3ZQ4rVQLq9AARyYxwHZQhkxDCPMMEd8ugIKgMIJANpFgjVgouWggVfZtXe4Q76nHXTMACA8cB7QLthS+24eOPzdBRvHbhx8H4XTJaC8yi0de4INZBGc04rONj4/fv0T8gwsSanNl2tmaGpsYBKdoTl9ATWxu/plMqw8vE0sjpxu4VaSp48Pu2ciksFJgUgXGzZsJQLyi/3cMv9aSoO8tAphCDtgnhOzSMYVxRuAHtfkPZ+AEgFJnfPSLX3KIZICc+OQcdZ8pAS2oHtIJugzLRtga+tYuNtGVHw7LSFrBj5Y8wMZSnaad+kzKQRmYZ0wTdqVuIRRI0z1jQgu1RYkQIhQJYJmTVwDzp0hkBwDlUUL6JkSkmZWSWoczRIaHy1dk3M9J4QO98wH9llUIVW4cej8/1tjAFPlaKCcrANyChNJkyEB+NAn0Bv+uFRB+w5QntrUFj40Oyj5bKgL2hM0UYkmpROL7sgcrILQNCTS2jAVKG5OSPJFQmoiGtVCIHKaNue6cTouXhtAzoArKpnUj9QDnpco8SIJdZp5yiwBvd+HNnTiEow8bBEBCDAYuuZOAAq1FzFikjsww0UT6DiZKXaxPvMzhsM8OKMvgWgL4+z1BB/fU44AxR983EgRAd7G8HK4H5CgRCZhkZ066oDHGdBIhif0I2mpoJOoUWdUhXViRAJEUWWyiRA5Rh7NfqDEUSCmXUfQeqQIKO6KmiCGX50PUSnpWXOO0KSIpMKXDQR78pA7LhCCoGohaTJzLllmEzUIzaVgdHZUAe3s5laYZ6cnitB0eIetJMKmCaYV9HkFXriB8CUcOqldoABRM+tIWymcjYqR99WY4Pk+6VocQm3g2YT+QDvLoAOULU3DJsskaAx37hED3udJ/U7rtMGYGLex4s3F1CjJOoIcg7UEuKfl4TgFrgDhmYothJY5LCe6sZasQApcQHos2JmNZbGCShvOp4QtTCMngDdQbe5BlAZ8/7q7kZWT5z6X7QcPWBK0mBDBaiQ0htwFBkpBieJYS9lKHGEhVkSsXM27MgaBkY/PlIPAPzIHJbXDrhCkOrg7WOAX6WghRVwaVlZCepFIdH+YQxJOh+wv3cRbJoQIxcRMC8KwTTq4N7RSYKy4BTs4xkGQb1GZgc8n63rEQ8wJH46bI+I2YAZYCOpijDiHosLGOPIKdDX/u8AWfP4AHEThlnYJ8BZkjG7oPPkcPtymAQDt6BhnfZ7LIlacXQ6i9ScKrrQ7R2xMIjjMqiJ8sQVwlK5U56fkUZXM1WiHtIeutAMW3t+UaUogMFNMBAJVzvkS+FEKC0E7pPV0YplPW4XFIoNATm84wDnCcgNpOv4ekZWizdP8JHE5YJC0R4KaQpw6QIJk57J1fNMl491tPSaFQjY8M6GQrAz0OImjWTXWpH/KPKsIgSDZstqFKRCLOMyCjhTELuyc43SNkyvYxplsEJOZGUkTWTj0X1ZuK+H+Mby0Bp2w6LYn/TkCXggGVAI1C03omxtwxEwHKKymDBs8uLShhRYTNYGBXLmstmsgOU4bHO4axXCH3GJVRuKQMziGnEehZCgqii2F+W8cDwGIaEEGYACetL7zMwmqQQNRN0vTwZUczXTkYTl7vEpw70NGKJe8pgarJws2jtk2U0mHVKB3yx3KT31GYF0KyCoR6XMVPwADMRDROaoThJVh9NXOwd7o4mH5Arw0lHePdP0ei1GX54xHLt1uk/s6bjLc8sMgwjbHzk8T8vneGg8mhZUEmfPQ05/2fkDBRB1rmaUTG/XTORBP81ypCsmEmMOkfKM2s2UQX6/9hCtuEpE7F5APHmK8ZBGzEI2ckdtAiFcD+9VzUOnWeRskKxc2U4qYCJZvj5aJLjfjPBj6J1yNhfK+mBCrNm0jZcHjAwCScnIqD9bB3PrOcNzGKDtHUrLE09s6Jil0/HxXqOYeYpcsEpP0LTTWjBV6kwLLMM9PlQH4V0LXpE6zelJaJITjEHTDP4kXa4K0t4HBQPCKIcRhPQ3LXH+n5anD9D837vRNuDmcU+A8Y8QX9qJ6VJWVfhfyrDixRiso/B2l/OrOvVjqGAKEmP2WiiEpNuDsBYIha+6f+PwYcXP6cTLQP2PuoaE2Cr1hDZmsmjYcsHdmlSRf3UrdZnFOq3oZWv3fBv84SSZs0EXOpkMoCQ0Xr6DjwB6TlRslhM/SwGj9ow1TG/EMlxYzKwDCszJEPPGJSRt3wqAyVut04nSKWMMCoQJGERp2sY+5g8n0F9r203UmkhTtFMPpjvJ/hpvz9NRqJJerjUtK1o+26QlrGtw7Ta9CuUyI8kpahZTIbLlvgOEvuuwNEyAs9PwZFKsPNIF/CincFP7khseLELCZZFkgpoGfmdOxGgYIeGJidjZgwsKIxqaF0ZJOGfWYbxAIxuAkdHAlI/EgGQgkWY7JFRDh0jUg5EFkDI1N0y4MV/prhwVixjWKGMcmg1hwKH0V9aurMMzeEWvrloYvohakUZoEoERqDHnXKJRlhuxsIdUSpDwQjDzvkiowX4UaH2M8i8dNpPMfDnc4YMOZ72Q14DWgpzzIMABQ665gVItMQhCWesXey1yAzgP59npBPCskCLDFZKAS8jYAmIHZXN7stqTrnhGJWhs0cMQAI4+slyUAdLpKXdo155HldlZr7I3EpgLThZBtt2m61aJRUPPrQilnZKyIMAhmGVhgUenUfLAJVMYvQk86EVfO5B7mDGgkY6xEiNloXuEXreeJWV3TerDjNSsGEEcLF2lgFm5owZ5zD37YaK4NJzw77FcnLEBBHzBn4nhMrV1MriqVriPAPKgFO9QtFMwqpV5SFjKJEDAUwFQxHhagw8IpqTWiGZ/50ylHvbUWKoBEJxztOiMDznBgHRc3crxkZMwdoHVUTFuSWkDlSpoBD04NhjtfxoFn1iGXJhHosBb8ZqEwlh5QHJkMuK5YOiuTIoDmMjCOnCixCNt/bDX7rjW6d4VTxThjkQBl37S4xjPXl0WQYGdizbGBqiVkYTDI0TLAx9LYTCbLYbWt6+w1sI0JhYUZwKgGVi5wS78QxNGUjGlYMpWsOL1wO1wEv2XQ+9QT6uThrMyfla/4W3taIDREdmd/QFZUgeJgyuhvczwO2W4bKrz9j4/QblD6oHCKDwDhLKeIgpy0DMAUULeuS/0kxYBNQd2gRsYOLdWM0IM5V20FKQANeAvd+LCv0EZWie4VkBiN1hacBrIfzoDL8WtFIZWHuiWvnJY352blPv98CKOLyyzxSKvynDOhM5vUgOq9QOFSUBGAvAQS4oD5VGsclWxjQJ7aoNlexRq0Orr25Y+hajGkrCZt2j/+uQKEyc7QDK4BiNJPxcScoxWgaMcOaZlmacmm1pVzQ/no3h2/wxx55YnP4Bq1EF6AsDhETL+gxlImfIwBq/KQMNwToPym/BgmgCnTAABgYGCMxmwibOUEXFbjeaMGhb13HteNcassdgDMGnEbaKvoSlxjDC+T6vBqOGR6rGurddB6ocO6gQfQ/sCyWdxnFGYKcl94iWBqVO6HzQaqAa9LOWvyRRuSEfKFi+29JzV7/SAXquBmkxGkj+5wEkneyxG5XKmNZMpmFdyzNd1dEEQBKpXuwgeUIIiU4xAgATEawDDfwBwedx6fUj/raJcugz+nX1bqkskiwDlsUxDgglIuAGZeLiBEe4Q0xnYkHBgtqVRkPUTBkQwT2SwZxA5kvEAxCULEN82OX87uYhkHWMPMFhymBCUsZj5qjLGzALZdjzJlShhoZ8niEgcLKWSKTRRHDbBZN1S4yJXblqdU8JsEuoBPMeiCFHtUOPtmMqIGPIeB2ShKMojvBuC0ZfO7sThlYDymnmZDujxz0o02a3WsIZ1Wjhrgz9sQ9JVi2jDmV5hbLPuItDsrllILDtH/6dtoplsGa9xwJzKJQAZcBEp7lUhkHGxJEGgXAclQFYYyfocA4BBIVhZ14Dj6RYEOYZojIrA+nBTZhf+wIebAzqemKfwcLyg08MQZFkLwYbTTA682bUVCKLSH4MYZwDMzA1EwTZuhq5cJykOCFq2Ux4akWIRzsAnFrAZ6dkCjAQexw9TcW2mHKYM7qwkAwUwVIh6DGaLMOKZBeNNdAcLUOX52zACLk7RGFKKY0Eq3XMx7g8SlHLZqI/dvox2Ghy+LVWERzmU5j7DSHEf8Hnfy1GnEuxCQWRpiCfZ6ggwfzgLI2d9oA6nno7QeoRGYs/iwHosG8mJLeYMfiky+Nm0/FAcvECnI49lCG3B9DtjoIKn4XUksJud6lAIY7kkfSmDFqdTchAZMqK5s2k3fxF7zXLkKGVyjAu6xw1/yEoMAOKeUYdJh1gb4bMCJmTiD537IIDSmU4cY94PgOrH6wO7V3Jef2GDpTfZlVHKMlYJvsxbESpwoXnAtbF835n6UpZAVkH6pQDXLzKFbUsrMBvKENhlHRt1p4fCQOc6D+QOJyj2eubXKDkAGUce5iUrCBXI0AaO+W+08lzRcWuWLV+QOWKmou+wydluOMK3uNRNKz3MK+myycfDmsdROgFGRaMA+RpnbBGV6ApI8bdzSEYh2H50GqM56hda/WgHUKYHXf47v4MLpUGKiMWiWCo9APT0MBsJbIAAUEjBy64iphiMWUode5DpPvKYJ/hzo+wArlnj9vKQAqQjCu5zdYQefvSsIjC8JED9a4xOzoQk8+H8O4MJeLKCDx7y7Aou1XrNX7tKrw7ruCWgTLxnFpnH0FFkUJxAOgHQ/CCnlR2oBAPlgIw6Wrb8P1xo4fwNLsUQqI3OlCBAv6FWxJyeLBB0luZTHDuS2O3ZjKHk0tJfrpIyfZSY+LYLRhCP3O3A6WAf1cZHurIOtCAYtWKYCoDpoFl+E4ZBCkZcjUCB2UY7vYZFLAcTUj5EWIz8YSqyCwj4WgZmM/aVZOaZWQo5hnxlHVAiJqU4YQTUPhCGSrOj1C1DA+LCJZRSF3Wr0261m6YNJGMwsnBsAyICbL9yOJkR4haLNSuAAGP8wwTPOFIOWI/HTd4YISX26UT1Ey8MNzBMlxZ2mUhBEkOuEs1VpShbuOuZRC+Ntn97ECHQS4Ux/bmMA7nOutAAYtA6DzO0TIsMYN1oIDxKIg74xEtIirDAj9bRiDVgfCWnwe5xOjHa6i0nqxBlAKUHjwuncOL5HGjMgw78Z3qCMpwphNlfGMZFJrpcWcuKwVJ5lh1OsLJQO7Qz497OFcGSa+pU4ZYv8JBGSaS75zqKGNWmwlwd55xCokenKYMRyDuYOQzOFM2HSd0tKHV6ISUkQpdpowQBoV/rgzwuTIUGbsQ85uFWhUuvIFXUo7FP0clCYdJbyfAEkR0XZwEGnj6zJ9uAgaKlcPChpUPqRMe/MeWUeBnd8B5+Qv40BpLrkbgrkjcIadWOELEFNTslJQp4xdQNJNbcDEgWImwNonYud2bOgpH7nYcSJFQWtN3C7XPkGW4+8eQXLGRnxclQ06rhQvHgNZyiQHZaLJjToLdx91morTPIA5aRp7YmVvIeeU44WYZ86ALywDzAeBw1y2wmVi6Z3DGj4h9Ro5q2iJe5+qhByYqA8RILzpQF+TnSH2GJ3+AB39EVRkBISzy7Jhzuv3q8GYiBv6zZkLKj8HYW/d6/ZZp7JWRvB/SzwHWyE1H0UzguOpA4TVJvobHbPNPdSj5H6eYzZKi+HJmvuSJxJL3hDu6pAx387CfZ7gsZ8jjxh+9dhixBnPC8afod1FahqXw64AyimQvh1bnyWCzuiFN7oTgjfRdeARPVl/AsyVcGdhnUcp55Q+gRFKK3oEKPF5OuowtwS5fZ+uBPc5DDNVcqigsA2568fd0AriQI223oIOnKknW9oT9Lf/HeYZLk8MCiN3JQ8FWRJa7mORKpPAD7KlaT/USVcs4KAOQHooQ5SYi9zn2ygijiYB8TuYZzlCAdCoj5iCqvH4MzsBykCY+1/URpdxRJ56OAX6z1EC2I1h1JMoYlmgqnJSRlbUYWl0QwAJLkF5aBs8/8lMmvJcYkjRoz7pM0fAeR97Zy9tIII79gC+UYSJgbz+HUgmAxnq+2q1D9sgIudsNwZgHM3v0MJDNWA0Hy0jNRFl8WpuIM6JUxoa1SLsiX756a9x0jddur2NzMJ4S31mGMncJ/ODpGKaV99VuvIlmgGC8Bw58XrHOeq0MEEIJedwPrR/gN/I5OlTG1vE5hY23DOnOeyiEV7Ja3ZrtT0xFWJ8Bpo/Yd6AOT0fgk5qrPugz8G1fj57h2Hq9Q4x2oZpKgAUvRSltCZ9IRTP5iF0z6R58Zd+jnbaVAXwWQlKhinguad1dnvjWMjIE6TwdYev4amlk3LKtInGkzicZ0DZ0EoyrRjE6tsf4fuqjWxGZBdC1m4F+wl4Zq15Ex1vDEYSVyYN3DOoiEaV7lN8g377vM/bwlAxdzy8w4biykT66ifXAOtCVaChFT4pkGNoZfds58nmGk65Qpt4jO17L4XehtgXm0a99w7vDeTng8Rp7f7OegfJ6MqiIDygsI0nmSRk6ZMvLads6wxraZux470nPV29PqGZkHz7A6tj3GTmYR66MEsazQ2kZVA0bBMzA+EGDkxLYb48fWwZ9/Hs6Bi4KcQArh1P2F/hBHh7l242sdWVkGaVmcqwsZ8lRKgMoszMR5Ej/DMkycnh2BUq5oyiejkPeQMOR4eI5cBqQaKVQNt3kP+tATQqFn2LXCI+4Cv5ZnwFHEspTuoUjc3lF7ojvRpOjZQj3ZAQXLcNL+wH15q0m8HN86jNqky4LrWLlDVb+22HQxt0umM/7COtanCP13OqojSaYZ2apMZeILCBkLmeJ+5aR4EF1WKjz6WDwMB71DyDd4cEJzlJDUYmHiAZ2DVWcBlyAGZyPJgUsgsR3F5AHBNSEjigTukSwjBThOunbuEqlWLV+BsR0F0Ch3XkPGT/jXiG3jBDpu8wucUyKlMwyjHgNiOkugEK78x6O/EyiClkG/oqQYhkl0DNXpJq38NtPxOisYje0OvUUBQsj/C1AGczqo0A/g6VsiWe5+IR1C8qo/sDu/OIxr5FIII8juXZgQEyAuwB4/KdQ+zWbnraWlApIIotRO0Ie++8Coi/uFKSdjsGVIfYZWHDqZKudcOWJktwd/SSlQwhwUuEqfuEPhmMAiSWVy2+enCH8ELHzYxkeXTnk2+0+oInNBOj4+XmH3XBE5O4CWQQjCEY4wAM6bA6jJK/tLA1LR3+jGxv2Hhy82QFwuiD3bndAEEccfZcs4/+ARe5NZcCib6DOFahsFe78Kf40/iX+OcuY/O+w6bOy7VYc+SaKrhMRZEypGUQmuMFCKsFp9oWsSVdypd0t3FTGn1dI9x6W9Y10+AHz1/pa+uerX96vpRvmfn6/Xs+5nRedjBtGcCzkeo7r8MJ/fXfP9/v57oZlhkcJopvVEfhWOufPUhBuNZN6Xl9KAGW8p+frOXTPDkUbh2F8TeNzfI3j69WN3TStw/xaCOhAG80DOniDeeqW7j3N/fCcns/n69XfyV08afcZf6GZUOFhi2hhD9gmfu0eVduvy/Du5/k9P+f+uVALz2lYRnuLZf+cgSc0gJgvaKmfhlf37p9r/+766T89LxLUcLPQFUjYf6zPgEFAC9CEtNI9p/X17pfnsnTr+7m8WHZYBlrLexlcGf2wTOP0RNuZ32vfP6cZKu266dmfS5vU8QPFnDaTnyu5DpgDWsesZoKG0q/9+J5esPhuQdFf6EkwFyDmGcqYpn56oVedpuU5TmMLqyCgoRWt5P30RP8YZSn/wDKO6ioaxg7ru3/DMvpherEHRI/wXublvSxjP08LlPHijj3nPEA/y/xcYBkj1AbttO8JBjRhKIEy0Gqe96qqxnUV8x9rJu/n/O4mmsUEnSxPto6ph8X3wzx1MA0NoQOmgeNA1dBoVnCjl8Ug8oYK0I4wFmEcmpfnZZl2uMNqPLcnXXXclwkzhQldwjws6EL71zpg+ruA8FqgDJA7/GE/0AHmEugu2lfXopdd0HksOEBTIGIHvml+McVTO/wslHEc+P5QGRXkWeyy2+ee/FnB9kwJCpH9nPMckLOeRQv0opl8yuOqTwA+RT/j2FM/p/M1siQvUv99y/iHoQr6JfWddqCeft0YPpjIAb8k7F3czW7Hd3/Veg91Mb7WxW8qr5bWSfofh9Zu1OIJU0HHOH5QXIvZs2MkdKjHCUJZ4sZJwHOuD10fykBvMtWDCysceSPgxQo5ZZ7wuQN1hgwecI7irgxDXIPXoEf8S2weVIOzBPCypYfUoPcul5dAU80UJT40k2NvUCQj7DR9RHnvknBtTbzPp0TjITtQuIqqo0QufF6GL2rm8wzUGTJ4wAFRkbkyXJWXlmEvnipQWMaufpxFsJhX1ROVYazc31HGLk+HM2QQY53ZULGMa2XophMBDrlNGXcluqWMhDNhPo8mzpDBA4SquN8rw5iiSoIyhEMWzpLxSxkn1VNVRskbfJfNREzOkEFhV/hWGfbGJBUOaomWcVI6l4gX282VW0Yex9z/Up8R8ZUyKLKrQN83thIeRpOslGLgy8h76oP8582kvWMZAbtmUmFyhgje/OpBZ7DXEhb40EyMv9/a0eMelCFYxuKFMroeWhR3UEYuWHCfWEatDD/uM64U8sM+oxnXFcoQdh1okZsYmqWbpnCT7i91oD9pJpq/Aaf6qCjjPH1CyuAtnO1k74w5sQyDeB/LtvY/VkZd9B9axqkehG+bCT/vxRgTlWFN5qiMlKXCH0vT9X2uDDEcBasoA4WtFqBuGTmrM2TwgHN8aiZ7Sfj+cpSvazeIYR9l/mAZSLDju4P1eZLfaiY3Vq3OQHh9e8A5vu0zbGhl6rorg/wflQE0bXiJ/bkyTkaTOo6Wsa82Z9AtdKaOuo1lOGkmp9HMMgymi0wZx1hiANJEo64Mi2nKyMSXMHHpkCdfbSaBQUcL5/fcw+JSYVf4aBm5BAD7DGDzb0OY+xzGwNtxYEfyuDJ2yRrcMnhvc5DrxDJuNxM+r9BRG/jVM83ws2YCJj4OI3ZTxi6f4DUOfsHX36W8s4w8WmgmUDSfCpL8p8JULGMngoK3rm+a8FyPByTO/bo/TJzEbftLZWho3TD9bFZ/HduVZbiBoqJb3QAN9+cOFBbXtqOfj6gKgyLcnWfw7rtw57gHnCNZhvcAd5QBYJ5hn5WoKSPpWyWCDfV6qx/5PyuD76jmN0jMfag+w6GZHJgsfOWjfjbqlcqoJZo1k3Cq4pMyxAZlbB75zDKYnRhQMgzFXrxzZcTRZEJl8nklZnSnmcRyFQVUMD9GP/BjJ4QHnMOaSdNP3Q1lMDNZBj+bAo/Yr5qJc/B15P5C5DuWMeEYLONsBrprJhlTcDKUGm3iNzc84IgQxS0DttjyIyB037AMVJ1yEP/HDrQFM8pn2rihDOh7DYWFMLukhbujCWX1jDNl1FIk3NK3VwNdyC1lnLHztJ+xKRtzeUgNxkEEicJqqQa9cNeSDj3YTcuowMLRXwHm9oBz+GjSjkhWMUrLOEriCUPe8HTPZ2WgaEEXdywDvCHt08KWyoCYB0ktnJ8PClMcDzhH6AMb9IexMq5gfUbTte3KuIiTlHHo+L10j9Hf4QbuD8pgeuj/Z5/qWzPxVPPE7066Br3WGA4k5wHncGXgH/rca2X4dJxzgaF3twcVsLpyZbTDwz67AJgysnJlGgyWgQm0r4hPhbnXTDD1HfjuN7HeXptwPcA9ca4MFs+aCZ9f5iek6P7UTPiEWL/apxNvNJON62F+10uJ3+ozwCKugtXCm2bGHNTcHnAOH03ArikUBTBl1Oc6Ugb5dA+9xa0oI0Y1DnZjwblThnPawS1jxRrX5Tqrmdtrkw3zDHuLM9KtliiDZ4omMtojvyf5h3TCqnXmF2/kOrMMxTAOzChtIYMY15bBJDlRig9fcgZaw83RBMk0/Oq4PB5QhXIJyuAbibxiqIxTHXozaRre4e8ZelANzqDXVBg+NhMIzefmp9BMKoB0F8pw2Z1BdvxZGUJQBr9Op4inlumgMkLBDFTGmfICSxToQhk3LhWktnu3mRAha6PXRHWaOlCek3voC6CMdtZM7cC2BK6VLZsxEMcCqjAOMrpAB2Xkspky+Ih+BISpSX+7mcDR9t4ZG32PLPlkGWOYwhfKOEjigvbNOPgHVj8rY93WlmMl2SuWEfMIlpG9sMEt4yDGmTISo4U3kNjPvkoZh4RyuDL47Tv/wl1SRjWiNZN2HPog+4Uy7HxG09vX8YTPfcb2mDH6+LzkrM3ebSaYD3l/hQXSJ7gycpzlb+BoAqtb2tW+binln8I4lrXfOn9RwY0OlO8Z4QuByC9hKrVyVxl8gC503h5wjqQMj/FBGRpNtsfabf3kI1bRge7kFjMk1ltd5L6jDJ40dU3fmXTVOSycr47JlFFnDWSbgfK8XHw31GdlIEK3dqN948abSTUbayZIuufbfcT9WRnN2nVdy1fywANhlPI++duTLnTHgVfkMqHSFywDHa7PzC+Uwag+mvDLkfr+aVCGUKRNjxLUwMPZONl3yiBTjBUsA3Lrq6LArel4Fc4AhDWzB5zDlQHDaPt9B1qFC6n3Yxj/x9FE3/HzePeaiY3GxIkw96fjSMvEhDLqek2TF28msItwkrLMP4tvTp+zhzYFHJSRxXEOOwiFMnbShZUtEBxJmJL37tDKBeV6OAe6yzcgNBNUHpwSIeZfjeI1zIWXm0ahjF0c8fKLtrGUQRm1xN0yeIXKXBLmyAlKTRklo0rT9AsS66zqPOAc3snz3E4QILOMLPngdGW08ziOdydd/HhX+PD49Wk/gvPh1pKmMHX+u82k4Qv0fGTygGqKopll8LycL0cLZRwRTu5wvuExbiiDEwdPvtKBOuLahBensAhUhDMzvTu09iO6w50yTuHNRKK6uKUydjn50KqvSXiHW1eGxTMG9KB6vyHxuQPlzKCB1ZXK2OF0NInyKpivZPMZAJShsLrqBO9A+f3EoMAzy1Mqrgy+MMi+sMnu4xxi4GXnzqaud5TBy9Qfr5vcbiYdugw/1eUB5/BmgrLpyF1eGUdJYmvafAHEd4waMubgNFYmfHoRKYsVlNFvnHMJZ5ZxTxno4tsGNWeJecA5vJlMGGw7n+ic5W/wZoKMPpzpEowDCP3BHctACwm6OLWMspkceEBwBsKHvcDGA/6HSN5MsGRdP94SYYeoDNSgSXyhDK8SEwdu/D4rg1A87v7MMgBOleW4u2rdmnX7qAyHaZmXqcIZ4Y8dKNTGjsDcURmV+nFl8C2daQmfMyScdqARFo4FXxevtca5Zj3N0EyGpovKKNI/RAtlarfZ+4+kjGMeDOa5ZnYD5L1lGQNmGbQ6pn5S2HI6Xi2bhU8oV+iuPMBRieQa4HWW0ADMMmoZkEYuTDGGx1TeFFuHMTSPvg89b6aMXRbxzp2+HfjWUnkqliHCTcvYkCbfsiqPB5zDCkRm7wGKZnLUCIZWNRQIPNt3zaUMMh6Zg0RzM0waH/DbWQYipXhuGeM4PEJvU22ziHG3mbQd5p+elgecI6zbM1z3GW4/WL6Hy5EfLeMxs5mY86KZRMvA1CB+bOwgjKvubgeKCuvCVDlTe4581XpAzL8a15UxDSwiXWmeUcAiixdjlXXp/H/uMzADnB7sP8kOYapinFhGxmvhaM9Dny4ieXg1yaoyzpVNeAPE0sEnoJllHPJwY4cw55aRRYrNrsmGtrrgd5tJjjMdEAr60EyO0d0yrN6Ez9Nx/TyCr1q5PyQe2kYGCXOU4vLkjrE7Q5a1yMAxOcdVM6kiKCO9ivZzn8FZhslzq5lo7zgT5rZlZKl5QAWunp8qA2ND6KU/K2PjrYwulZRR1k301S2jWpF7ZSSm4HKGDEbPktunfN1MjnKEJTxfyOR33n5WxoRFOW8yYFafLaOA9xkHQfJmcpSScIYMd29JyFGxjCwVU8YwbdsUTod6yB6IpA4UnFwi5JZxgrM+o4SEKS2jVkpnyOABAcdIV8o4cJNgk66t7/m1gUIZpxLxzvFhLW+XJrP/Q7zqVXjdnxE4Mhz7jD2TM2SopVPgx5MurPddkZ9GE77DfOA9I8KfWwZx+1JBDg84x7llSI1HXUIZVB+UwU8fELtmUkQxjq4ZO7/i9MM+44AfzTNq5XEo4F6fkcEtg11BcHhIRJajccQ4gCkjY8mcdcuoFuBLZWha5AERh4ShjH07+aSMgh+epIyj2JHJAEfFMmK0LyyjbCYHHhCcIYOHVeDxb1lGlheHVirAeYmz0YRwFvBbjC1Xxq4IcaEWftxVax4Rv20mTM4DznFhGTtZza8lfIpCxydlBH6L9PkiUkod+JM+I0+HELmSXCR9HE32kfP2b3E/jCYpfZlHvQNVLnZ+pJTnrM1ejyZMzhkyWNgFKs3kpBk64iIj4GQJL1Q6AVdGPXnncTCnM2VULINJZsliWlPghjJWZ02oWWZGOL4DnJZhDInNT5hwBsoiSYF0b9vOMoqsgmVQcv0oTB2fmwkzCpnxuxgAXFl+dedXsBcspd0l4tuYXBbzp1NLOzAULM58CWsmJx3s/2v4bBn/7wDTcTW9B9/Z3nV6gy8P6VeFuJxD9uce/T3sCONhoDs88gkyrsAq/zki/2eQO7CHuPGN9DaUebPDIf4MR292iGHpENzZDzs5Wjm4p6MAmdJm7CHkBEWEfaqBXGweEo902iE8T/N/+D/8H25h659r07T/0xuv4wdn+StIJ+Fh+/HPd//z25jN8jFL7d5j/O7J/8pPX2uJPyLzcOdUQ+FJ4fjbLyAL+PYffr7739r8uzj9Uiz/tn4Jo+7/v1CU6B8unmX3v7LnAb9uKeZbNIz/ZRQlBORKXiL66CiD4N0RSm5hzxEpdjgG/2+iW4ozQFvPLwUILOF/+5/gcRp5nqa1owLSDmVc6ewmrchXO9BVnNsBb/gU00QWxu2mkJwQSRm4wht4loQ7+u1ciZ8xSXH/57C+dobxv9hjrPx00PQah5mfWEKl9C99Eub9fHXr+HrP6zpO43Omcdgn4VG70/O99Iv4iB6RQEBqHSJYuvN75pA76SMbrxmByOk1YQg2dMM6vpd1nd9vZfiGFPycD378RguPkCfCzOS/fy+sr91QEnuM/wGEcnTLe1rHJ+qZXxV79i2K9e6G8T0i5MlepNc3Y/ppnmEKyzz3CHhNMiKGoYaZzjSzO+ieVp2odFbuMo40hplczIkf5lnsN00v5PeaSASeMM91eY8Q5dmPT77gFcb4PwfT6rofSv4He4yOrRMm8cRxhnF0GDde6AJgGCvGi35ZWE3zexlZfarEBc0ePOhGlrV/scpXfoxnolbYlTDZdVy6+Q0bmcA0wDrQY3TsZgI4iNBe0GO85nmcX2Cm5bCn6HtEkhT/o/if7jEcLTr4vhsxAMzoOfi9qZmGwu/x8WN07M/7cZ2esy/E5nHq0ZrfbNvv14rKRrPvMBZhKABYtaxP9DpK5rnQMKa3DEMjBIAjBhEYBmyi0wc3+IBhrx6D4wnNjh8A88mGI++w/zv3ERc9xo7zvxioDfYPM9sv6hiV0cE8QIFZYIBZ1xUjAaoYbRo2QLxgBTQGTBG6jo0ecZDKhPknRpIXLQEENnl0OuoxYBgI45RDy/0OnQk6G6SGzoIdEY0FXY7GGvYY7HgkSsD/jjqFg2H8D/YYrNIZo8UyLBhKsKZYW8wb0PtzHBjQlTz53T7MJFGRMBPOIWQqqGk0eBCt/pAKZxQYENAPLJptcM6ydD0bPoaSzue0AiYWs/UYSAV9Emal8zKuiILM3oiPrkv5/4/iwxyDZv7f+o9Au0Vdo/HTKPjlW9QgapeG0XF6iAoEaCYwhxFzClUYv5aL2n2NGHdGDC40A5qFFjYzYyHujPnjC70N+xkOJZYxJxjjE0PXyn6jY/4j+hZQOe9kj/FekOrzhZ5JeSdxzfXfvPfD/x/mGKu+WblO+uzvsmAV0s1szTCF6YUuwpi0QmixFkVDJmmCYWhiIGAtyjMc66iFCeoe8UaZAjmRGlK3hKA39AXoW1DnnJ6gf3n13YwlLcYSj/B+9yOWvhAp+4q16/1/BP9/WJWcYl8VVrMBNytqrTDmZ0hryZQZ/U/iYo5xU3H/h1uI2jTHP7nP8YHTD3AchpL/oR4jluJ/BP9T8n5Ylfyv6X6PM/md/s8U739Sib8yx/hHS77PLPP/XTkqqTvpPN8UwlvD+Wrof2XLLxiaSMd9ieNQclyVMN7ZPxw63fdl//vYxzD3eTqgZgHJ55L8FkJyv5psfEL/nwdyXjsV5osSXfQYX6TSdv4SNIEu/P2wc+akgJ3X4Yzhn3EUPnpcjB/gVysfqKUn2r9qGNv366QPc4wPiGqAYeQ1lxAeniOCy47Y05GCIyk/+i7D3g8Ew/h5LYeYhxQKws/Th4ai3HDoF475z3fmzZyRHjb+9A/B5jCPUYxoKO49sWLk+4Dk+61VCQ2jAhfVkUkayya37fTbFToEuFf7EJJwt8fIyu3HH4BRw7+OakjRY8BN72aPLqvMdgCBO4YTorrfSOIKTpELglMsXoaPz1od8Gc9RkRXmFeAyvEIn8VxUSm/diqJuUS1TXSLJDeJFsJk7OeInqphfK77E47PEfcIMa5i+quyKC3+3cS3v/hLgra2m/q17/qtmUDZmrZDaNN1mEMhdJu6Zl27nh9tafjCR/A047DaOzSYxjC1aOEMW/t25bdc44vHCLjcMO4UzXl+ZVVy1mOw+C1fqQvZICtPXfdru61Ty+IODOIjQjMfg+ar+xqUb5x1d/IK3fQs78SoMNe27zjVbIvnXE2v1z3G9/UcUMQ8S+Zu8uUcQ0bQDqhxTc62kZ+YlaFsjxZGwhfs8RtQCGtWmAVMoadecMQ0EtoYQe2aB2yoG5phbNtuoZ0MfQPtolV1c1Ejux7DhL4Qnbc6/cq1koNhSA38QiVvYtBbvFhieFF8vVWQrq2Z+anC+ARDg8WNHFvT8RIpDUMxUcwByuI3XPKb2oOubw0ld2tQ+Iq5wFnMaBi0A35gsJs6VDifQN9Qsz3MYWVbaLaV3xRtUd1Y66EZPbauQwEbNAz4YC7wPqC4pllZdTAu9DgN398HraKvaaeGr+7NqhU5ZoZRE7BCO9wMbD3GnpP+/T+H5AhFNxc6w2nk9wW6FX0ErWCdhgH9xDagdqEDtP9h4WcO0Ec0mjb3utjd88064EV/gj4F/CjXDGUNj6FZR9pJhDvvzjGOCOXYH2/hnLkIMU+YfJr86BCbHgF8RyQIaD4PlHpd+TG3DS1CUYaxW9EW1rHh+z97difogScaSIPxggQ0uXXjt056qAv9MEyE31db57KDKief50hyowfaGcYv9RgAGnrPIqOD5DcJUIqVn80YUHp/azbNH4Yee4F2dDtvO1gH7GKF9bAhQDc0DGgsLy/d8n8yjPMa/AanqdxK3msKezo61aW+DEfD5wvs2Ry2bkQp2WOw4Vuz1wu5YEK9jSwIlfEsI9QIAiyrn5u2xziMznicu3XEYL2kRZBwMAyT+ULyi1XJrfI6027ySdGZ2MTv3KEbxESCZsCqZaEwoiKQPQKGj2ngt1IVoZ0tGVMVrILjByYV7YyupB8QMbydX2wORDUhPuFWgfb4EKkIPngyQt6Eh5GvRe4xAKBXXfhFXnjRh2gkpR74ckuMEJiLwb9h0rByKGk6GAvGV/S06CCmnh/VRhz0KsOIDlYjNCJPfBXNMKcWD+rnHmNfzjurkn2cI3iCaweOd7QG3jO7rhPsm0Oi3tWuDxVhXq10sbPpJmZZY/isGkcblrcfEdttAWPwgN6WzCJk+GYoscJ8LtIljtE/Jpg1YbjcA/3QgwP3JCqM77bEHnNIhcTGYIGikYA1C7noJ9moImSwaDeHkgw/Po9RamLXYxhCCQxBfgmKXQozP/9xJ3+kc6+oZZD2+rsUf1zhJ/iNVFOP4cXALiM5zGFBxieKEXyXjkaWbnIPfxYaIcMoi/GhUL9zHmPfYxSSJQHpCj4c9bNjDvPmxFRwO+5x1mOw7NflD6EftHSJPK67M1JwlpNPeWoliYcQaMc9wf2BFmBky8K8BgxWLobhRnH/+DyG5VHtMXY4SOvHU5DhIxNRGsanUnv4Z+XUOXJqwXGeIEKwDHFhf4Y/i/39mc87V1cBlZm78N/jjmGcw0v9beEjf6XHqAn5F3GVncL+1DD+ENU5hgtdl/2kx7ij15znzwzjT/F58nmnPJ9wMw1jOzBz9aBfOBiSJ7pSYI6O0/FjoJEGbfxVwAA+1/0dfmGOAR20JgHPUpmQwaVfJGXEdNC28tkwo4Wt2OkYEjJP8MpxhbyOblZuxLf8Jf4sdomvx/hT1KQiraT/0tXVP1YCFuL/47hSwNfKOUb4PcPIURPMaB96jK9L9FOM9kTGP4hQtGMRz7WVISfsAgtvLTHhNKCOu105k83/p6gGJuIfrUouM/4O01/tMX5J0EoyP0zZxt7P0HgpTIsdHU51yFeSAM/rR0LeXJX8dbTjFKTnsVaSHb3GIpzF/w5/nsIOuwTHka9Z5dtczzdy8KfdtMiVNvu5K9+C/3x0vlO4jz1G0nNyfQak+m5b5tGd9jtu9ku+stgVwe7K+gNcJK0gDy8PBb4eOvu59kjcFUrDqMStJ+fUH65KYppl4vCJsLLc6Nvub+OUeT5u+E2VMa8UJuKE/BE3491PPnFmPeRNfD35VB3cQxAlk+8nq5JjifaUFqvPb8oN3u9aECL0u3eS1LGTIvcG944FOFJ+H7G8FQmr+YcWe1s4tDUdf1iak/sx9ql9mfqqt+gRjPjpT1QUtWdLIcQ9w/hjlJme4ijfh4gfl+cxvju+Hkpu9RinKR5v1Cl7jK9EicDEx18+cBscSr7B2tvbTm4K+LNyZPjjBEqw1j5+bC/HmjeEOxH5okKMuBnrnViJ52erEsbP8ynzXBe+ZuTGHQAx2oQIT7ShMp0SRZjem2UvRMlR8Lhnl2YliwqpwKfwD1D0PI12GJ9WXvemfULhb/sXNFSUd89fAg3eVWq45q7h6/MYd7KwFxCVKOPtUxn5KsRv0L/8RTk1fK+GKmrJBBqP7v4uN+Pm20bluAt7R5ChluGRxndKcp6e8JWgt3qMGyn6ORWAN2xxKJEjwtlSSlxqE76YH3nPtNHkOFa6hfi+Q9cqbt8BznYbRaG+0tkp6qkY1cSkuBIZQ6c5+OdBTBl0CowBfphm9zix0iEriKE6dMjC/E661BCFNEG9ELfOY5whhRVXV48XmNtjMXa3Me9xLIZuli+AFFIizlXDRRGuSve7+FDesm0Tx/IWiBGyIuQf2vPsMgVdGsYBt89jpPxLZdLXhrvEozSFFnj7pzFnuFIU4lcUlRUbcRU9HLEPEUy6Usaf4F4K9dyCP6df34+RlTdE+mAYB/20a/kFRqDIclcHe5n3ODmP8SnaHuwxypKXQh1XTtct6NIwtsbuguVNsiGVz7dkfEKtNg3fKqOEx64YRiH+obzDlWGgIRwhDWWJOujFf3d3XxVZSe/0GCeKSWT0GFaKnUgRJ4ZRZ1dAOZQwK29BDF17aHLrJvdrb4w7RBFPivAV/iyNjw1hn/zdoSQI1vqTsGe4YxgZLuYYB0WQIGIeYu7aA0cOSlsRKlcUne4Nh4sWtOnBtq7tpnb0B5CwdybgIPd93IpaMpnvKqKFlT1G4ZH4h/LmhgGGLIacR/1ojpHY5Mq8leEcOBP89tXVq5IDH27tc8PIE4mGgaPmJKkMQDCMLEZUFIrYD+3Y9dMj3Un550PJCT4UfIdzbkpaFtGPRPr0dpbAXqXZzA3OE8NQoDNmasX+osfIM/Xj9+cxqtg/PrBHW1w6kTsMJfpnsyYj73sMRFntNQjcrd1DPQYf9w3RnPEcuQTE3n8Hl3HOAo2+7zGyWgMqPeRuKBG/gY5al2qGkeWjZ5EcJz1GjqIA13OM28qTYWQiSXZ34Xg2lJjg2zDyYdamjSXbzzEIKkpBfMKzbXq+BqBtJT0TcS7httg5fhSJqEY8EDPDgItPMUtspxb17HFlGArHbuOrEHgMJEQ45OFDyYZ2yCazTfyyvNiBWAcfC0qGX3ujzr7fI4JIcfKZi+Q9Bn4NL9gMZE79zq5BKKJnsfFtABBUHxrSQ42iRraAj+UHPvF8TON+Jskw+DBh06M0/gQilXDaYzBcTyGutKQQA/9KhxHb1YDWzXY2TzgqB6BsnBTqUvjb5zHOoNQ/DSUnPYZKibD+1XVrv66TNyPs64piIPSqqBZboMe5DrhTdX8JRdY+p8J+hTHLMPhOHMepYRDNCL3IMCY+7ayEKhHcMIAVlchznWO/dn20lpop7ZFE/jjHOFEsyVlQNAzWkUkurx9ODYMcMIm51Vtj4oO51XK7YSgL/NR4knE4Ux0nhRCuws7wVRxjTj0G33eRG4bKUy+voeHbIajhzd4LQFQbQjCMYW6GEZOysdcTzhajOseQbLXSfHXP54U6wlACGVrYN+pr4pP+RtlPPoU0lPQrCqL3QQz+GgSQd4pC9NiCZA6ad0I7Sp4E5/o7qCa8J17nnnoMlBbqQWlSj5FWJSmZvMeAU00PhmHJ1BtCNIyFr+uZNjcMxbkx+XSYAL+5KlH+Gzo+vhYIswratyHvMbzgYSjhlKGbu5bv4MKAaOXm5FN8mbLDeT3sOOnsO+TaBVXUFfUBWeJ3cJM9Z8vK4IYB6fkqNSikxbIqim8NocghNQS+MYJvWEE3QI1aQoceBpGVHBsJGhrGkHVBTvYOBeDaMIqsiW/nGLsEgjcMJbALSA/D2PjKEy/D6eST0MyKdQ1Z4jQC5a53rQjZNr55me9qk36VCOjOlHAoapUkHOhnjAdcMO6COJSoyNrxkMZN/I5DiRmGlCMusbkP/6N+Uo/RtD6EoDb0MhLgfo8h3FmV3NFSGkq2Zm63vkO16X0whpM5hkoYjoqsjc7KUOLtAQrFrH6a+ga7aHvFmFuR+E4h/hIs6zDHCEX0ggpwn88xnBmH8BOlEiEaBiAu7owdiIZxpYoU9serEsGGEsZvhm7sWr42iK+jJIWCnV1Ek/CPjX1q21vXQQJIZ12rQhvekNj0NBX5gY28hyJXdFAhCXfi1iMfiTU2NwyUb4Oy2hGNmiOhy4/y7iOl8iIOXyaki4aBcpyU4BANA7NURnIdW7Tveoyv5hhJggzmC4aB/NGc1xZ13fsISrG8x8hjUmiXueFUAYSVSyuRz1oQI/ANRA3vEG14t4smV8DpcnUvb0CVWmfdITDtma8jyzBUOPJNIGBBacLXy+tzDAauPTrhHhY19mEAqrScZBjUDzQ6YrDlOyKNWOm1I4p0zPPNquQC2QkuTjN0WoUv9HTaxVDCV69N7dpN89T1bhmMWyoKwoYJiCKhBenodoG9MwbsVEZUSMQJWbgK+4AU1VyxvDDsjmd62xFdq0pB6rHHsKGEoWxr09pqPU8aUWs5wTCQNmbzSJGvxAwaPTmPcVrC31yVSAT72YGbcLJcBWAX69DBsXJ9axTuKi0otAdPVvuYw4fl6nlIFXv2T9FvJO+TTzYbGUbT9taYVYCivJZaNpRg0EFBNz6UYZNKRgjI8qaGlBzfk4v5eFCpUDeMAnkxfmeOwR7DZGAB8OsHqsDr7rTH8HAqDVPVwRbp9j9ZlRjYggbmYdxEbSj5UXUeiJ9SuYBFtb3PMYCNL+ZsGrRn86nApz0G5xbNMGM5T/NIpwDrPYYpDwvcHjOSHktcYyZuTT4jbl8rKVOLvuCwHkNCYzxo+UpfX6+Kdjb5BFBSKG3gPIzvS1Yi+KnYKVO41IIUCWNUO69ocRizLBXsnfESZSF+GVnitXxCeYGtm9FoIL/7Vd5DPWdzjMfKMxltFyMAOX/ILwwlOr8DnaP92Blx4k8nn9ZjhKxuqtKGEhUdUrUwiobn6yUUqXmP4UlajyEG2pF8djZG/0qDiBbcjsOGH2ZkNu8msqGE+1zum2X4gJTKt+kZf+wx0FboabIrJbG8edJuGFKHzS/4LYJAsQg7UWKCPNdjKkXTsYzvrUpSgl/OMc6Ukp3HgI1gmdEM6RzDZY/hTOxauAVPNIyYY1CURlDOrtBj9LyoZHCu73BWnIBP4R+REsiHEpUw+olKQ0iGoQjYucuozlUgWZq4FcHZix6DUh2LVlDuXCupa6ek+uQTaGAjDZq+3iQPv0Q7nWMQ4uI3FjJl7RWlooQIzdg27DGGh9+og11VUf8YXBl1TRkkqcvP9s+vyFFuUWoNwXtIMjRclfMTA6p5i+VMBcwwkDhbJ3YrFjSeQbUOIgrBzXO3xzgtswJsKFECuiUVo6g6SkrF/4lhWCAGUCzqOYSGKYOScb6IXY+xYgXXdLWh5AzXoTfxg0QsikuKfQu7bh+YMPDGRG/Sp+VVTwEjGvR+/nRfwnHyiWxM5diwhIMt8bMPbG/CH5/gKucYdxHPY7Qw1QFV9mj6Ze5CH3A1lDyGuZ+WuQf/yDuOiP2qROIkw+CnOYhGpzMM4qvgBzWZ4yr6h6TL4GAYmHQ267gOfMU8plT18hJuGCgupmBTxy8a6TM+XmKEO2PKSYYBYOrVdUM7KYugoWPjPMqfJflhVXIVN4f3GBIilNX3dFwOJSjGxqWMlp8EQ656DADFtciCInyNvCS7Ul17L1DjNJoZBsTmZ0mwKOmmdu3DxKM0DIsQy7txzYZFKzpWngJVceOqpMjQO2m0GMz+m62HNfGjJsJZjxES2Ev+W+cxylT8aIDvcvKJZt8MKIh9BslopqhS2NIw0j1rwqeh5CIoxzVbJfRDuilY5cV/a8eeswt+jiMUGIfThoCwadRHSvpumnWrSz0CsvLTA1u3rOyNMDjrAyBKpWicV1J72PkcYx955y+8aY5Rx0mPIWw6pTlMvH9NUEF25UZuVJTF4V3Dbd/zsrvPtxBSircT9if4hSRysHNgJXElCbGbYV7aDT2BhC9PSzhkGCFCu7XTC+s9zeBId6YCpgwYHW9M4Pej5sa0S3w1x7jxTbSKfiok3pF4BpTjpMewEvK21RVV3U28JkgitBENI2amElrg2qEXXvmRoCj8j1YlRUEqpcpwEWpB52mZx3sMnsjEn5eRmm7WHWumhYsegzMq3kG/rdOC9Tn5axHcMMgMXmaBIWXm7WIit7sIFyUiPrxR5zOU/s0eI5clGIbvg89I1XInI+DpG5hS08WzN8iCHOJz1Av+QR23ENKopnWWQZhOCKjtWFQdzw0DMMacvRpBhhF4Yxw65KlFiDhIfflNtA9KzIO1KjFhargaShzJq6LsioG8Yp/IO+nbDovbFTONEO26xzgvST3kG+pN2FCSIfOgHlXeIoNkGBmkGzkO9fzp2dVvl6s3r5UQmdx7HV30GJQ2H0o86t4wSly0IMzqu7XrppGvBEmTbue6jZu1fMZW0GtMe9quvLvSX5S3RIiXRYg5nRqG6LlheJRSxtL3h6uSkMPlUIL58dV5jB1EP1GUxVFH6acwYipkKYt2xKfwX0I1m3p5A7FS3mIVVgKxjhEq78fIcZhjfMBJj/GtCk+HEpbh1lCSI3StRJSkaEG0jSKBfY+RFWBXlkPRbpU1Md1iz2ERDkNJgV09M4rKexqjZkk/HkpqRfqyx8iSKFL72XK1XhBSzxRlgXTsIv9oVfIBXsKa2hKuQxNs8lkKnZCL7ynWh5KAoKA8+zgLq+LbOcaNVcll2RV4PZRkhpGS+txj7LLNFFWJ+oeG4XldlvQLFOmY56K8DDl2APqsaDWSiJUe43Io8Tq4W8KvnkS7QHZG17J2AfxQecdcmHUcJRWlcu3g2ESA6D1G2Kdc+vehCSch5xFuQeW1NGJKKUldQQwwcixQHslj4HAsb6VbDmC0vA48mYQD4VaPUeKYRqTxYE7s3eOuhIqPO/sH1xk8zA7Y61dGKH01fObYIUXIowb3eXL7EPPHPSW3LWIfAzhEir4KPNTSTGnreBapTr85xzhLlLgK+yPUEz7N7ms5PEIt3k/TquHrtASL9bO4t3BIOhDseHUe41upxI/dt/F2uBP9ZhaJzVx/KNlNMJeTnDzoOznOI91J57u8IvY9xoQeI3RABF3mw/74O0OV50jMKfFndD/k1OAyn3ni74yWXIZaYEHzY0E30gEFT0BwZiSh9O9DazCeOieoCtiFVplzYo0h0IowM4w4+d36V/iEEBA+K5S7sLMvDLm3QEYxZ0gp8YfUw/+4x9887nJ/4cEud8lhx/hzBA93chdc7gm0EBAIgZ795kiNxODNQmpb5jzhCrsQmnb7TVxyJBq3zJm2zFnlKA9he2U9BpaJ/cxbgIiGP25hF50x9PjL+Y8+2+3CDizpl3syp/lKl23Fzw75Tg6n2z8eYrB+WbDTzLFtwwQl/b+AthhKNhhGUJEUEg+FOziPv8Rj7szRhBD+jVQc7GfecOQuc6YD94GgLTjSwRndEdz6uceDsA9E25IjhbiDhpFBvAHmyvdEchHwxZ959/DsfMefI+PNnMSOZxcKkJIXQscPKA2DPQaiMnba0i5sYbf75dvRQad70y5VKEPdGWniF9UZA81+kSuG2eYH54ub+4I322o020KIHxo3DBFKmF/7GBTYlIL54yFQeAx/JzrgyYkhbEfOHISHpnTjTkff38CPDCNsu1++HR18ZY4c+lk1BT98mPmIi2f8RASppZ/3Ihlfu67Owth0ycv7fIwHQfQHMFBpIICXmIxE6o+3vMegDGEv0Il/Oy6TspLf53Ka2vEGPaGZlnhDc8sHCfTZCAFibsM4gRNMvWRGktNrsrkhd7oDZ5lXlG2YdWhNN+Scl5VHpDv1oKxdz21gUG95Nusyh8z978i9/5xhtPN7tE+C8lb4V4YFBrM+3695HLvxP08cZt792oz/Wdrh9Ub5qB2U5z/PZZn57Z5lXpaumZ6LtLG+3z0OyGJ5o8jdkx/3eT+p1fX5NGMa//NCtpbQn2wDc1Jmp2j5NSJK8B7bDQIAb9svw7a+5OQXjp4vbOOG8iz96/00XbypjBExm3b0WCtMDQUXXtpahL2Y6MxEEHVqutdz4TuGkD7veYR4A5QBHSJ0eUo/qADoAKJ3drxGm08+g2FUtsyZtt0v3zKnBVOuBbNpoEOF8TWdkzagaeb33I/vuZtf/To+R/YtKBMUieL1iPrs2onBz2nV/0WLaLtl7M0KCBS+mV59M71fHZT7nFq0i+41yyCgSfUdJoy5frIFwzgBeijaMuq1YSeWw+as3fPZr9O4rryhBDaBuT66ufW1DFwWTP2Td4K+USwYAeweypgQyjLCcmRKKMiGNo9lw4L/3C+vEX0EGsGArmpZYAgzehOpp2WxUfwJmu/AY71m0z9fdKA0CaWsQLXHYD5SQ9oyZ9p2v3zLnLzxdUYTR2uAyPNIofjwdvqBYx2WJxRlbQIFY1VCJxu0PM3v94wxAjqFOoQZ7agZRiTFB5wRwLeQsUPuBvQjjId1Nz/91PVrO0zzOKNJYj+5cfx8qxsG8hPQZaFiWIfqMCAFaxuLv/BfMaaN6DpwHF/oI1V3MBUYRtehz++eC+1g6p580IbmANsf1umpswj8LTQMdDxvpswlJtKZ2epmXdhHd8UbVbZmfi1Q2sSc2qGberSi17IimF+To6GpFwGC7DwGN1A3jOOWOdO2+9U3/FbUyqrLPijic0X/+h/KJvG079AnoBaFfhherxUGgT5AhvF+ogEimQEdr3QDbTyfHVoEqp4xkOaMw4rO5Dlj9A3o2cFiROnREqEQ7Hv2RCbTzzY3DDgOIA09H6xBHlo0b8YdZ1gxqpfmPKOT4JDZ8YoWOo0R/T6TRIkXlA5dRI8mgHYwoaODuF3/WjQ/6DnOcoidaU4yjKdMjupARsh7nWBxaYzqBpR9bReNRjRSNBv0uyo9e4x6GQAVA/9fG0quNkwgqBmWbHm+0BsgxsbqHDBDYiPGWPLs1ifGEdRg38Iw2gXFHCcMjzALq80BY2nHkaenRtl9dhOGJCgGPQmBTvg1oymyC14nmBvioR9iSb1P/ePtw1ACw0C94KdmaTbCoZ1tAeOb9IQOn6M+5xQY5YABRkDDmBECS2g5WHbPcYVl9+BVtClqEPZgPYbcVCk6D7CsL0xD0e2iTaEBQqkwirVFtup8OdvEARrBsZNhUJiA5Ir4nR7jwzagYaM61Vdaq0Xz5wxiQ/N48WFdziIwT4OyOAC8OEkYZBjWqHpOJQdY1RvjDMYkTKgwimL+gYaAbnZtMTehIGgLc7eit8XwA42weOhUoMnfNQwccyRvO/ftClPvRvRTCxYwFA/jHEq4vv5jU2XgsWH+xFfN0IPZ0MihhLPSGUMJZ880jI5ziqnD+oUfpZzRRQxDjx4AMwqMvBh21U0y+Y5zB1iTeqlmwxxLUwyMRK+BfQaUZxm9MW+BnXVS/b4UO9xYlXDLnOWWOU83TjthAROOI+bT6AFQpSg0JwyoZYpJwxhY7fBO0BEL/2QpWypkRZHWkUZjc3cd5hYd7ID52wuDCOagnGT2COmhPgxDrwkLuEbaYZcjw8iFyrbM+WnbneAKUBoyw6mZ/vNCQ0Vx2Fk1FIWwbmQeYOIEKTrObfd+YuBcYDzb2qO3o2GMLWZLHebaMHQUC06aBAoOZY19h7k7+tMXO0/MUEa0N0zNX9BH6KvQjNDBomGxB2M0LFm0zGFvU6xKKLZh5/oHDAMCoXRcPLcjBo+ZXcSE0VJjJMb9GXrQuoPP+bIBafRgwWAYWNhSqWxsnFxjGcteE9rDAZrXjAJTW1gYIw2Y7qOdcRDHKISG006ctmILS7ViKw93tjTHoCB7rBOX2R2K0bJDQ3kwEVo5QdKiBNMABJQYWjT+rcXKTPGniXaAddvWYvrA52aYUws1sRNAGi26XBtFFQOGihjw6yQA51lIsYUc6paRIG+jR8JMv2lNA+im7YTGJU4Mw4ruW3T8cONOLjrxN6LyiLmwGNGtIJICIVK4iyFyKI3Aw7+24PQ9/li7WsAfbZUeA8QIjg3uz8n3UMbIfJWkjPR9HqeJlWT4zieffvh2y5xhA02OwqU9N+3c5x4RzUlH4E+bMdshhPkx/eT1oBAh0XZb5rzadpNP5uIIzoxUwgI8uOSqx6lRi0Qioj8LSM4q0XEgRJz3GNKDHb7ZMmfcgsOqKPnijge5sPGXfMWmn/1jKu6MdHfJTa/t9ofDljmvtuMp8QwHwkdcxrhOLoTujxVkQXWnoSTcnGP81sZd7j46d1tyBscV91/f0hxDCMcIEjLiIRzYsZyhYIHnRhTDjtfcZezTtDwu/1XD+NGWOc+3zJlvmXO3JWd0/Jtb7DHgzCHxckQC9+4xgiGRM+qOkIUI9CfaPnSPxF3jPIbsuP5hw/h6S87o+De34jxGVGV07HBG36HCVuaAQzUpEkNA5sYhUJNDKH01RI5fMozM+btbckbHv7mdnMdIkJx2LJD590EfsGM/j82Qn2cDxBh0XE8+f7plzj/ckjM6/s0trEooDq+kttrVIcYciGT/i0gCmYzXXO6Hwxnq4N0ozufH5ACus0UgeYwVqC5XkyLKLXNeb5nzD7fkjI5/c8vnGJfPlj6aeHLRgRgBLd+qfwq9QSexm8O9yLP61KLAzz0ERhxiCgDd9pbQU+ws+e5QknaHLXP+/pac0fFvbsEwKI4MY1dNvOJth4NhZGjjp8120QUmLqjM7vB9eJd/HfzcTQWeXnjjdI4stcwwlFPVMH5a25nzl7bkjI5/c4snuOD51GNQvUeQKsNIQO2wgqySsEehE9xth/M8FZkvDhdb+LnHdh96jGjJFu9kjiEl2OGbLXP+0pac0fFvboce4xQyDPwCcl9hGBsrNRoFkQwji2+4zjMYRgalYMlcCYyc2WNk+R0N46veInP+nS05o+Pf3G72GNBzMZRkCieiYfDiCqYGE18RDJfDDGMXR/hgjJxjKGL8ud+86DFiHkfoEpuBMU57DPzS2eufbJnzD7Zw4N6c/9Lmhy+GEnHxJ4QjHckw+IWagcuFph1HNw2xij3Gifi6x8hwZyhJOV4aRrH5D0j7RD36KqToi7/cmVzRHsJmv2zb/Zy086Zf6ar9ebDdfm/JeZLhLnF68kpilWpMiMjmGNER4IaBCLCJifdqtn18/22cfB6iZXkyL8vT/gY+eWF84Zfj06qktKpTw/Dl7b8Gq4uw8V3A5yjD1P5+GVGQeo+BuknVY3DDiJXjDh2SYdgbk3hXRnhhENLZVWiOIk9teb42lGRASvbTIfuATAV3Jp/cPtjXXwbWVi6HbRevsPsHQG24JMEwoD8TSS0Xu7bHUtKcoud6NlU74AlDifNueg2TRSMK9gJZnnw1/9a1wwjRRASyoWSfK1DUKOKkDOXezzHO7seorXp/FblcB+wMY/uhYVzmAYTwD3yZNAfDAJpubfnNMvRTY3zV1m656hVltDjHsIw3fbhMX5yg35mK6AHKE2yww7Hr2mlY5yHVVBxKAlKWQN7FVVDMlpHBcVXCoURtxGkJRpHwcu1RpzoQaD/3HNlT8EWPUUaib5/MJbI8ioiVREgyMqRxQY5DCTjQiDrU7dZ0fNm/Iw0lsWYM8GZDCfSMgZLJxRc+7yNkSHW7TZir6oMkMxLzXLMzn7ts6TkaRhSW+Hjmk0IiFR+R/B+SsGMWwD0Oe5eg8S8MgvGgZhG4Kkc5r3qMwAuH0jJnoKNMdtQ+HAC4+BPBZfAE7Gf0zOMOEqIw1TkGv0wNL7oTfqLJY+cNsKgjIB9KYgQeLMPAzuMuqvIk1zBO/TTyducxdj/7OcYu7m5ykLI1VxxKLNrJ5FOGIQLknPn5fiXAT6pAFj45Rv828dNbm39Zlg8OtwNnUfq4YcPvSG+Prn9AXDCvY8Mncldwwa+vlevDsZY0vzlNh4OfI8k3NwzEUvZMQ359ihS9uGpkRX7bA8s+poQmqDtth63RB6O2FqWArCw+gpux4wwVY4CSavl5z4d/U5ufsnWHkioMI15dNcNwPhR3NkWKgP1uKGHceMgnnwOaKkYhFimkRp4yckA0RrD3kH+YsE9vcZRhFDHhiallPQbzgYnzqB2RLVe5LwwDTPnk08RcJ9RL+LRVN9u9zfw2DzassVDfHRRM4VDNmA6x9uiZO37orO0nfX4JGpDyV1YbU954+3LDfpC+teftzQPWHpM+jFg1DPBNHfiwyeYajLJMv282zelhGHCDoEkY3BjzEVW1vfb8EGyLxSG7zAcERpXAsEwa+7InLFxumBJy4ctL9S1IMCTD0JxPoJ5ZDhNMhoE8g9cMw/QMRIcgw2BculvaKgzDXpWqpMQUUPhC3XLyCW12/bAyS5SIOKxKEihMikysMxt4sEaUkUozTuJ68skWYl/fHpdRkujhGYDqboZ5WvuZT9hwSt4OM7TfoYD8giIk5hdY0WZZk6wLPojTrDyzCinss08aICEZZGZrhZjbxMYKp4vhW+gxenSeBNWIhPoVJovK40ee+W2bdZjaedpami1vol+Xvt/06SRM0Sa+W4xmzU+qY3zmx+R4V32DsYBq5udrlTfqtIWfPV5jdsyb8SWHDyXyRD2zy0IT5uQTcpqerQHmoMKD0tVjQAjok6/nZOJNeoeucwVuIcT01Nl3IzdOWNVojawGkccCklcCq4Bold3QjXy7qJsUcDXHQDY+lFD58CNZkFGZCmRBekzBoVq0HIZjkFsnfvdRPQq/eQmHbB9JNyO6AXCPPY1gRVcgw0DqTA40VJf37FApmrIMaJqYF3TNzMPmhoGRgK+TQNvfOM1DLJ3hQEWz3aC0mP8xAX0sHuMBBmB0JujNmAdWDLSKfu5R4ZjUN7CNR0c7By8tGxFo+8gXtTyiMcgw1D5Sj1FblQBSLzIJTjcMREgVkxANg2wPPskKvfE7zCCQ5mxH8INWBh25sygGX5UofpaIO4PAjDFSyxqJRSJunuAClC3rrFvQ8DWobxN8aL89pg4yDNQKuvK200fcWiiNT7oglQkzDPRz6DcwckMgpLN2HMk1lFAlU2+NmOmAgjF/xXDjhoFqTOeUuIUeAxaJQR7mNKLuMVqRn6s9zWqgX/QVmJLZl5I6dB0jh4iBI14PQTWia8KkGQc7DdWOfR6h5fc6ZQeMiw4gGcb5CS7FRn3R3EGVlYHGGo9Vk9URAF+cYzRoGTAMqA86ZHMSueAvPckw+PFm8OPo9Q3EoaTM0REFxm4cYf1+1tVBS2Y8j3s6x7DVsfQ2YAkLJ3b8/p/eYsD6QB1haoc5BtsjCqjuF1bQ9JrJwUjQwaNNq+oRl4aBpohWR8I0Dh1sjLWGxBGC7oOTErflssfw5Somu1AEsm9hEyjKCMOaJuS5Yn459D1E42TUz/6gm2xndCbeR3Mq0qyyCEiDGt8wckBStBRkN6N6OBzyPRLoexCXL7DYhkXCq8eQJIcegwWFwXHIAnr1VdS2GYZrOR4NafLZLpiqQ2xqi2KqnhLzwSXDQDyIiAqA9aLHUxxBQ4kB/BYlSyJZECoQ4vHHBC2BNJQoSrXH4IYahdfczIWNQUKInL3QnNXEPh2M8AWLopO1ifqhaVsUZQtGpeElkhyQWUzy81hfrnr2SoxOG+7AKzJDIGIUh4xWDME+G9dgZkwKP1hrAAO2qHJJQ+OQTxszCpLIMMhDmZ0F03MYlHjSh/x3c7kCbhgALJVzdRhqr++jCR7FDnl8DJxiQJ7NhEUelosa8EQCDie4CsQeg40Z02+0Rmu8JB/nGPnkExmGoUTa9vzsKBUdPREkUaF5kLyKIJRBTg9E7J3GX30ocShK+GGnvxMCjHygkeTEMsw9MTxjpGG4HIehxPgw7enRlU1YiIkI5D1GXrkEDSNkrVwyH7CPmPlD3WIYXSb12PnH1opVCWJYJIE+RAYvPDwylv4h+r3zGOognOTHAhkxOeEyT3QQyVWAZA+qcFSGksgVY+bxKmkcmPY89DvPPqhE7DFgGDqPQVeoJExQMNmFYfSYJ8kwlFicY/ghAn7rMcCG2NKzG5nBY+T7iMCnh5ox+HWYRDsJyIaSBKagVEKNKl9mzYP5CeviYq6nq5I0IvhRCJ6CKDjFc+Ou4Mk85iw4Esn3Z5NP7Q8oyDtPLaw4FAyECAXVNGKClHMMqRc9BSaymoHmPQZ5jDM4ArI5xjBiscbJu0Z7EdMdXGUseo0JEbdh5DnCbrbJuyEuVy0i9nkKyfowchk0zHtR7/QY3HzgFjH89tiRktdc7g/kHfc5WO7ToUSpcFcmt08c/khi7d3BKVewCqgsnPmEJ4mEhYGdAul0XkYIPUZeNQFxjrH164wZpNbX6A1cABlGFi85s1VJh+6JM60Wk41ArJ3gQmSPrxmZ+ChqPIaxJEyKHOerEr40C7A9QRf++W/vC47wNyQf9nLYkc6KyzyxLrhtpFlI2BNi1i7+44/wg4Ee/8df5rJdQTGHtiTIblVCo7PNf75LQ0msmOSIhtEODYYEAn2GZsFE7DEiSNA/GoblZtOFiINhFAnFoQT9FCet7KVWnkswamYYjHY2x/BE7ZhVkpOiI/71U4B+WEWaI2xlcNjiz47hYJRsCw4/mMOYnXj8BUb8B75dxIn8ySFP+KeDu6LP47jj2GPAo1oCDXsS9MsMI4Mlmg0l6zKhzffTPFNjlgAlzpD7wnhDm4jTRosFhDlGHsNyJCXOGpUz1teA+4n9quRsKPm4lYf9Nk6ZNZ1vdWdly5zauNtHj+58U9R2HDLSCeedrdJjSGv8sjbPvCecTj6B0GNwrJ96xFx5nSeiMIwiehy+ULMrhh+eAll1Uk5Iy9VKpklgGqTOOvKsjSjExzOfSAHJ5tqob+Vhv900jNtb5jzdMmfatMNi3722Zc7vtthjIAmrJGgZrbfB0nGeuz5p0wyD/xKkpDkGr8/gwKs+TqDP2XK4P9atXq7Ea8e6SuqozTEUVbEzgdfnwrlNM8zogjx6HEosq9Oh5NOWOWsb34b9T2+Zc7e1MIzc/+MtnuDCzvXMeuZJJl7db2e1Xqp6p+dwEKJhgBPKLocFM4wMmTfrMRq+jZyXl3Vxwmq3bhgBPpQES8BeDs/5MMc4fdXS9ZY5q9t/mWFgKMn9P95qcwwYAS8uczDQJRvTdbXHcG8aSmgUOHrlGPaRFM1olie5t37EooTvp++OPYbxM4pH095PQBi3spYnGIqdOYqozzHudRpXWzGURMff3TJnuYXJ559vhzmGVNvwmhFPY/CWINd0mGNIrHgw0DC8Pnjlbl35XuPsFAh5EneGaBjNigXF46FrwulMRvUEV0Q6wUUfb6QxB+XA/+aZzz/YGP9fMYzzbT/5/PnmPYZKSX1xwxQQHXq38uWJgy4EAbvTAoJUjl2aY/CulRVJhDvZtKP+nNMRXNEYmSsNg3cqVQwjxczgAuO3jkM7DfziB1wW1QVOEY9DyZVdZM7r7U8nn8Hhhz/a8NtPPn++sccw7YWhhLq2f6tLdqpe6tnY9iDVDAOsnHx2vGOEcyCPmAwjwXNETIaT0yYnWuAqb9KLi2gxirtwjD2GTpvQ1Y1YExk19BiBu7IqaShYroy0Zc7r7bcM45c2DiW5/+ebDyWUMBiGQwo2LXOPBqiemn11AFzdc+4a7zHgb6cOOu94PxmSFBVRI3d2nJ9o48gTTKCIBlaPIyLnGCSIPQdyeM7o1WAYisrVar9iktJjHFNE4s55jKAFP/iWOT9u/8qq5Hw76TEy580tzjHgCd06/vxkQo9h3++aJlp9AGHhlzjcJcfzP//5z/ul+1qBjVe/eb8ilzWhhh78OgfhEXWYGfE56xYGgnc2KYouz0gIDEivmFcJ5cq7lcFoKSBnm2OYH7v9eYzaqiSqITjOt8yZb/91hvHLPQYQegzqupuaYVx1p6iTijmG2rE15m7pebORc9EwtpavAu8wBVU8EKE+8eofMPGrT+HqKkL6js859e3GW5Y8pq9K8mgEjGe2m1sFDx9Q01uTugwTWHkTZz2GqeHzljnzTYaR+bllzn90Q85h8hlIP5fl1DDQLaOefH4HnM0xiDT5pBXIBCyW7RSxiB09oZfaunni7cNrG2+0B+qrkhDZDYN5gcTCKCxE/jSULIqStsx5f+ufT36oK/rT7t/YWn5K5oUGRxsxkh9ub8FxHEoA1JNOLtvHV1zTbhjaOaI7GoagCLaZP49TesK1EtgSb8vmrV/ZajVOPhkHf/tFhFuvXED/U14hGIZHrp/gwi9sdgi+mxs/ITBDSf8lWwczxSQjo/x4O/YYqMiWH+ThXZtae4qWeoziYHsZhlWMXS9ljy6CkMWQM+5g487EB7ka3iOrZyMCTT2Gxz7CegwYBsx7wA9S8/uTio7dVY+BSLpW4lva1XSaOY9bM/ObOjnliy1zFlvm/GZDguvS8fDTFJJEwTBIkmFQrfjzwSS7nddItaHE/Nx7jwFGvcAP9Qt74tLTQFHrSMMXegzeqLP2g5mGIvtQEqLjmKcUbr2CE1bAU37bsI7pLpByHKotV7XxMSNet2/5FI0d3el+o9m+hMKMwTaSQoB2V5tlDLXmG9ML4ce9OeWT+3yznf5EJH3aoknVTolvLXSug1GEciixQ6imaBhN2/HLZ/wwanbv5rlhxItoPDXGR2qQK9hFAWrXSlJa7DEUdevGAdNxFKHRPfMG6zHIrii7HuMxhVVJsK9/ByfPrv5LgEaiIDIMqS8TCfUjlYcaArIGaHWTaijOMcDdci3TocfwR1wIMwzs7Jc8mTHaIWUn18EwPLYhdnGwJSyQ+RXjcXDDAPVzj4HksKX77iMOBIfySr9AMeePgOHyeGvfH6V4ANO6m56PQRJkf9mdYDr+vIoliX05xzB3qCczDDHzFn4YRjdgwWoRbfIZWHeI1ci/XtaikcEhwziJibhhjgFZhw2GsQ4jH3hysMfI4p5eXYUalHtEcOf14y7jtB93wWObYNKT6m0rBMmln7wEPRDTBdFW9BgpUf3oCHFjju4IHCGK751mvxgjEi0kIe8xKqsSoVm6YeBNMx4zn2PIlSvdewy0XH7uq+t481drz08zN+PiYZdGnHzyIn+D9XGzdi0fsbFcw3I1yypDOo/RLu3Gr18xmViKjzfquAoOQ0mpwbBzGo+u0F1wqLRoZ/KTzegZIQPM2+WwzXoMR+TFIcSVM2wK83zl9VD99LfuUNyePX9GktuJBtRHkOSwKhFTi+njjLlItrjYTT7lwU7HaBiWF2qXCGc1jSci+ZB/qMYNLR6zzraZZj4155lyuVpELj2xRkmXCeuFLx5532PUDIMakGG4qHIgSLZJD4YmNCLMXXgLEfSGgiIr9LIIw5yob9FNtQ+eIUYWKjFMUw94ISpMnXcSoHV5cg2H11g6gT0GhIhbOcfY0E74gAPmTiYlFgVcMHQdG0ArOe2NG8gYMg7UOuVjNjzjwHvxKAzEGnXbM7+Py0gg2Vs3i4HUNMLtMPm0SJ0e++a4YGkAZ6sSwg1DJfZip4hmGPvIjmiMDWp04FUXP1+qnc8xTuKmHsOjaG9u4M4pcW6ejCWBX4PRCP0X/aiImS+b44eXtdoZVgQ162RmiJph14/qZzxej2Yl68N9dp0ZKescIdMi9MBpnh9wPfnktNryl93bnY/rxL6U2fN+/KZfW77vAEVquZBEtvA03Tr2qOapR6II4wVzipPVVMsVHEPhdnkqhgGOUElgWRd+UZYPAYlGHA0DcFLsMWioAJLPnjkKXDqUiaReinMTLIaabpbKJeat8xjihXA48IR6agBf9RgBaNTQK1Zt3bJQkQO/f0mwKbf9NE/8gvT0YBhoM4Y/mEUzQ/0regx+nFvf+Ee5OPHpGjRLHxu7Ud/qBatlBcB1OcdAj4HqQSEQwhMAfG8Or2JNMvp1fI0Tv+a8tqNeojENLbxoYCPsd9hGfiu855c92c/xPT98psvWmnyAh5hgW0keDSUmR80wWGLWCXLHGtLbIXM6RTAMsPKyOz+BaW9ocZqzFRVlCGrgWwXAOC7hcpwi5nOMQ9RoGODkKwvQbkYs1mM1f5xjMAUkm4YS7Lzb7YxAw9Czw6u/Tgl63SaMVw89N4zQja9A0R0oiIqq53kD1BQqiu812Xo+c640UY+6SMiHaw0hB6sIbNztDQNmqhMQ7JzU6lA5j64HG6JjKGHJ+7VB20doD0tcOYQx5qOZqQ6+5KVHcbq5o7hsf5QHFicJ1I1IEtu5WWCr9RgDdMhn6/nkkFcUuzHnA6ySvKpwyHoMKnBayRzbbmCsIagBa8Z25ctFhvmlUop6vSqJPQYG3albuxlqgFJCthI4Rb5elSiWYmKCwHcVkspq7PUiDEx+2ChpGBgqUO86j8bHt2kYMAmM9t3KDgv9B6ZtEorrMxiGaZ6GITnSjW1Gr/QYkoPgsIahi/nIMPgmhqFv+D4M3ozLOQaGkgkzDnaYnH/o/Swb+gEMKmP34PRGF6H5th2MHaopFszenwClR8MQ9pNPqA/uaBh2SPxyRD1XKioaBpwjn4VGjnM8wVWLYQCbsyCmDu5zZ+gx6jDDUESWj1rT+2IsFdi88xkuVyWecYg62p3u6InY90E4NDxEbybYHacfiMUpMl+WglkHP3KuqJygonX7jbIrOm6sodFseZqelYs4iCK7IXBQ0iaGb0WPAXbqHcbaata3wvaR7DrxtgvMPzQv47JGgyh0gN4DlQELZMowDCSHWZKS4us1Zowteo0YX9kAMWFkNCXlJaD7dDkOk0+JS2mhbUaJsTI9y45yJMPQXAF9GzLnMGTxTw0j5MlimAPIxvxwES3lZ1nTB4GdEVF5Yx/fwcUTISElzjEyfJxjSJk6JY3Jnk4PyzYUgglmrLCGT/XxtRkMRMLOBC5qjRqQDDRM0QUNOSZ6VkCysV7TlgyDkVlCJQINMxLVBaaWnZfRGSJ5lDKzYM0pmB0+96wGdvi5OLpkgdwgCiN4Wkw8CSLDkKZjJcnwONJib5GAyuRTBO7cMMjNaTEnO36CS8gi7tNQnow3sYdeB36sPFbB8cxnATcMlIu3iWLtyDMh8RHFMMdgjpLxMJSQjk31FEppRwokJx10qVsSlR4ejC6vhxFOlD9jNI+o7oq46DHAFyPFWJaqeSMphuNAnxFDiMj0yuV7I3MXgoiDYUhHXknwYHhCh8SeifduKkowDNez3PGQegw1U7Qn9Z6BGCMeEIzxgXkJh2P007mo5VBiKWAfcpVhODdbDrJstagX6dZQgp8nI2pE9O7o5ygZ99FOkzkzjIt8PeiCI4UdmMqQMhj6Yzdiv+qqZH2NI++ppDGEyNXlqiMahrDP0nOqIhiGnmqcMLPzyaNFPw4lOVJHa0dzW0w4vplj/Bk8f9sdEAXyY4n6UFLnzXGR4afYZXDhw+QzClIxDKzXMd1lULrysG+AQqjxbI6BivFdypJmWCIQYo+xocfgmMjXznEAs8hhKBF7yCw6whwDILeG+hhVcwyyhX99KMGPhuFRIuDfk0qkfLQXf4qRXIbgz47RqeUqfr4Vk88SWawdPMRC831ElG5H3wHKcEFsVSKESkIaPPnXzi0mNUn3xx4j+YNhICqcTdOPaAccVYx8NIyIaBi9ZscwxpETbpffhhLFriQRDYNOrOl4xwwv6zr143kMlR+G8Wfg/RN/gsF677BhzvtH+MPox1UJhIs9BqePqFeskTBboKJFKw3DPE5yw6BJtSNPs2BeL7+BXAV/hOXJHPiokc4ltV1aWsehRPGw8/iemBuGBIQxsjzm1e5qKIGkcShRapa23PkPf+cogpLHHmo2V/w5Q/hnYeGfDvqVG6Fj7ceds0V/OqI6rdTGEgL582MZEEm527ZwHgO7YBjYQrPzAyE9kzH8bSdEw2ixqOBJs3ac0EcyOn+J0ZD5Y4/hxwDz56uSEClFNsPQsNVOk977jloiQdA8WOyKctpj+C5smXO/xV/yZM+uahcP7iiPcu63zKkNlBjHtvjbb2EXj7pLPBAiR3RGd+HkljltCz0Gg9wwaBdeMXI69kOJfEoxMwxUB99SzBP0HCw9lRixTAHIeqn0x94i7i+i+REHuTwyARHmlmef02T59nkMr9fTLTnt51tw6LkSOtzvh7SlXbEdHWEruY+Oq42vQci8f7CFOQbcoZKgxB6zi4Yvwe74kIdQWZVEghsGIzcdT790K090BaL4DrEF5QnGhq9K6vkSqMFegyBojnEamwIHI6KgurUoLlUOhnF2SvyrLXPadt5jhC3t7m32ixt3yfdpu3qoOXN+3iqTT61Z+KIuXijMDUNMYk1HQzQMVEenAQVL3lGrC4DMJX9EynNd59HewJw9P5CWq4QnE5OKcwyaI7NFjnC4XdjkM+V7ulz9asuc7lGP8XHLnJ82+8WNu+T7tP360+50J8OYBnQZsArYhQyDqq4tVwOyHgMJ2bu72PMYKZ35jI4Ia/TYjR2vIPMt21O4LmtDyTGOSMzGBGZG8OGoCTOSU4q3hpI/3fD77zOM3P/j7bAqoYJ58YZ3FkTDIArDQMQAOmUYVh2sIa8bEbhD4U4Q8oRhTFhvToO+mhGR5hiWQplOsGTPjzHz2PlyFRGrQ4n9/mi7ZxjfbZnzO8PQqiQn/Hwzw6DGU48x8GtJPdaOMIw4SNgcI/zD3hB6DFpVO/IkRsN7GIyITsR5y4MQ8xynde0m+5aDjJOQYeTshS8KXId6jMR+Pvn8oy3NMf7SljlvbH+vxyDaeW26gVfSDl8fcESnOdIcA3OWHjbr7+g1uGFk0QmP6VwYSlosc9dpwKSXNSh6WK7uojrh6lw2ol+dxwDDHw4lwfHXDeO77ds5RuYsNzMMY0gNkDrnkIAal4O0ynI1EuJQwmRmftwMVsVIghtGDXaRmDw670k+/o2WDKOOeOazjr87xwiO/ybDwO/bN+pkznKr9hgBqmpzegNkrYV9Bu8xxNv0I786wovnHndnGLknGUY85ISDYZQJ6QzaKe6cEkd6SRdfbcFxOcfInP/QdnidY+Y8bJnzuLlhMIXrIfts8kmkoQSVOfLVe1P2EQE3jF0cQzCMOuJ5jDKu+z70GJnAjPA75zHiFh3/ZYaxn2Nkzv2WOY9b7TxGHfvJZzgQ2RwDgxCMjR9QjVNIN4wYOUaEANeGkZ3HyHIL+DSUlFb1F4cSd+62zPkPbfjdHkoyZ3ULQwlTvWMYjsxJdzIMPtTC+tp06d5oBXeCqB96DBhGNbKI93sM4pcNwzbol3OMPzeCXzEj/H52gitzhi3NMbDAdJ3VsdMz40ZEw1A1x7oODmcNMbKYH/K0OQb488wivhP4l+cY3LTj5TuDHbN9CPgIZ8QhueLB3YbCk8MDOizrXDw/3NkyZ9guJ58FdkN2ARlGre0bjfyHOABodwzD4h4TuBZYd3BlOf++YSQHoYO5097DzhCCVz295nBiHhXuzJuH5IgRXargOGyZ83T7xjD2Ailv/mQYNbswiMX4DzgdSkSXYTCaRQ0JOOWDwPtVye9OPvMtOe3nrr0jubKD9p2uC0daOtCRPHZM28Hhhx9tmZPbzjBUHdjF6tIMUrs0+dwDI1s+lIR/wMZv4WfIkkDMOEUFitgM+NhjuHh29IgE/a3d2hfwV+YYX21HR/B0f/dcSOY83zInt8IwAO54foo/bvyZY3fpIRzlbLvIZ1HoM5BifU3aJfD5O09fP8XzZPDf3QzMXZYAIvMGQgNcdldbSIrPheT4LzKMcsMv9Ri/v9kvbpnzcouGAedn3GI6x4+ix0j72Hu/Pbx9hPP9xaHkj7dgGO79G1vmDFvmPG5Zj0G4Eg84o5/glD0EFAzm2cc5TSMBLPYTWtS0wYnmDa6Tyee/v+Enw8hpv79lzrBlzspWGkaC4vFXYO8PqLAaSPXAkiELcF/uLxBpdJwzoMeI7gp+MpRkzr+34ffbQ0nm/HJLznTmEx7+jjC6B1U5DAwK/yqqAU7chcV0qnEiEBoZzDBOUTeM64aanNHxV7b/csMwSNFK25xHHMnnvI4Yao5T5l3AKXctgbphkFPcpz2GH/69DYYxUopCksx5a8ucv7Ilw5As0RlAZxYSUPj3gWe44ivDMt/OGf4R8Djt01ByMfmMjn9la9t+xAKrlCJz3t0y559vwTDg2h+D00Fv+OeQ34k47Flyd+kx7PlznNEZcAyr9RgZ13/b5DM51+f7/Vafsdsy550tc/75lp/H8GNyJATSPsj8lQgF6rEKFCR5jJLvP8ANI/GWsT5NPjPnX9/STtv6qtrFbsuc2ZY5f3dTj1FT/IEmQqQGx47tEO4u7nasZ4j8+wjw2i/+A+QuewwLzpj+rmHwBJt+jujf/RxyuRcHTD493GnBGYlnPzvYGPq7W5p85pquQhL/S6AOXIwMIgV6ZhhGKiP8fCjJnGfbwGs+9jPwnHx9s1A5QgQ7KjD5k+viZ8eW3xlDaaM4v7C5YZQ6PELh6X0Btg8w6W7CmPf8dSoRQnSxlHJURDVq0WMYV85758xn5jzfMqc27ux5zJr8l7CSmSOg7jwF47th2JY5/2SLPYZSvITutgql///au5ZDaVVmu0fm4NAUjMMITMPBzqDnJtLjnYJZdCh3rSoeBQJi7z6P/9xv+YICiwLLorBtjDK70KkSgSCncEeKoZYgVJdddwoEktcroqgxpIrBuNKy6pS7ktQemGB9MUEusstmtRDhddWjD2hQ4WOSEOJ6dGlKUNhwhr9GMcT5RKAFSW6+hockVxmtQqyd7rgPa4yHzYbK8G/qeVGDyJ5WsBiED1V9DHdIFxNsLT4gilGTXgWT+RMly8A/WMjr94Cr9mucZDIhRt3/J1zzMZknuoiFO9cphpflM0vNx0giAOINxUAC50qS+ZGlDjBvrp7y/h0YMAItlKkMmf2Q2aiFozuDSwPFF4WsmIliAFkV3vcxZDHB85LOnMWK+RXbOI0zPx04zJQPlBlVf6Eh9NVEmYyaskpm7od15d+GIS7iCgjKvEWwBCvMZ5bsR7QiXAs3FeM1Tcixbce07+xv9Z2kgVP34CxtE0AqzvxfGyo/8V/MjEoKsktKEWhGZzEygEIiNqMY52wNi5EtJmgXEzwveVdigZI5TzNniGSRKPiBzMM8zNJQX8vKz8/Ct9YvPQwL/3fF2c+kMdhisrT+XZV0JVxM8N3FWAwBKObgIdGaYoj4y3OaFujB/mQT4SJOMysLtWMqJ7gVjDpD5MhPn0nlyZIV547+pXA8gWQqBu87EaiEUT5OVsVf+bN7SzFwz7xe83ZsK+cKxi2zcLrY4cmvxDJZvifAbNIMnLGXVP0MkAxF+cY9IfQTSB3RKkYYWX+7JBYD0eQo0AgLq1kMVGEcp4WfNxnRWTylk0CXOY6ISvU5IT4rCkaSXeZcRJvQWsJMQkVWKH299sSwTM+fnyfzSM4UoC2cL90LG/YBvRbjnaXpY6hi8OPinEmYd8kIBef1Z+zrOJYnRcUdKlF56XzgxxikvYb1QFr8L0YJ3mJ4cT6xZBYDBG1P7jUUjhXFkAryA3kTp6XnjMas0Rdsxzpvz1VqNMyvHeXgauiNsE1yLSd/qXBX4FZq1h7WYn5+/zzlLS2+oRXe1NJ15LMElVMPQAwBNR9D2+F3S8NioE5QjG3izC5iMVB79ApoEd4vTB1GWFk0mCgGX1fUdzPQ2ohyfnLcX+vDf924hFNXwsUE31msxQjtaBpUg7Jv+BioP2f05beNxoOTiPN7l8M261TsNJ+vVRSQM/KhugNfA0WvqbNZDHKXoPbeup7BVqSPgSaw0uXwSaUsxa4kNkRpMcGLJfmsYAb/cbjXIlPJwHwgM79uwq9+sDsd9SsBnL8W9oGt9XWMvNrQEc4yBCm/OLttFa4rcbK4xQTfWaLFkMYUfiEmCKGmYkByzltyHJIJeRf9jtXGmaP5T0POyscOBw0z4d6g4qAN5K/PnC2Fjw518usaRDFqiOJ6kJJQ73clcXe1cCI6sFTOJbgkaogGxa3gMT9IBl191FOLIL1oMWqLCbYWbzEQig3pjx4abysGpWc6MrqQ1oUxWRw0aEgm4NYyEsWARHa1lAQmXlYMrO3FBBtL3WK4KvktQhIcyTeKO9gm0WAIFFG0GLXFBFuLWgxpv7gzxxi4UIwUvmqmkgpEdDVkDTmyoVug/6lbjChjA5WuBCd/YHGDS93Z7YQTsZirCuTOVuzSUclnluBjSOPGnYMn8Bj+35NJhtXBRSIhQmhZQitftmIziqEChdVSTltAzfnMFhPsX5rD1b8eja7EBO8txmK4vYLhjEof6J+D/ohWghW7gb9yuAofkn8e5f9H3SGJKEERybqmBNl8OINL8otdw0TP+RJ3d5fUYiR7wAXcgZ7zPwQ+OPRS4WhXSznB0JKuBB1cxWL0LSYoS3qwiw2EsC7xENZALC3+IEN9s+jBx86LCfYvLYvx70NBqpzEuN8S1CyG7O4uJihLerDLOVBeTPB6MUEsevAxt5jgW0tmMVKUaP8QKIqI43e6JhEXr+Cv7UqSg13OgY8vevCx8mKCfYu1GB4mJsE0tQhkOeUq0SLaqSnuZLR5k/PyUckGxUAO1ww+8OaSHuxyDvwjiwl2LuEB138dZ4shmqPNcGuNJ9xZTPC86PqJRdfSUlyLSbI7KQaoMYtADy5SgM+c5FBiBcUzanCZ9Jw8mCJPYMQTKorhzsnWM10pumdAD2EtH/SY0Bgy4bCeCO01P4Y1j4c1jyXR82p/K/lvI1EMjkoe28pllY07Xe2WrbqTcKCla4kQQ2E1wbCeCFdrfvSH2orNZ/abXw2TsK5PpfMT4AKEJMJdpAJKkOS406OEHHyCResMm1bZOfhQpGRggk1EWFahramP8TU/3VD4fxf6+MA/RDg/TEjTCRfmAZtJaQVHT5Kf+nw4LEJyVKXLQeDDIVmDSjFEIkZNWkJ0SEMSw84e9RAjIeBICY68K8kUw51q4UknXp1497x30SNrlm6iEoy7/zc4+EZdBHwMl9AJtpa2mG03Tw00mxiQpJY2RSnFb4oYyjDKc9E3UeXaTKrhjVPewAdKcSyuLMb/Hqbn98YH4sf+wJGE0JNCTbbnOjFR1vWxynfHgf17Xpb5sU/H+tj4NcRj/Tb3CAjT+v2Y5+mYH89t4isR2xOnoCGPJ89lJpy6zOuORXbksj12HkSmXvw9OnSBk2JcWIx/hdBNHI+fbdl+9mP/2ad5nZd5//55Pn9+Hvu2f38/p2V+fn9/b/Pz+fh+PJ/fD2gKtQkExknkJ7n3n59vrrLbj/Xne31+P7E91geO8zHt0JQNGgCmUANRrO8VevN8/Hxjt0/Qpsdj4zexHpAF2uRE/Gtx6xK5zOdzTl1JYjGS/B/VCWXWZsnU3kJDPlyun8e284ry7/JiPR6PaXr+rMf+vYuFmHABN15yuezI8+ThsT+fO5bnzkt64ARYFTEt3IOBYynaAjWYmAvjlJWKscIQAbBCP08Ym+95gu5RSZ9QCjnFndWJvN697fAbJGVULca7kjTP+xuqh3v/5wGL8NiesBwPXItp/oYe4J7lVwehMdtBo7DNG/QBg09ajAWXEnrzs7PD4WWlNkENkJGLdAcboo8nVhqVn3nEBX8wH3JqPwFV+H4e7DXI7fm9ooP6+XlOqDSIiJWrf69Nktwx0mbyTuoHfYx28X8bJnYlKy7R/rPCNNBp4CWFujx2XGxcoAN+wPc6zTM0YQbQB9AYIJtEN2oT+PALZ7T/6Hl4t8DEQCdgULAT1UEOqJzYAu6hJbQW8zbPMC4rGMErAdcDmSSPaCDBhio0liP9qhnjySc2lsBwu5zxalSSsgghT3aEmOMaPm/vOY18IckG2E94H+P54I0645Jwsg34j9Ox4eJTU45535/oPugkHrje3/OxgoKbft+RBaZB7AN21B9wgcVgEoFcM79zTDq6GJgJGCMUvX8jM3ojdB5UIXgXGxQUJ0JZ5lUMTIJG1Qoo5/4EjxIaFuNekSl4rt+uYXOXz7rO4QED8fO9Y0iBABzPx3OCt/A8YEegI/RD4UCs2Mulx7VGx4DhA9yPDddU3AGQYE5gDgh+S1X6AdEaKBJMhmgIHFzaDXZNHMGgg0KeH5imY6SjCsUhoBhQDujlAf04KcZHUWiSeis14E66Oyr51yGt/EhVwIgB5ltuePQOsBwP+I6P753+JseQuEQ7UtB38ELC34CJ339gJdBZUA0w7kAuAvqCjOrBztC4J8YiGGLAtcSlhr6II8KeAn0F/BCUJGdGxZhFMZgMFBUjkV8jgcRAku5Qonm00koo54c9bI5KCjgxcoQuge5K/R5YCi4gVuwQlmEiwhoAODLBPexyyFOLGR0K/61CTNvhBaUecPRBICTpPp+eKEMWLKSRLzHJIxPiQJHcGPR8Podqc/a1czPX9A9ZjB7RmaeriiZTDLpLcwv1c7q4ZZkKsndVh+jOeIF3+YwnxfjNk09K4bd/HO8I8WvB7zEo5C4x6KD1lst8p7zFk3/7W0kHqkL31qaBD7D4Z/AvETwVw8aazzGY0W8pMuo5Qwv3cqdlIVA8XYnFpG7w7DqHNOV3Jb2LVqm/k++U/yMWg96Xrn5JVrcrQgTiLt90l8Jz1J0tSaIMEvmZGi/wAxKq4ZYtQnXsyyizD7hI/vfAC3rryWexdvw7P1/UczsNuNVHX6O26m+aZ+L/hyLvuAulYB114HCJkiCsiOeqAQ0nZdkf8j2Ty1odbjzCjH4zIXmLB2uf6CcId/92kO58ROCSbo6J7j/HiCU6NGY7Cni1b7cexK/iNzBoI7VQTT26KuIyXyEp5UjauAzO+uGyA/UqnFOOrpZ5XSpGyvn2c4wzpD2rsiGBq94Oadn12pcwsYhKMa4QKEb54aIrqVlgq31dCstwuW/h0KmSyMVuBoyKUt8Bq4ON3DN2AtAMOVeMpC0KkbeefCZ8WnOXKJjh77QYKVJhA0j2myBTDEZ0ToKEPLjct+AUQ+FZJmyJmmIkUgpsjFOunFidgJpE7gmzGueWj2HOYTBlEdFjgT+gGBO4XLZA111Xroi2b1KCRhJSv2KYUrKuRBgmXAW2KwFqzX1ConZVOMXo5Xr562oHpyvFYBPAx+iuqIU5iYpxiaAYldJaQpxvvGwWE6KlGAXmSir4GCljiV29oFqWnRZDeDRBi3Fi32qMe6MSwYndqfFOgFiJy52zYDzfdGfQ1ZW8ij5GzqqMUIBeJtZLp5oUokOmGJ2ckzYeONtgYQat2z6Gwy2L4ZDInVbCxSo+Rl+FFdW54wzcqKQhzyX6LIZVjHoBpRTblUAbOLPkNC5bWzEqyPgHxRBWw37AOowyGZ1QHbKupIRija4VQypWHsgnHGPk5q+r4UQNuOivhquJYE3cV4wEvqBqgdGHgy7wM9EHZ2ndxylp94JiXFeBiuGYg/e4Q+GmYZunzbW9piVdiWHa5t/nfKIMWow6q1PKB35dpWK0RGNa2pX0IpEWinHdAN4ctxuzCLYvChBpKfA88kptnEbSwCnGPf6WxetreB7jNg3zIEZDSIIOi1FEb1dyi/3lr6unFjg3SWZsC0COtxQjwT3n04HSFi+iTzCJ9sZ7ySTVx3Ksx1pSjEs4vnrIFWP5gsWYD06kLxRFy/kMYiZ8AQR6uxJ3BhDOFthYDHf+VpKyAgzhV11JP24rxklmhxrddCVfuJvX48Vv83MKb6Mxv3Y+X+hK1uOYhmOUr3CQJAlFpb5G36gEhWTcBUkRaXn3RyUnmGZjHXXNYBWjr8IOMXNXV1IelUQUy3bExGIw/Drk/2urPHN1iIrRYpVBFEOY0HZC1+DCyI9zcEMdGXi3KymM10DQNUK6EiNeKulZ7pbFKNfyhMRioEVlrlsJK0V2eVeS82bcbw5Zli6L8ZHhqsBGTLi3KwFiqambkrA2qHUljk9gl9dGLIa2shw8exd20aLFKMGx/4DFCIpBKXBDULzTdwcKw9VzFZv4hWL0QRTDy6xHfismneS/QzHOtQqKYVmF+8fDWAzPoqOBQlfiJA4BMw81kVuMK1w9x+hgFS0GpDg4hxfV032pyOOGj1EpsqsrefchEQHFCG0JTwAOxnQM/PaQLfeGxSC0LrErEc4LhsHzNL5mfnBBidxdPfmsIpo6BOTbSTjIxPxG8oLFSBs6a/ZP/boqQKWP18KvOE3Hy0yMi9DnnU9h78sIx4rFaOh3SDLti9BrhlIsg0wiGxKqitHgD8SuRDgNx9cxwc3Ingy+q9TR+aQi8MUR+MzDss/8gJZLcS0TxEzlLUlfsRjEObtSIl1DvnAcMQaDSrwOvnO/2SmTPz9c9XeDKQTwimFkt9UIYQZsAhCefMph5HOM+UADb0kDnRUjY1OC8TEwWsWIZ5jnbeEHORxV0Od85sWloxLcmpt8o+TrtSajgpqPUZX+cz4GmxSGl0Xx+14H7WQU7c0f0QxMVyKXTgvUeyKU8wsfI32A+HrNqM3C3zXoNQUkitGuUkw1PgZXXEkMV0f+WKIExakr6W2xVHB+J4ufujEKzfRu51Nx/evqNUJXIuUP/PIQSIt+xUmAY9KV+BqXal5tjWgxwJgvq8lHYJZNKQ715xghVivAPfl0zNi+8jvXwq8MRTR9jCrr5BoN+/IFR4BNJJ9v8uwbFuPM2FCsxUAB8yw/0g3yYC6KfvPJ512LYeQJwWgxcF34pa5x5Ved+EHAiOKoJEMpNdJMVwJbObDmpK7yoUGPosVol+oRLAYP8g2eFy9pUHtFUTGuCvCKIWogT7XmCf1t9kGTovPZIXvSlVAxsBunDeonBAdrMVKm5SIaPkZEWzpftjSohKQx460AvPs+hkHsSnAAv1X828xitLuSIEJJltiVwMBLEAfpqQJ3IFeME6ci69DGYCmul3zmBgHHWg6p81lvrjzFKIayI18otYQDihajXsinRiWugklF7d44n4kwjJykK4ubdCWv1/YcvrZ9WGbEfekIfsDHwMFfNB+MaHYlNVAxEi6sgVIMWRWjca2KOD8SJ2eyxWa45z5GWo69Dnq8eo4RcGbkSd7YihTjrgNW/RkgCnY1XHW8CqV4GMWAa49qyjdKDyiGKeZ816Ucz/EAVQzPCr0VTOELYwdaDVOAy93CqYjEYpAZP1wuljYyButTE1VlTVNsX0pbiiLUw2BUDwhkinGFD4xKrFhf42M7tgdGq+jpDG4PV89tErsSdKE0xNgGjPscTdFtMcg/KyN2JdwGfmoerj0/NG6q4hSjfslKMM4nmL9eEx1z3uhSktK9j3GPM5FZDGoc9IJfuGbMF3DzyeenRiWhdstjGpbnMvAzmIGKY8Fi9EkZctmuRHdsY3vRAK8YJd5X5cUbj1q3Tvxw7bqMkzaQS3y7KxGQCX9A46zkw7HT/Yzyp9bO40JqJltT9xqPie+SQDlmWI3IvWAxmqy7LEbGIYv6roTCQX2XZeaEZJP77rTKZn9dfROJj6E7OST4hY/B9g3ccOHGHRXdJ7HMjoitoRj1dk4sBtzOF/i++PV6XL9YBe1Kilzal9BaDHSu28BXVeVBV6xQ5nymDG3Mh7tGJRElCWPhUslx2/aJdgxhSeKu5ny2kGWMXQkOfHwDB3T3BbiUyl1Xhy3D3njQ5G3i15A5mCp0JRku6pQ4n7xaCzracU9s9Xm42t1Q0dSxlGOG3PMIoaNe4OgsRs60WshHfythu6ERln1ENyofYAZkn/sYKo+RKhWwJG7SldC5en2tK78Pb8uvWoxqA0T49mUroh0nOBfye0a88Viwy3wLxmKQE3/nwgVUrY5oWIwApuZNlVmM6QlzQWsxGoVhoe6ETrQsRkdjEubCSCPCCkMihAy0Kyky7CzF3BcIDPs6rfO6L+piCU0OBcW4KsCnowDKLWzEd4GPK0g1vxO2VNuVgKvwtve5wliMcHJX46Sc5BrIR/6lo/IwXUkf0/5RieN3EtoXzyM2iaZqgXiPj9EWOFoMFKHDsZVPV32RglQxigxrpcQHXMJP2KqtMOxLiqEMW8LnFkMWCbq97JrPMTKyjeajErI2vB26LEZk++FRiQiEWlM2bQ0lFIarrYYEzslGMXBH8IHva+Owb7C/Xt/1MQwyxRj4jxIMTfgkQ6mCW12Jr4Q0BblgA1c+xKfg05bc09lzjIsGisgVY5y9FXVFyr745LOBisXwUvVIl3QlMhDDsqP7V5LsMVztrmgF0fnEEV0JhmTbPsANoIq4hGAxssJ6yhbF0JX1GGf0IduxzEt84whJUTEKPAMpS7MWQxXjNWNLNK76HONSdqsY5LisvAisgnjNrpDu4aqj9oxKirL6zXcl2HOdnmjL5wgrL9SAzuFqXpSJW+eTi6yiiEJS9A9X85KsxSD/eR+++LrROLsXdhXZNAjK5cQrQpKiYlDmgT+qbgd0esRNRYqmFX5dbTB2YA4jOLHwTRiSErJYjDI/UrMUuLSfGJVECV4TfO0RmypGSEi7EpXCyeJFykQ7wVZfVQMEbYGIfsU4I1GMcZ6PY+IE8RwYBzJ7yDZCNUx9QlfC/WvZ122cl6+BD4djmR1PPn1alocWw/BZJnWZZ3S0Hij2Zifb+U+0lrhJVzI9xpHK8abFIFhWobxkuCoN/HqdJsGp+xitGiigGHKluINPP73QbeASop1Nq9/yMTxsV/IFhrBB8/g1hofWiqrsF6Jb54gdCF/sg5INs/XK1GKcUGXd/ifa6TQSTsTk4ryccdzNbxgkfMTHsBh33Cg6VA/tgmBuMU4S18Xw7auHYUIrLzOfiAf+CJwUo8QvpxnFAJPXwZcxIDycRLL27LPnGHVBE7jnGI4J1FpCONpXuBi/aTE+NCpxcELhbo53g9KSriTUurPyAjSlsCI32Eu63rg/Vv7ERY/OpfR1JaVyrY8BvNCN8K2j1+H+YapoWoyMbYgmigHOsPU4jtkP0PmTzyZMUZnzKQxf4/5M7yRjMWpiJuh5jlE+MyBcFULFikF/fPO3ElO0qSf/vTIMGKwO07rIPBOhrPd9DCpGFDyEPGcCYechXjRJBqsYws8xDbwl0PPkswij0YG73xxQNVqMG8wrFuOOeLYreXG+kRcnWNQfiEiSfbdiVEsOisGhGLgO/MMHf92XcYkrLPTT99s3sxhg5XrFhGwtRncZaVeCRpKi0uKqFsOUUigQpHy4Cv5onUxuazGIS9lvPPkMEKbcKXcvAC/RuKzzeOzwgI7wzqccjY9xKVMZpithUTrxSOpgkeByX+EsRLQYxOtreU58rMypLByNyTedTy2GihFZQ0iZjgWtZUerTqnvtk78rYR8hC+Hw4vaUc8eoQsfIy+35znGBaLF4J3M/2Osw7xwGgElyr5tMXpaw3YluD68JRb+31jbw+GdrsQXHiyGHpddK8YSAv9cMcqCnxo5bWMqBtwjzifrCpNdfUR1gWjqGBCnE8ND8T2j4OVRSSZrjJwfiZ8sRrnuBtJ+kEBa8Hhsw7Kyjl4xBLXhf8Zcotz5zSCpPsN6xVzEwSpGdv4lYgGCg1/IA3V2ygfgULQYVyUFxVA+w8aXgOTHcYk7GB8jMNRAgb8hma4EkiK6TPOx8BvtUiMvO9WuwKiGpsXo4+NKBvhu8gqpxuUx+98kNbXx62ovosXghZI3MhHEheLBpYS7rl4SU8qpaEbhwx3dJG7jiDuNRI/3JoBN2ljxGvhurIsIbo1KDJxiiNi6zqCsqyOSjl3NYpzgGqfPx2he0dCVUAT5L+0wTwu8AKUCosgud0TKtFkEkXQlMlzFcFJ/D5C6C4rmuMz6RE3uL/25AUCvqCSFNX2dfI1iUFZxXOQpVPbXm8zHKHMvwHrNLADDYeyf6cuwFz5GXljhkfh7PkYQbdyPcRpf47bv/D8aIEnvvdqXiMvaCkMc+D7tiGukl06aQ5Pe7qfT9hXQYxrXx+R5C1xX0nvVNJ+xGIHXsj71L0EBhd9KAFdStcDofCpz/k0fndUzfz+s22I4VJ58BjmiQFXRgsUAdOSYtrCIW7AYZ1SLIFLnc+eHM+X/01KeL9H4GGSWMSzzd1Q7KnFHOaTVuTkqUeRdiTK0chPXv5WUYbsS4chVDw6SFG+ZehEx5fxI/Npi6NmRRxRARIJzgf6ZYZPw7gMuU0ziYxwTZyng30uNvgC/fMDlINJrDUJTO6SKUW7iEzUqhrAMHOOOKFuMDJ63KYOK4ZmQswjNsBTk4SxGWeICPvLrqgjkpDhWWDI+drJSpYrRLVyC2JWgynDchpG+G/tTg091JRhSTl/jMhzbyN/GI+LVy2vRqJW1GBAdhg6k6Tgmual8sW9ZDGZPBOev7tIMjrtH5mOEYhjwm8Unn2NQVadv6O/Il+OT1xiuLUYUrCJqYjG+jk1M1eAUwxflFSOcmzHJohaqGNh0pfZB5nU4+OZuwK+7Egh/YECywLZlfm2m1A1RU0Qfg0KPE99sNyQBSr15y/RajETMVGZpN929lnnHlRq2Oe+w3+1KIux9ITUVzgkRJfd0JUZ8WxNTAH+9htUblmPnpDqOSrQVI7DzAT0mXckkfwSa+KzB21rFu7+VJIrx9drgLo/TMCzYTOtE57OvhI8++aTCPg+48nzkS6H8ZpxPFSttuDpMetpnEKbaHl2KUUGqeegO+ahh5XuKjkRYxTDCtetBxVAm3L/WY8AJG6cetjr3y+cYALkv68ab8Ox90WIkYl7I3HiO0TwzJvrKSdXHnXcaHxa+PGOhd1iMtqAFxSigpRiWf6EsNyoRaXEYZplNR9+CckTgA6MSUYwBXYmLe5wthg8XpDWkxGJAPvgYIFnFoPjpcLXAMcWNt8SrvKRYPRsK+4SYnEB92txzDEVvV1KXGPWM1ycNR2Q+xmX9TZbE+eRPJXw9/PyvIJe7gHphmWLsfICh79FY7r0WIy2HzzE8F2r2Cz453SJ0WY6quO1jNCwGUahtTrLXHyorlZWbz8IoRnZ+vT1T9FmMm9U3cBYjgp1hqI6HfyTupO4TPlMMGUdyHqcA4a+y1zjWS7IWA+A8lOSfuEYo4uYDroqP0VVhlylVDLfFg6DvAZeiUvZdxSiwcaRyAZnFoPhyAU09SLrXvFpUphjKMS0NeE+p7ZNPgepdxh4kcrc1N43hN4ueUUl+ToZchAwi5MUj8XMJZ0rWlZRxfsB1ITzgcmQWAy70CHbyc4YhV7oS5ZGUZSK5xeB/Vwd5mdTW6MaoJM1kNFpCZGsZC/othjK/OSopiU2LcZIjg1eMrmqX0WUxbj75TMSR9sXmVgwalnFdx2WOqs8RbIA7uaNKRjHIeZw5SSunHfLWVgo4+xiedbukzGJUUPIxWqJf+RgOLRZpX3YGa93blTTKuaUYyifhViClcDee7DEooe+ce3DBYjTYFJBYDJkcY6CPmBn9to9RAbNnfWAZd2+ZD/y6ei0W6l9XjGZLmMSuruRDzidfxZj5EtQ8L3xW54BAdVTiJC3WJigGGLyWceZzjHFD46PtY526fivxMOXcshiN1k6TOi0GYU+04TtdyQ3kVfgruhJbSuZ8QjHUwbh+USeX9ETwiqEFvKAYMt0QX2c26P6tJMtyrRgs99fD1V89+ayipyvR+lYb5qZiFPi0C8icTyrGzjdqtlgwkuOopCroGUlXIoqxojcZ4htcUu4tixFwGpVUcNv5LI9KfK1btfdppjXLYIb7FiNHV1fSazEK9VKLEYp4HV86h2r4H4Sg8YArgRbgiskUY1peBx2M4HsqzhbDhwvSGrzvfDpE9qagTouhZ7jzMjn1GVAb6ErCWScuGb8KuixGyceosk8Tsq7Emw9LRDhVjD7JM8UAhGlSHHDHP0oKTgWv4NcPuOo+Rg1dXUmXxWi2c2f1Xe4y7hagFEt/b1Ri7ulTIYHQfo5RLXF822K0KtExKimfbqjn9vTwKbj7yorREi3H2xaD6CkoVwyNRiJCyXOME0IhEjBFyqWT04tw5HdHVC3ukewUo7vFuy2G41hgfGUxKJk6n+HkbvEM+hTj7qjEwCmGad8TgRUJsJVoV0i7koRPIWosRoVdmez7wMAwCYTtsmVS7p8ZlYgo2GWrggHrY5ShyXkmE483dOB/Xi/vuqIUQpT2xZogxp3PceV8FvkfHc96WrInTE8lZM5RAUz/9QOuYDGKVSzBK8YZIItM1a7kRimLe8OuUpQDv2dKWLYM9xRz8OdUolBEKPvmj2gKWAwy4Olc/TFSsHJeTpfdokPwoBiGm656dOE+tQvR31uMowok6Qrc6D/LbXHgkivPJm6Uo4il4WzhXi9CkyuIjE4VoFTXCkXW5brnSHP11fluy1z7GH2yfgAXBf1ajr+tIn833qlY8ZxARKA2KvnPtuIf9KH4TzTVCuy9emiwuPbDZY6HsAYwbKj+aJDHa9BT7VojvgGeaLnoakKCLHoT4eywfgTko7wCX109fCzvSo7nuq8ODLgIDrXVbtlqESnxEGmCQBFiMRhCjVW2hCKEPGwORTCtsvHgjmF1pHDgLk25s+lBQzGegHG36Xq5yV7XJOJI3PxhX3f58yt91z/4gz/4gz/4gz/4g0/j6+v/AI2rk3WPlSVnAAAAAElFTkSuQmCC;" parent="1" vertex="1">
          <mxGeometry x="432" y="-821" width="448" height="520" as="geometry" />
        </mxCell>
        <mxCell id="Z0GZOSxspQHHXp1nHWNU-1" value="" style="rounded=0;whiteSpace=wrap;html=1;fillColor=light-dark(#bbbbbb, #ededed);" vertex="1" parent="1">
          <mxGeometry x="-60.5" y="-807" width="439" height="152" as="geometry" />
        </mxCell>
        <mxCell id="Z0GZOSxspQHHXp1nHWNU-2" value="" style="rounded=0;whiteSpace=wrap;html=1;" vertex="1" parent="1">
          <mxGeometry x="-61" y="-468" width="439.5" height="167" as="geometry" />
        </mxCell>
        <mxCell id="Z0GZOSxspQHHXp1nHWNU-3" value="" style="rounded=0;whiteSpace=wrap;html=1;" vertex="1" parent="1">
          <mxGeometry x="-61" y="-655.5" width="439.5" height="189" as="geometry" />
        </mxCell>
        <mxCell id="Z0GZOSxspQHHXp1nHWNU-4" value="&lt;b&gt;&lt;font style=&quot;font-size: 18px;&quot;&gt;地形因子提取&lt;/font&gt;&lt;/b&gt;" style="text;html=1;align=center;verticalAlign=middle;whiteSpace=wrap;rounded=0;" vertex="1" parent="1">
          <mxGeometry x="-19" y="-804" width="140.5" height="30" as="geometry" />
        </mxCell>
        <mxCell id="Z0GZOSxspQHHXp1nHWNU-6" value="&lt;font style=&quot;font-size: 13px;&quot;&gt;坡&lt;/font&gt;&lt;div&gt;&lt;font style=&quot;font-size: 13px;&quot;&gt;度&lt;/font&gt;&lt;/div&gt;" style="rounded=0;whiteSpace=wrap;html=1;fillColor=#f5f5f5;fontColor=#333333;strokeColor=#666666;strokeWidth=0;" vertex="1" parent="1">
          <mxGeometry x="-22" y="-769" width="36" height="106" as="geometry" />
        </mxCell>
        <mxCell id="Z0GZOSxspQHHXp1nHWNU-7" value="&lt;font style=&quot;font-size: 13px;&quot;&gt;起&lt;/font&gt;&lt;div&gt;&lt;font style=&quot;font-size: 13px;&quot;&gt;伏&lt;/font&gt;&lt;/div&gt;&lt;div&gt;&lt;font style=&quot;font-size: 13px;&quot;&gt;度&lt;/font&gt;&lt;/div&gt;" style="rounded=0;whiteSpace=wrap;html=1;fillColor=#f5f5f5;fontColor=#333333;strokeColor=#666666;strokeWidth=0;" vertex="1" parent="1">
          <mxGeometry x="31" y="-769" width="36" height="106" as="geometry" />
        </mxCell>
        <mxCell id="Z0GZOSxspQHHXp1nHWNU-8" value="&lt;font style=&quot;font-size: 13px;&quot;&gt;曲&lt;/font&gt;&lt;div&gt;&lt;font style=&quot;font-size: 13px;&quot;&gt;率&lt;/font&gt;&lt;/div&gt;" style="rounded=0;whiteSpace=wrap;html=1;fillColor=#f5f5f5;fontColor=#333333;strokeColor=#666666;strokeWidth=0;" vertex="1" parent="1">
          <mxGeometry x="81" y="-769" width="36" height="106" as="geometry" />
        </mxCell>
        <mxCell id="Z0GZOSxspQHHXp1nHWNU-9" value="" style="endArrow=none;html=1;rounded=0;fontSize=12;startSize=8;endSize=8;curved=1;entryX=0.5;entryY=1;entryDx=0;entryDy=0;exitX=0.5;exitY=0;exitDx=0;exitDy=0;" edge="1" parent="1" source="Z0GZOSxspQHHXp1nHWNU-1" target="Z0GZOSxspQHHXp1nHWNU-1">
          <mxGeometry width="50" height="50" relative="1" as="geometry">
            <mxPoint x="181" y="-594" as="sourcePoint" />
            <mxPoint x="231" y="-644" as="targetPoint" />
          </mxGeometry>
        </mxCell>
        <mxCell id="Z0GZOSxspQHHXp1nHWNU-10" value="&lt;b&gt;&lt;font style=&quot;font-size: 18px;&quot;&gt;地物提取&lt;/font&gt;&lt;/b&gt;" style="text;html=1;align=center;verticalAlign=middle;whiteSpace=wrap;rounded=0;" vertex="1" parent="1">
          <mxGeometry x="200" y="-804" width="140.5" height="30" as="geometry" />
        </mxCell>
        <mxCell id="Z0GZOSxspQHHXp1nHWNU-13" style="edgeStyle=none;curved=1;rounded=0;orthogonalLoop=1;jettySize=auto;html=1;fontSize=12;startSize=8;endSize=8;" edge="1" parent="1" source="Z0GZOSxspQHHXp1nHWNU-11" target="Z0GZOSxspQHHXp1nHWNU-12">
          <mxGeometry relative="1" as="geometry" />
        </mxCell>
        <mxCell id="Z0GZOSxspQHHXp1nHWNU-11" value="&lt;font&gt;倾斜&lt;/font&gt;&lt;div&gt;&lt;font&gt;摄影模型&lt;/font&gt;&lt;/div&gt;" style="rounded=0;whiteSpace=wrap;html=1;fillColor=#f5f5f5;fontColor=#333333;strokeColor=#666666;strokeWidth=0;" vertex="1" parent="1">
          <mxGeometry x="193" y="-769" width="36" height="106" as="geometry" />
        </mxCell>
        <mxCell id="Z0GZOSxspQHHXp1nHWNU-12" value="&lt;font&gt;数字正射影像&lt;/font&gt;" style="rounded=0;whiteSpace=wrap;html=1;fillColor=#f5f5f5;fontColor=#333333;strokeColor=#666666;strokeWidth=0;" vertex="1" parent="1">
          <mxGeometry x="259" y="-768" width="36" height="106" as="geometry" />
        </mxCell>
        <mxCell id="Z0GZOSxspQHHXp1nHWNU-14" value="&lt;font&gt;各类地物掩膜&lt;/font&gt;" style="rounded=0;whiteSpace=wrap;html=1;fillColor=#f5f5f5;fontColor=#333333;strokeColor=#666666;strokeWidth=0;" vertex="1" parent="1">
          <mxGeometry x="328" y="-769" width="32" height="108" as="geometry" />
        </mxCell>
        <mxCell id="Z0GZOSxspQHHXp1nHWNU-30" value="&lt;b&gt;&lt;font style=&quot;font-size: 9px;&quot;&gt;提取&lt;/font&gt;&lt;/b&gt;" style="text;html=1;align=center;verticalAlign=middle;whiteSpace=wrap;rounded=0;" vertex="1" parent="1">
          <mxGeometry x="220" y="-737" width="42" height="19" as="geometry" />
        </mxCell>
        <mxCell id="Z0GZOSxspQHHXp1nHWNU-31" style="edgeStyle=none;curved=1;rounded=0;orthogonalLoop=1;jettySize=auto;html=1;fontSize=12;startSize=8;endSize=8;exitX=1;exitY=0.5;exitDx=0;exitDy=0;entryX=0;entryY=0.5;entryDx=0;entryDy=0;" edge="1" parent="1" source="Z0GZOSxspQHHXp1nHWNU-12" target="Z0GZOSxspQHHXp1nHWNU-14">
          <mxGeometry relative="1" as="geometry">
            <mxPoint x="239" y="-706" as="sourcePoint" />
            <mxPoint x="269" y="-705" as="targetPoint" />
          </mxGeometry>
        </mxCell>
        <mxCell id="Z0GZOSxspQHHXp1nHWNU-32" value="&lt;font style=&quot;font-size: 9px;&quot;&gt;&lt;b style=&quot;&quot;&gt;分割&lt;/b&gt;&lt;/font&gt;" style="text;html=1;align=center;verticalAlign=middle;whiteSpace=wrap;rounded=0;" vertex="1" parent="1">
          <mxGeometry x="286" y="-737" width="42" height="19" as="geometry" />
        </mxCell>
        <mxCell id="Z0GZOSxspQHHXp1nHWNU-33" value="&lt;font&gt;倾斜&lt;/font&gt;&lt;span style=&quot;background-color: transparent; color: light-dark(rgb(51, 51, 51), rgb(193, 193, 193));&quot;&gt;摄影模型&lt;/span&gt;" style="rounded=0;whiteSpace=wrap;html=1;fillColor=#f5f5f5;fontColor=#333333;strokeColor=#666666;strokeWidth=0;" vertex="1" parent="1">
          <mxGeometry x="-43" y="-623" width="90.75" height="30" as="geometry" />
        </mxCell>
        <mxCell id="Z0GZOSxspQHHXp1nHWNU-34" value="地物掩膜" style="rounded=0;whiteSpace=wrap;html=1;fillColor=#f5f5f5;fontColor=#333333;strokeColor=#666666;strokeWidth=0;" vertex="1" parent="1">
          <mxGeometry x="-43" y="-533" width="90" height="30" as="geometry" />
        </mxCell>
        <mxCell id="Z0GZOSxspQHHXp1nHWNU-59" style="edgeStyle=orthogonalEdgeStyle;rounded=0;orthogonalLoop=1;jettySize=auto;html=1;entryX=0;entryY=0.5;entryDx=0;entryDy=0;fontSize=12;startSize=8;endSize=8;exitX=1;exitY=0.5;exitDx=0;exitDy=0;" edge="1" parent="1" source="Z0GZOSxspQHHXp1nHWNU-38" target="Z0GZOSxspQHHXp1nHWNU-54">
          <mxGeometry relative="1" as="geometry">
            <Array as="points">
              <mxPoint x="152" y="-561" />
              <mxPoint x="152" y="-593" />
            </Array>
          </mxGeometry>
        </mxCell>
        <mxCell id="Z0GZOSxspQHHXp1nHWNU-38" value="&lt;div&gt;&lt;font&gt;分区&lt;/font&gt;&lt;/div&gt;&lt;div&gt;&lt;font&gt;分块&lt;/font&gt;&lt;/div&gt;&lt;div&gt;&lt;font&gt;三维&lt;/font&gt;&lt;/div&gt;&lt;div&gt;&lt;span style=&quot;background-color: transparent; color: light-dark(rgb(51, 51, 51), rgb(193, 193, 193));&quot;&gt;模型&lt;/span&gt;&lt;/div&gt;&lt;div&gt;&lt;span style=&quot;background-color: transparent; color: light-dark(rgb(51, 51, 51), rgb(193, 193, 193));&quot;&gt;&lt;font style=&quot;font-size: 8px;&quot;&gt;&lt;b&gt;.osgb&lt;/b&gt;&lt;/font&gt;&lt;/span&gt;&lt;/div&gt;" style="rounded=0;whiteSpace=wrap;html=1;fillColor=#f5f5f5;fontColor=#333333;strokeColor=#666666;strokeWidth=0;" vertex="1" parent="1">
          <mxGeometry x="95" y="-609" width="36" height="96" as="geometry" />
        </mxCell>
        <mxCell id="Z0GZOSxspQHHXp1nHWNU-44" style="edgeStyle=none;curved=0;rounded=0;orthogonalLoop=1;jettySize=auto;html=1;fontSize=12;startSize=8;endSize=8;entryX=0.011;entryY=0.454;entryDx=0;entryDy=0;entryPerimeter=0;exitX=1;exitY=0.5;exitDx=0;exitDy=0;" edge="1" parent="1" source="Z0GZOSxspQHHXp1nHWNU-40">
          <mxGeometry relative="1" as="geometry">
            <mxPoint x="50" y="-561.1451288418743" as="sourcePoint" />
            <mxPoint x="97.64600000000007" y="-560.8459999999999" as="targetPoint" />
            <Array as="points" />
          </mxGeometry>
        </mxCell>
        <mxCell id="Z0GZOSxspQHHXp1nHWNU-40" value="地形因子" style="rounded=0;whiteSpace=wrap;html=1;fillColor=#f5f5f5;fontColor=#333333;strokeColor=#666666;strokeWidth=0;" vertex="1" parent="1">
          <mxGeometry x="-43" y="-576" width="90.75" height="30" as="geometry" />
        </mxCell>
        <mxCell id="Z0GZOSxspQHHXp1nHWNU-42" value="&lt;span style=&quot;font-size: 18px;&quot;&gt;&lt;b&gt;倾斜摄影模型地面滤波&lt;/b&gt;&lt;/span&gt;" style="text;html=1;align=center;verticalAlign=middle;whiteSpace=wrap;rounded=0;" vertex="1" parent="1">
          <mxGeometry x="62" y="-653" width="184" height="30" as="geometry" />
        </mxCell>
        <mxCell id="Z0GZOSxspQHHXp1nHWNU-43" style="edgeStyle=orthogonalEdgeStyle;rounded=0;orthogonalLoop=1;jettySize=auto;html=1;fontSize=12;startSize=8;endSize=8;exitX=1;exitY=0.5;exitDx=0;exitDy=0;endArrow=none;startFill=0;entryX=0;entryY=0.5;entryDx=0;entryDy=0;" edge="1" parent="1" source="Z0GZOSxspQHHXp1nHWNU-33" target="Z0GZOSxspQHHXp1nHWNU-38">
          <mxGeometry relative="1" as="geometry">
            <mxPoint x="92" y="-566" as="targetPoint" />
            <Array as="points">
              <mxPoint x="68" y="-608" />
              <mxPoint x="68" y="-561" />
            </Array>
          </mxGeometry>
        </mxCell>
        <mxCell id="Z0GZOSxspQHHXp1nHWNU-45" style="edgeStyle=orthogonalEdgeStyle;rounded=0;orthogonalLoop=1;jettySize=auto;html=1;fontSize=12;startSize=8;endSize=8;endArrow=none;startFill=0;" edge="1" parent="1">
          <mxGeometry relative="1" as="geometry">
            <mxPoint x="49.27" y="-517.3" as="sourcePoint" />
            <mxPoint x="93" y="-561" as="targetPoint" />
            <Array as="points">
              <mxPoint x="68" y="-517" />
              <mxPoint x="68" y="-561" />
            </Array>
          </mxGeometry>
        </mxCell>
        <mxCell id="Z0GZOSxspQHHXp1nHWNU-60" style="edgeStyle=orthogonalEdgeStyle;rounded=0;orthogonalLoop=1;jettySize=auto;html=1;entryX=0;entryY=0.5;entryDx=0;entryDy=0;fontSize=12;startSize=8;endSize=8;exitX=1;exitY=0.5;exitDx=0;exitDy=0;" edge="1" parent="1" source="Z0GZOSxspQHHXp1nHWNU-38" target="Z0GZOSxspQHHXp1nHWNU-55">
          <mxGeometry relative="1" as="geometry">
            <mxPoint x="141" y="-551" as="sourcePoint" />
            <mxPoint x="168" y="-584" as="targetPoint" />
            <Array as="points">
              <mxPoint x="152" y="-561" />
              <mxPoint x="152" y="-529" />
              <mxPoint x="166" y="-529" />
            </Array>
          </mxGeometry>
        </mxCell>
        <mxCell id="Z0GZOSxspQHHXp1nHWNU-61" value="" style="group" vertex="1" connectable="0" parent="1">
          <mxGeometry x="171" y="-622" width="86" height="122" as="geometry" />
        </mxCell>
        <mxCell id="Z0GZOSxspQHHXp1nHWNU-54" value="" style="rounded=0;whiteSpace=wrap;html=1;fillColor=light-dark(#bbbbbb, #ededed);strokeWidth=0;" vertex="1" parent="Z0GZOSxspQHHXp1nHWNU-61">
          <mxGeometry width="83" height="58" as="geometry" />
        </mxCell>
        <mxCell id="Z0GZOSxspQHHXp1nHWNU-46" value="&lt;font style=&quot;font-size: 10px;&quot;&gt;顶点&lt;/font&gt;" style="rounded=0;whiteSpace=wrap;html=1;fillColor=#f5f5f5;fontColor=#333333;strokeColor=#666666;strokeWidth=0;" vertex="1" parent="Z0GZOSxspQHHXp1nHWNU-61">
          <mxGeometry x="8" y="4" width="48" height="19" as="geometry" />
        </mxCell>
        <mxCell id="Z0GZOSxspQHHXp1nHWNU-48" value="&lt;font style=&quot;font-size: 10px;&quot;&gt;面片&lt;/font&gt;" style="rounded=0;whiteSpace=wrap;html=1;fillColor=#f5f5f5;fontColor=#333333;strokeColor=#666666;strokeWidth=0;" vertex="1" parent="Z0GZOSxspQHHXp1nHWNU-61">
          <mxGeometry x="8" y="30" width="47" height="21" as="geometry" />
        </mxCell>
        <mxCell id="Z0GZOSxspQHHXp1nHWNU-55" value="" style="rounded=0;whiteSpace=wrap;html=1;fillColor=light-dark(#bbbbbb, #39454e);strokeColor=#23445d;strokeWidth=0;" vertex="1" parent="Z0GZOSxspQHHXp1nHWNU-61">
          <mxGeometry y="66" width="84" height="56" as="geometry" />
        </mxCell>
        <mxCell id="Z0GZOSxspQHHXp1nHWNU-49" value="&lt;font style=&quot;font-size: 10px;&quot;&gt;材质&lt;/font&gt;" style="rounded=0;whiteSpace=wrap;html=1;fillColor=#f5f5f5;fontColor=#333333;strokeColor=#666666;strokeWidth=0;" vertex="1" parent="Z0GZOSxspQHHXp1nHWNU-61">
          <mxGeometry x="8" y="71" width="49" height="22" as="geometry" />
        </mxCell>
        <mxCell id="Z0GZOSxspQHHXp1nHWNU-50" value="&lt;font style=&quot;font-size: 10px;&quot;&gt;UV坐标&lt;/font&gt;" style="rounded=0;whiteSpace=wrap;html=1;fillColor=#f5f5f5;fontColor=#333333;strokeColor=#666666;strokeWidth=0;" vertex="1" parent="Z0GZOSxspQHHXp1nHWNU-61">
          <mxGeometry x="8" y="98" width="50" height="22" as="geometry" />
        </mxCell>
        <mxCell id="Z0GZOSxspQHHXp1nHWNU-57" value="&lt;div style=&quot;line-height: 110%;&quot;&gt;&lt;font style=&quot;font-size: 10px; line-height: 110%;&quot;&gt;&lt;b&gt;纹&lt;/b&gt;&lt;/font&gt;&lt;div&gt;&lt;font style=&quot;font-size: 10px; line-height: 110%;&quot;&gt;&lt;b&gt;理&lt;/b&gt;&lt;/font&gt;&lt;/div&gt;&lt;/div&gt;" style="text;html=1;align=center;verticalAlign=middle;whiteSpace=wrap;rounded=0;" vertex="1" parent="Z0GZOSxspQHHXp1nHWNU-61">
          <mxGeometry x="57" y="88" width="29" height="10" as="geometry" />
        </mxCell>
        <mxCell id="Z0GZOSxspQHHXp1nHWNU-58" value="&lt;div&gt;&lt;div&gt;&lt;b&gt;&lt;font style=&quot;font-size: 10px;&quot;&gt;几&lt;/font&gt;&lt;/b&gt;&lt;/div&gt;&lt;div&gt;&lt;b&gt;&lt;font style=&quot;font-size: 10px;&quot;&gt;何&lt;/font&gt;&lt;/b&gt;&lt;/div&gt;&lt;/div&gt;" style="text;html=1;align=center;verticalAlign=middle;whiteSpace=wrap;rounded=0;" vertex="1" parent="Z0GZOSxspQHHXp1nHWNU-61">
          <mxGeometry x="54" y="23" width="29" height="10" as="geometry" />
        </mxCell>
        <mxCell id="Z0GZOSxspQHHXp1nHWNU-62" style="edgeStyle=none;curved=1;rounded=0;orthogonalLoop=1;jettySize=auto;html=1;entryX=0.25;entryY=1;entryDx=0;entryDy=0;fontSize=12;startSize=8;endSize=8;" edge="1" parent="Z0GZOSxspQHHXp1nHWNU-61" source="Z0GZOSxspQHHXp1nHWNU-58" target="Z0GZOSxspQHHXp1nHWNU-58">
          <mxGeometry relative="1" as="geometry" />
        </mxCell>
        <mxCell id="Z0GZOSxspQHHXp1nHWNU-63" value="&lt;font style=&quot;font-size: 7px;&quot;&gt;&lt;b&gt;分区&lt;/b&gt;&lt;/font&gt;" style="text;html=1;align=center;verticalAlign=middle;whiteSpace=wrap;rounded=0;" vertex="1" parent="1">
          <mxGeometry x="64" y="-585" width="31" height="30" as="geometry" />
        </mxCell>
        <mxCell id="Z0GZOSxspQHHXp1nHWNU-64" value="&lt;font style=&quot;font-size: 7px;&quot;&gt;&lt;b&gt;分块&lt;/b&gt;&lt;/font&gt;" style="text;html=1;align=center;verticalAlign=middle;whiteSpace=wrap;rounded=0;" vertex="1" parent="1">
          <mxGeometry x="64" y="-571" width="31" height="30" as="geometry" />
        </mxCell>
        <mxCell id="Z0GZOSxspQHHXp1nHWNU-65" value="&lt;font style=&quot;font-size: 7px;&quot;&gt;&lt;b&gt;提取&lt;/b&gt;&lt;/font&gt;" style="text;html=1;align=center;verticalAlign=middle;whiteSpace=wrap;rounded=0;" vertex="1" parent="1">
          <mxGeometry x="126" y="-571" width="31" height="30" as="geometry" />
        </mxCell>
        <mxCell id="Z0GZOSxspQHHXp1nHWNU-66" value="&lt;span style=&quot;font-size: 7px;&quot;&gt;&lt;b&gt;转换&lt;/b&gt;&lt;/span&gt;" style="text;html=1;align=center;verticalAlign=middle;whiteSpace=wrap;rounded=0;" vertex="1" parent="1">
          <mxGeometry x="126" y="-585" width="31" height="30" as="geometry" />
        </mxCell>
        <mxCell id="Z0GZOSxspQHHXp1nHWNU-67" value="&lt;p data-end=&quot;245&quot; data-start=&quot;223&quot;&gt;&lt;strong data-end=&quot;245&quot; data-start=&quot;223&quot;&gt;地面滤波处理后存在空洞的实景三维模型&lt;/strong&gt;&lt;/p&gt;&lt;p data-end=&quot;295&quot; data-start=&quot;250&quot;&gt;&lt;/p&gt;" style="rounded=0;whiteSpace=wrap;html=1;fillColor=#f5f5f5;fontColor=#333333;strokeColor=#666666;strokeWidth=0;" vertex="1" parent="1">
          <mxGeometry x="29" y="-494" width="237" height="22" as="geometry" />
        </mxCell>
        <mxCell id="Z0GZOSxspQHHXp1nHWNU-68" value="" style="rounded=0;whiteSpace=wrap;html=1;fillColor=#f5f5f5;fontColor=#333333;strokeColor=#666666;strokeWidth=0;" vertex="1" parent="1">
          <mxGeometry x="286" y="-618" width="36" height="96" as="geometry" />
        </mxCell>
      </root>
    </mxGraphModel>
  </diagram>
</mxfile>
